999
Inkscape export via Big Blue Saws DXF Export" (http://www.bigbluesaw.com/saw/big-blue-saw-blog/general-updates/big-blue-saws-dxf-export-for-inkscape.html)
  0
SECTION
  2
HEADER
  9
$ACADVER
  1
AC1014
  9
$HANDSEED
  5
FFFF
  0
$INSUNITS
 70
 1
 9
ENDSEC
  0
SECTION
  2
TABLES
  0
TABLE
  2
VPORT
  5
8
330
0
100
AcDbSymbolTable
 70
     4
  0
VPORT
  5
2E
330
8
100
AcDbSymbolTableRecord
100
AcDbViewportTableRecord
  2
*ACTIVE
 70
     0
 10
0.0
 20
0.0
 11
1.0
 21
1.0
 12
4.25
 22
5.5
 13
0.0
 23
0.0
 14
10.0
 24
10.0
 15
10.0
 25
10.0
 16
0.0
 26
0.0
 36
1.0
 17
0.0
 27
0.0
 37
0.0
 40
11
 41
1.24
 42
50.0
 43
0.0
 44
0.0
 50
0.0
 51
0.0
 71
     0
 72
   100
 73
     1
 74
     3
 75
     0
 76
     0
 77
     0
 78
     0
  0
ENDTAB
  0
TABLE
  2
LTYPE
  5
5
330
0
100
AcDbSymbolTable
 70
     1
  0
LTYPE
  5
14
330
5
100
AcDbSymbolTableRecord
100
AcDbLinetypeTableRecord
  2
BYBLOCK
 70
     0
  3

 72
    65
 73
     0
 40
0.0
  0
LTYPE
  5
15
330
5
100
AcDbSymbolTableRecord
100
AcDbLinetypeTableRecord
  2
BYLAYER
 70
     0
  3

 72
    65
 73
     0
 40
0.0
  0
LTYPE
  5
16
330
5
100
AcDbSymbolTableRecord
100
AcDbLinetypeTableRecord
  2
CONTINUOUS
 70
     0
  3
Solid line
 72
    65
 73
     0
 40
0.0
  0
ENDTAB
  0
TABLE
  2
STYLE
  5
3
330
0
100
AcDbSymbolTable
 70
     1
  0
STYLE
  5
11
330
3
100
AcDbSymbolTableRecord
100
AcDbTextStyleTableRecord
  2
STANDARD
 70
     0
 40
0.0
 41
1.0
 50
0.0
 71
     0
 42
2.5
  3
txt
  4

  0
ENDTAB
  0
TABLE
  2
VIEW
  5
6
330
0
100
AcDbSymbolTable
 70
     0
  0
ENDTAB
  0
TABLE
  2
UCS
  5
7
330
0
100
AcDbSymbolTable
 70
     0
  0
ENDTAB
  0
TABLE
  2
APPID
  5
9
330
0
100
AcDbSymbolTable
 70
     2
  0
APPID
  5
12
330
9
100
AcDbSymbolTableRecord
100
AcDbRegAppTableRecord
  2
ACAD
 70
     0
  0
ENDTAB
  0
TABLE
  2
DIMSTYLE
  5
A
330
0
100
AcDbSymbolTable
 70
     1
  0
DIMSTYLE
105
27
330
A
100
AcDbSymbolTableRecord
100
AcDbDimStyleTableRecord
  2
ISO-25
 70
     0
  3

  4

  5

  6

  7

 40
1.0
 41
2.5
 42
0.625
 43
3.75
 44
1.25
 45
0.0
 46
0.0
 47
0.0
 48
0.0
140
2.5
141
2.5
142
0.0
143
0.03937007874016
144
1.0
145
0.0
146
1.0
147
0.625
 71
     0
 72
     0
 73
     0
 74
     0
 75
     0
 76
     0
 77
     1
 78
     8
170
     0
171
     3
172
     1
173
     0
174
     0
175
     0
176
     0
177
     0
178
     0
270
     2
271
     2
272
     2
273
     2
274
     3
340
11
275
     0
280
     0
281
     0
282
     0
283
     0
284
     8
285
     0
286
     0
287
     3
288
     0
  0
ENDTAB
  0
TABLE
  2
BLOCK_RECORD
  5
1
330
0
100
AcDbSymbolTable
 70
     1
  0
BLOCK_RECORD
  5
1F
330
1
100
AcDbSymbolTableRecord
100
AcDbBlockTableRecord
  2
*MODEL_SPACE
  0
BLOCK_RECORD
  5
1B
330
1
100
AcDbSymbolTableRecord
100
AcDbBlockTableRecord
  2
*PAPER_SPACE
  0
ENDTAB
0
TABLE
2
LAYER
5
2
330
0
100
AcDbSymbolTable
70
1
0
LAYER
5
10
330
2
100
AcDbSymbolTableRecord
100
AcDbLayerTableRecord
2
Layer_1
70
0
62
7
6
CONTINUOUS
0
ENDTAB
0
ENDSEC
  0
SECTION
  2
BLOCKS
  0
BLOCK
  5
20
330
1F
100
AcDbEntity
  8
0
100
AcDbBlockBegin
  2
*MODEL_SPACE
 70
     0
 10
0.0
 20
0.0
 30
0.0
  3
*MODEL_SPACE
  1

  0
ENDBLK
  5
21
330
1F
100
AcDbEntity
  8
0
100
AcDbBlockEnd
  0
BLOCK
  5
1C
330
1B
100
AcDbEntity
 67
     1
  8
0
100
AcDbBlockBegin
  2
*PAPER_SPACE
  1

  0
ENDBLK
  5
1D
330
1B
100
AcDbEntity
 67
     1
  8
0
100
AcDbBlockEnd
  0
ENDSEC
  0
SECTION
  2
ENTITIES
0
LINE
8
Layer_1
62
1
5
100
100
AcDbEntity
100
AcDbLine
10
21.155227
20
6.021304
30
0.0
11
22.266337
21
6.021304
31
0.0
0
LINE
8
Layer_1
62
1
5
101
100
AcDbEntity
100
AcDbLine
10
22.500516
20
6.021304
30
0.0
11
23.611626
21
6.021304
31
0.0
0
LINE
8
Layer_1
62
1
5
102
100
AcDbEntity
100
AcDbLine
10
22.506830
20
6.015749
30
0.0
11
22.506830
21
6.382661
31
0.0
0
LINE
8
Layer_1
62
1
5
103
100
AcDbEntity
100
AcDbLine
10
22.506830
20
6.382661
30
0.0
11
22.260022
21
6.382661
31
0.0
0
LINE
8
Layer_1
62
1
5
104
100
AcDbEntity
100
AcDbLine
10
22.260022
20
6.382661
30
0.0
11
22.260022
21
6.015749
31
0.0
0
LINE
8
Layer_1
62
1
5
105
100
AcDbEntity
100
AcDbLine
10
23.605311
20
6.015749
30
0.0
11
23.605311
21
6.382661
31
0.0
0
LINE
8
Layer_1
62
1
5
106
100
AcDbEntity
100
AcDbLine
10
23.605311
20
6.382661
30
0.0
11
24.978904
21
6.382661
31
0.0
0
LINE
8
Layer_1
62
1
5
107
100
AcDbEntity
100
AcDbLine
10
24.978904
20
6.382661
30
0.0
11
24.978904
21
7.754494
31
0.0
0
LINE
8
Layer_1
62
1
5
108
100
AcDbEntity
100
AcDbLine
10
24.978904
20
7.754494
30
0.0
11
25.344056
21
7.754494
31
0.0
0
LINE
8
Layer_1
62
1
5
109
100
AcDbEntity
100
AcDbLine
10
23.611626
20
11.931452
30
0.0
11
22.500514
21
11.931452
31
0.0
0
LINE
8
Layer_1
62
1
5
10a
100
AcDbEntity
100
AcDbLine
10
22.266338
20
11.931452
30
0.0
11
21.155227
21
11.931452
31
0.0
0
LINE
8
Layer_1
62
1
5
10b
100
AcDbEntity
100
AcDbLine
10
22.260022
20
11.937008
30
0.0
11
22.260022
21
11.574146
31
0.0
0
LINE
8
Layer_1
62
1
5
10c
100
AcDbEntity
100
AcDbLine
10
22.260022
20
11.574146
30
0.0
11
22.506830
21
11.574146
31
0.0
0
LINE
8
Layer_1
62
1
5
10d
100
AcDbEntity
100
AcDbLine
10
22.506830
20
11.574146
30
0.0
11
22.506830
21
11.937008
31
0.0
0
LINE
8
Layer_1
62
1
5
10e
100
AcDbEntity
100
AcDbLine
10
19.428352
20
7.748179
30
0.0
11
19.428352
21
8.859290
31
0.0
0
LINE
8
Layer_1
62
1
5
10f
100
AcDbEntity
100
AcDbLine
10
19.422797
20
7.754494
30
0.0
11
19.785007
21
7.754494
31
0.0
0
LINE
8
Layer_1
62
1
5
110
100
AcDbEntity
100
AcDbLine
10
19.785007
20
7.754494
30
0.0
11
19.785007
21
6.382661
31
0.0
0
LINE
8
Layer_1
62
1
5
111
100
AcDbEntity
100
AcDbLine
10
19.785007
20
6.382661
30
0.0
11
21.161547
21
6.382661
31
0.0
0
LINE
8
Layer_1
62
1
5
112
100
AcDbEntity
100
AcDbLine
10
21.161547
20
6.382661
30
0.0
11
21.161547
21
6.015749
31
0.0
0
LINE
8
Layer_1
62
1
5
113
100
AcDbEntity
100
AcDbLine
10
19.428352
20
9.093467
30
0.0
11
19.428352
21
10.204578
31
0.0
0
LINE
8
Layer_1
62
1
5
114
100
AcDbEntity
100
AcDbLine
10
19.422797
20
9.099782
30
0.0
11
19.785007
21
9.099782
31
0.0
0
LINE
8
Layer_1
62
1
5
115
100
AcDbEntity
100
AcDbLine
10
19.785007
20
9.099782
30
0.0
11
19.785007
21
8.852974
31
0.0
0
LINE
8
Layer_1
62
1
5
116
100
AcDbEntity
100
AcDbLine
10
19.785007
20
8.852974
30
0.0
11
19.422797
21
8.852974
31
0.0
0
LINE
8
Layer_1
62
1
5
117
100
AcDbEntity
100
AcDbLine
10
19.422797
20
10.198262
30
0.0
11
19.785007
21
10.198262
31
0.0
0
LINE
8
Layer_1
62
1
5
118
100
AcDbEntity
100
AcDbLine
10
19.785007
20
10.198262
30
0.0
11
19.785007
21
11.574146
31
0.0
0
LINE
8
Layer_1
62
1
5
119
100
AcDbEntity
100
AcDbLine
10
19.785007
20
11.574146
30
0.0
11
21.161543
21
11.574146
31
0.0
0
LINE
8
Layer_1
62
1
5
11a
100
AcDbEntity
100
AcDbLine
10
21.161543
20
11.574146
30
0.0
11
21.161543
21
11.937005
31
0.0
0
LINE
8
Layer_1
62
1
5
11b
100
AcDbEntity
100
AcDbLine
10
25.338500
20
7.748179
30
0.0
11
25.338500
21
8.859290
31
0.0
0
LINE
8
Layer_1
62
1
5
11c
100
AcDbEntity
100
AcDbLine
10
25.344056
20
8.852974
30
0.0
11
24.981851
21
8.852974
31
0.0
0
LINE
8
Layer_1
62
1
5
11d
100
AcDbEntity
100
AcDbLine
10
24.981851
20
8.852974
30
0.0
11
24.981851
21
9.099782
31
0.0
0
LINE
8
Layer_1
62
1
5
11e
100
AcDbEntity
100
AcDbLine
10
24.981851
20
9.099782
30
0.0
11
25.344056
21
9.099782
31
0.0
0
LINE
8
Layer_1
62
1
5
11f
100
AcDbEntity
100
AcDbLine
10
25.338500
20
9.093467
30
0.0
11
25.338500
21
10.204578
31
0.0
0
LINE
8
Layer_1
62
1
5
120
100
AcDbEntity
100
AcDbLine
10
25.344056
20
10.198262
30
0.0
11
24.978904
21
10.198262
31
0.0
0
LINE
8
Layer_1
62
1
5
121
100
AcDbEntity
100
AcDbLine
10
24.978904
20
10.198262
30
0.0
11
24.978904
21
11.574146
31
0.0
0
LINE
8
Layer_1
62
1
5
122
100
AcDbEntity
100
AcDbLine
10
24.978904
20
11.574146
30
0.0
11
23.605311
21
11.574146
31
0.0
0
LINE
8
Layer_1
62
1
5
123
100
AcDbEntity
100
AcDbLine
10
23.605311
20
11.574146
30
0.0
11
23.605311
21
11.937008
31
0.0
0
LINE
8
Layer_1
62
1
5
124
100
AcDbEntity
100
AcDbLine
10
22.383427
20
8.292890
30
0.0
11
22.245680
21
8.306777
31
0.0
0
LINE
8
Layer_1
62
1
5
125
100
AcDbEntity
100
AcDbLine
10
22.245680
20
8.306777
30
0.0
11
22.117382
21
8.346602
31
0.0
0
LINE
8
Layer_1
62
1
5
126
100
AcDbEntity
100
AcDbLine
10
22.117382
20
8.346602
30
0.0
11
22.001282
21
8.409620
31
0.0
0
LINE
8
Layer_1
62
1
5
127
100
AcDbEntity
100
AcDbLine
10
22.001282
20
8.409620
30
0.0
11
21.900127
21
8.493080
31
0.0
0
LINE
8
Layer_1
62
1
5
128
100
AcDbEntity
100
AcDbLine
10
21.900127
20
8.493080
30
0.0
11
21.816667
21
8.594234
31
0.0
0
LINE
8
Layer_1
62
1
5
129
100
AcDbEntity
100
AcDbLine
10
21.816667
20
8.594234
30
0.0
11
21.753650
21
8.710334
31
0.0
0
LINE
8
Layer_1
62
1
5
12a
100
AcDbEntity
100
AcDbLine
10
21.753650
20
8.710334
30
0.0
11
21.713824
21
8.838632
31
0.0
0
LINE
8
Layer_1
62
1
5
12b
100
AcDbEntity
100
AcDbLine
10
21.713824
20
8.838632
30
0.0
11
21.699938
21
8.976379
31
0.0
0
LINE
8
Layer_1
62
1
5
12c
100
AcDbEntity
100
AcDbLine
10
21.699938
20
8.976379
30
0.0
11
21.713824
21
9.114126
31
0.0
0
LINE
8
Layer_1
62
1
5
12d
100
AcDbEntity
100
AcDbLine
10
21.713824
20
9.114126
30
0.0
11
21.753650
21
9.242424
31
0.0
0
LINE
8
Layer_1
62
1
5
12e
100
AcDbEntity
100
AcDbLine
10
21.753650
20
9.242424
30
0.0
11
21.816667
21
9.358524
31
0.0
0
LINE
8
Layer_1
62
1
5
12f
100
AcDbEntity
100
AcDbLine
10
21.816667
20
9.358524
30
0.0
11
21.900127
21
9.459678
31
0.0
0
LINE
8
Layer_1
62
1
5
130
100
AcDbEntity
100
AcDbLine
10
21.900127
20
9.459678
30
0.0
11
22.001282
21
9.543139
31
0.0
0
LINE
8
Layer_1
62
1
5
131
100
AcDbEntity
100
AcDbLine
10
22.001282
20
9.543139
30
0.0
11
22.117382
21
9.606156
31
0.0
0
LINE
8
Layer_1
62
1
5
132
100
AcDbEntity
100
AcDbLine
10
22.117382
20
9.606156
30
0.0
11
22.245680
21
9.645982
31
0.0
0
LINE
8
Layer_1
62
1
5
133
100
AcDbEntity
100
AcDbLine
10
22.245680
20
9.645982
30
0.0
11
22.383427
21
9.659868
31
0.0
0
LINE
8
Layer_1
62
1
5
134
100
AcDbEntity
100
AcDbLine
10
22.383427
20
9.659868
30
0.0
11
22.521173
21
9.645982
31
0.0
0
LINE
8
Layer_1
62
1
5
135
100
AcDbEntity
100
AcDbLine
10
22.521173
20
9.645982
30
0.0
11
22.649471
21
9.606156
31
0.0
0
LINE
8
Layer_1
62
1
5
136
100
AcDbEntity
100
AcDbLine
10
22.649471
20
9.606156
30
0.0
11
22.765572
21
9.543139
31
0.0
0
LINE
8
Layer_1
62
1
5
137
100
AcDbEntity
100
AcDbLine
10
22.765572
20
9.543139
30
0.0
11
22.866726
21
9.459678
31
0.0
0
LINE
8
Layer_1
62
1
5
138
100
AcDbEntity
100
AcDbLine
10
22.866726
20
9.459678
30
0.0
11
22.950186
21
9.358524
31
0.0
0
LINE
8
Layer_1
62
1
5
139
100
AcDbEntity
100
AcDbLine
10
22.950186
20
9.358524
30
0.0
11
23.013204
21
9.242424
31
0.0
0
LINE
8
Layer_1
62
1
5
13a
100
AcDbEntity
100
AcDbLine
10
23.013204
20
9.242424
30
0.0
11
23.053029
21
9.114126
31
0.0
0
LINE
8
Layer_1
62
1
5
13b
100
AcDbEntity
100
AcDbLine
10
23.053029
20
9.114126
30
0.0
11
23.066916
21
8.976379
31
0.0
0
LINE
8
Layer_1
62
1
5
13c
100
AcDbEntity
100
AcDbLine
10
23.066916
20
8.976379
30
0.0
11
23.053029
21
8.838632
31
0.0
0
LINE
8
Layer_1
62
1
5
13d
100
AcDbEntity
100
AcDbLine
10
23.053029
20
8.838632
30
0.0
11
23.013204
21
8.710334
31
0.0
0
LINE
8
Layer_1
62
1
5
13e
100
AcDbEntity
100
AcDbLine
10
23.013204
20
8.710334
30
0.0
11
22.950186
21
8.594234
31
0.0
0
LINE
8
Layer_1
62
1
5
13f
100
AcDbEntity
100
AcDbLine
10
22.950186
20
8.594234
30
0.0
11
22.866726
21
8.493080
31
0.0
0
LINE
8
Layer_1
62
1
5
140
100
AcDbEntity
100
AcDbLine
10
22.866726
20
8.493080
30
0.0
11
22.765572
21
8.409620
31
0.0
0
LINE
8
Layer_1
62
1
5
141
100
AcDbEntity
100
AcDbLine
10
22.765572
20
8.409620
30
0.0
11
22.649471
21
8.346602
31
0.0
0
LINE
8
Layer_1
62
1
5
142
100
AcDbEntity
100
AcDbLine
10
22.649471
20
8.346602
30
0.0
11
22.521173
21
8.306777
31
0.0
0
LINE
8
Layer_1
62
1
5
143
100
AcDbEntity
100
AcDbLine
10
22.521173
20
8.306777
30
0.0
11
22.383427
21
8.292890
31
0.0
0
LINE
8
Layer_1
62
1
5
144
100
AcDbEntity
100
AcDbLine
10
22.383427
20
8.292890
30
0.0
11
22.383427
21
8.292890
31
0.0
0
LINE
8
Layer_1
62
1
5
145
100
AcDbEntity
100
AcDbLine
10
9.885852
20
15.251414
30
0.0
11
10.239789
21
15.251414
31
0.0
0
LINE
8
Layer_1
62
1
5
146
100
AcDbEntity
100
AcDbLine
10
10.239789
20
15.251414
30
0.0
11
10.239789
21
14.897083
31
0.0
0
LINE
8
Layer_1
62
1
5
147
100
AcDbEntity
100
AcDbLine
10
10.239789
20
14.897083
30
0.0
11
10.614198
21
14.897083
31
0.0
0
LINE
8
Layer_1
62
1
5
148
100
AcDbEntity
100
AcDbLine
10
10.614198
20
14.897083
30
0.0
11
10.614198
21
15.251414
31
0.0
0
LINE
8
Layer_1
62
1
5
149
100
AcDbEntity
100
AcDbLine
10
10.614198
20
15.251414
30
0.0
11
10.968135
21
15.251414
31
0.0
0
LINE
8
Layer_1
62
1
5
14a
100
AcDbEntity
100
AcDbLine
10
10.968135
20
15.251414
30
0.0
11
10.968135
21
14.897083
31
0.0
0
LINE
8
Layer_1
62
1
5
14b
100
AcDbEntity
100
AcDbLine
10
10.968135
20
14.897083
30
0.0
11
11.342544
21
14.897083
31
0.0
0
LINE
8
Layer_1
62
1
5
14c
100
AcDbEntity
100
AcDbLine
10
11.342544
20
14.897083
30
0.0
11
11.342544
21
15.251414
31
0.0
0
LINE
8
Layer_1
62
1
5
14d
100
AcDbEntity
100
AcDbLine
10
11.342544
20
15.251414
30
0.0
11
11.696481
21
15.251414
31
0.0
0
LINE
8
Layer_1
62
1
5
14e
100
AcDbEntity
100
AcDbLine
10
11.696481
20
15.251414
30
0.0
11
11.696481
21
14.897083
31
0.0
0
LINE
8
Layer_1
62
1
5
14f
100
AcDbEntity
100
AcDbLine
10
11.696481
20
14.897083
30
0.0
11
12.070891
21
14.897083
31
0.0
0
LINE
8
Layer_1
62
1
5
150
100
AcDbEntity
100
AcDbLine
10
12.070891
20
14.897083
30
0.0
11
12.070891
21
15.251414
31
0.0
0
LINE
8
Layer_1
62
1
5
151
100
AcDbEntity
100
AcDbLine
10
12.070891
20
15.251414
30
0.0
11
12.424828
21
15.251414
31
0.0
0
LINE
8
Layer_1
62
1
5
152
100
AcDbEntity
100
AcDbLine
10
12.424828
20
15.251414
30
0.0
11
12.424828
21
14.897083
31
0.0
0
LINE
8
Layer_1
62
1
5
153
100
AcDbEntity
100
AcDbLine
10
12.424828
20
14.897083
30
0.0
11
12.799238
21
14.897083
31
0.0
0
LINE
8
Layer_1
62
1
5
154
100
AcDbEntity
100
AcDbLine
10
12.799238
20
14.897083
30
0.0
11
12.799238
21
15.251414
31
0.0
0
LINE
8
Layer_1
62
1
5
155
100
AcDbEntity
100
AcDbLine
10
12.799238
20
15.251414
30
0.0
11
13.153174
21
15.251414
31
0.0
0
LINE
8
Layer_1
62
1
5
156
100
AcDbEntity
100
AcDbLine
10
13.153174
20
15.251414
30
0.0
11
13.153174
21
14.897083
31
0.0
0
LINE
8
Layer_1
62
1
5
157
100
AcDbEntity
100
AcDbLine
10
13.153174
20
14.897083
30
0.0
11
13.527584
21
14.897083
31
0.0
0
LINE
8
Layer_1
62
1
5
158
100
AcDbEntity
100
AcDbLine
10
13.527584
20
14.897083
30
0.0
11
13.527584
21
15.251414
31
0.0
0
LINE
8
Layer_1
62
1
5
159
100
AcDbEntity
100
AcDbLine
10
13.527584
20
15.251414
30
0.0
11
13.881521
21
15.251414
31
0.0
0
LINE
8
Layer_1
62
1
5
15a
100
AcDbEntity
100
AcDbLine
10
13.881521
20
15.251414
30
0.0
11
13.881521
21
14.897083
31
0.0
0
LINE
8
Layer_1
62
1
5
15b
100
AcDbEntity
100
AcDbLine
10
13.881521
20
14.897083
30
0.0
11
14.255930
21
14.897083
31
0.0
0
LINE
8
Layer_1
62
1
5
15c
100
AcDbEntity
100
AcDbLine
10
14.255930
20
14.897083
30
0.0
11
14.255930
21
15.251414
31
0.0
0
LINE
8
Layer_1
62
1
5
15d
100
AcDbEntity
100
AcDbLine
10
14.255930
20
15.251414
30
0.0
11
14.609868
21
15.251414
31
0.0
0
LINE
8
Layer_1
62
1
5
15e
100
AcDbEntity
100
AcDbLine
10
14.609868
20
15.251414
30
0.0
11
14.609868
21
14.897083
31
0.0
0
LINE
8
Layer_1
62
1
5
15f
100
AcDbEntity
100
AcDbLine
10
14.609868
20
14.897083
30
0.0
11
14.984277
21
14.897083
31
0.0
0
LINE
8
Layer_1
62
1
5
160
100
AcDbEntity
100
AcDbLine
10
14.984277
20
14.897083
30
0.0
11
14.984277
21
15.251414
31
0.0
0
LINE
8
Layer_1
62
1
5
161
100
AcDbEntity
100
AcDbLine
10
14.984277
20
15.251414
30
0.0
11
15.338214
21
15.251414
31
0.0
0
LINE
8
Layer_1
62
1
5
162
100
AcDbEntity
100
AcDbLine
10
15.338214
20
15.251414
30
0.0
11
15.338214
21
14.897083
31
0.0
0
LINE
8
Layer_1
62
1
5
163
100
AcDbEntity
100
AcDbLine
10
15.338214
20
14.897083
30
0.0
11
15.712623
21
14.897083
31
0.0
0
LINE
8
Layer_1
62
1
5
164
100
AcDbEntity
100
AcDbLine
10
15.712623
20
14.897083
30
0.0
11
15.712623
21
15.251414
31
0.0
0
LINE
8
Layer_1
62
1
5
165
100
AcDbEntity
100
AcDbLine
10
15.712623
20
15.251414
30
0.0
11
16.066560
21
15.251414
31
0.0
0
LINE
8
Layer_1
62
1
5
166
100
AcDbEntity
100
AcDbLine
10
16.066560
20
15.251414
30
0.0
11
16.066560
21
14.897083
31
0.0
0
LINE
8
Layer_1
62
1
5
167
100
AcDbEntity
100
AcDbLine
10
16.066560
20
14.897083
30
0.0
11
16.440970
21
14.897083
31
0.0
0
LINE
8
Layer_1
62
1
5
168
100
AcDbEntity
100
AcDbLine
10
16.440970
20
14.897083
30
0.0
11
16.440970
21
15.251414
31
0.0
0
LINE
8
Layer_1
62
1
5
169
100
AcDbEntity
100
AcDbLine
10
16.440970
20
15.251414
30
0.0
11
16.794907
21
15.251414
31
0.0
0
LINE
8
Layer_1
62
1
5
16a
100
AcDbEntity
100
AcDbLine
10
16.794907
20
15.251414
30
0.0
11
16.794907
21
14.897083
31
0.0
0
LINE
8
Layer_1
62
1
5
16b
100
AcDbEntity
100
AcDbLine
10
16.794907
20
14.897083
30
0.0
11
17.169317
21
14.897083
31
0.0
0
LINE
8
Layer_1
62
1
5
16c
100
AcDbEntity
100
AcDbLine
10
17.169317
20
14.897083
30
0.0
11
17.169317
21
15.251414
31
0.0
0
LINE
8
Layer_1
62
1
5
16d
100
AcDbEntity
100
AcDbLine
10
17.169317
20
15.251414
30
0.0
11
17.523253
21
15.251414
31
0.0
0
LINE
8
Layer_1
62
1
5
16e
100
AcDbEntity
100
AcDbLine
10
17.523253
20
15.251414
30
0.0
11
17.523253
21
14.897083
31
0.0
0
LINE
8
Layer_1
62
1
5
16f
100
AcDbEntity
100
AcDbLine
10
17.523253
20
14.897083
30
0.0
11
17.897662
21
14.897083
31
0.0
0
LINE
8
Layer_1
62
1
5
170
100
AcDbEntity
100
AcDbLine
10
17.897662
20
14.897083
30
0.0
11
17.897662
21
15.251414
31
0.0
0
LINE
8
Layer_1
62
1
5
171
100
AcDbEntity
100
AcDbLine
10
17.897662
20
15.251414
30
0.0
11
18.251600
21
15.251414
31
0.0
0
LINE
8
Layer_1
62
1
5
172
100
AcDbEntity
100
AcDbLine
10
18.251600
20
15.251414
30
0.0
11
18.251600
21
14.897083
31
0.0
0
LINE
8
Layer_1
62
1
5
173
100
AcDbEntity
100
AcDbLine
10
18.251600
20
14.897083
30
0.0
11
18.626009
21
14.897083
31
0.0
0
LINE
8
Layer_1
62
1
5
174
100
AcDbEntity
100
AcDbLine
10
18.626009
20
14.897083
30
0.0
11
18.626009
21
15.251414
31
0.0
0
LINE
8
Layer_1
62
1
5
175
100
AcDbEntity
100
AcDbLine
10
18.626009
20
15.251414
30
0.0
11
18.979947
21
15.251414
31
0.0
0
LINE
8
Layer_1
62
1
5
176
100
AcDbEntity
100
AcDbLine
10
18.979947
20
9.345903
30
0.0
11
18.626009
21
9.345903
31
0.0
0
LINE
8
Layer_1
62
1
5
177
100
AcDbEntity
100
AcDbLine
10
18.626009
20
9.345903
30
0.0
11
18.626009
21
9.700233
31
0.0
0
LINE
8
Layer_1
62
1
5
178
100
AcDbEntity
100
AcDbLine
10
18.626009
20
9.700233
30
0.0
11
18.251600
21
9.700233
31
0.0
0
LINE
8
Layer_1
62
1
5
179
100
AcDbEntity
100
AcDbLine
10
18.251600
20
9.700233
30
0.0
11
18.251600
21
9.345903
31
0.0
0
LINE
8
Layer_1
62
1
5
17a
100
AcDbEntity
100
AcDbLine
10
18.251600
20
9.345903
30
0.0
11
17.897662
21
9.345903
31
0.0
0
LINE
8
Layer_1
62
1
5
17b
100
AcDbEntity
100
AcDbLine
10
17.897662
20
9.345903
30
0.0
11
17.897662
21
9.700233
31
0.0
0
LINE
8
Layer_1
62
1
5
17c
100
AcDbEntity
100
AcDbLine
10
17.897662
20
9.700233
30
0.0
11
17.523253
21
9.700233
31
0.0
0
LINE
8
Layer_1
62
1
5
17d
100
AcDbEntity
100
AcDbLine
10
17.523253
20
9.700233
30
0.0
11
17.523253
21
9.345903
31
0.0
0
LINE
8
Layer_1
62
1
5
17e
100
AcDbEntity
100
AcDbLine
10
17.523253
20
9.345903
30
0.0
11
17.169317
21
9.345903
31
0.0
0
LINE
8
Layer_1
62
1
5
17f
100
AcDbEntity
100
AcDbLine
10
17.169317
20
9.345903
30
0.0
11
17.169317
21
9.700233
31
0.0
0
LINE
8
Layer_1
62
1
5
180
100
AcDbEntity
100
AcDbLine
10
17.169317
20
9.700233
30
0.0
11
16.794907
21
9.700233
31
0.0
0
LINE
8
Layer_1
62
1
5
181
100
AcDbEntity
100
AcDbLine
10
16.794907
20
9.700233
30
0.0
11
16.794907
21
9.345903
31
0.0
0
LINE
8
Layer_1
62
1
5
182
100
AcDbEntity
100
AcDbLine
10
16.794907
20
9.345903
30
0.0
11
16.440970
21
9.345903
31
0.0
0
LINE
8
Layer_1
62
1
5
183
100
AcDbEntity
100
AcDbLine
10
16.440970
20
9.345903
30
0.0
11
16.440970
21
9.700233
31
0.0
0
LINE
8
Layer_1
62
1
5
184
100
AcDbEntity
100
AcDbLine
10
16.440970
20
9.700233
30
0.0
11
16.066560
21
9.700233
31
0.0
0
LINE
8
Layer_1
62
1
5
185
100
AcDbEntity
100
AcDbLine
10
16.066560
20
9.700233
30
0.0
11
16.066560
21
9.345903
31
0.0
0
LINE
8
Layer_1
62
1
5
186
100
AcDbEntity
100
AcDbLine
10
16.066560
20
9.345903
30
0.0
11
15.712623
21
9.345903
31
0.0
0
LINE
8
Layer_1
62
1
5
187
100
AcDbEntity
100
AcDbLine
10
15.712623
20
9.345903
30
0.0
11
15.712623
21
9.700233
31
0.0
0
LINE
8
Layer_1
62
1
5
188
100
AcDbEntity
100
AcDbLine
10
15.712623
20
9.700233
30
0.0
11
15.338214
21
9.700233
31
0.0
0
LINE
8
Layer_1
62
1
5
189
100
AcDbEntity
100
AcDbLine
10
15.338214
20
9.700233
30
0.0
11
15.338214
21
9.345903
31
0.0
0
LINE
8
Layer_1
62
1
5
18a
100
AcDbEntity
100
AcDbLine
10
15.338214
20
9.345903
30
0.0
11
14.984277
21
9.345903
31
0.0
0
LINE
8
Layer_1
62
1
5
18b
100
AcDbEntity
100
AcDbLine
10
14.984277
20
9.345903
30
0.0
11
14.984277
21
9.700233
31
0.0
0
LINE
8
Layer_1
62
1
5
18c
100
AcDbEntity
100
AcDbLine
10
14.984277
20
9.700233
30
0.0
11
14.609868
21
9.700233
31
0.0
0
LINE
8
Layer_1
62
1
5
18d
100
AcDbEntity
100
AcDbLine
10
14.609868
20
9.700233
30
0.0
11
14.609868
21
9.345903
31
0.0
0
LINE
8
Layer_1
62
1
5
18e
100
AcDbEntity
100
AcDbLine
10
14.609868
20
9.345903
30
0.0
11
14.255930
21
9.345903
31
0.0
0
LINE
8
Layer_1
62
1
5
18f
100
AcDbEntity
100
AcDbLine
10
14.255930
20
9.345903
30
0.0
11
14.255930
21
9.700233
31
0.0
0
LINE
8
Layer_1
62
1
5
190
100
AcDbEntity
100
AcDbLine
10
14.255930
20
9.700233
30
0.0
11
13.881521
21
9.700233
31
0.0
0
LINE
8
Layer_1
62
1
5
191
100
AcDbEntity
100
AcDbLine
10
13.881521
20
9.700233
30
0.0
11
13.881521
21
9.345903
31
0.0
0
LINE
8
Layer_1
62
1
5
192
100
AcDbEntity
100
AcDbLine
10
13.881521
20
9.345903
30
0.0
11
13.527584
21
9.345903
31
0.0
0
LINE
8
Layer_1
62
1
5
193
100
AcDbEntity
100
AcDbLine
10
13.527584
20
9.345903
30
0.0
11
13.527584
21
9.700233
31
0.0
0
LINE
8
Layer_1
62
1
5
194
100
AcDbEntity
100
AcDbLine
10
13.527584
20
9.700233
30
0.0
11
13.153174
21
9.700233
31
0.0
0
LINE
8
Layer_1
62
1
5
195
100
AcDbEntity
100
AcDbLine
10
13.153174
20
9.700233
30
0.0
11
13.153174
21
9.345903
31
0.0
0
LINE
8
Layer_1
62
1
5
196
100
AcDbEntity
100
AcDbLine
10
13.153174
20
9.345903
30
0.0
11
12.799238
21
9.345903
31
0.0
0
LINE
8
Layer_1
62
1
5
197
100
AcDbEntity
100
AcDbLine
10
12.799238
20
9.345903
30
0.0
11
12.799238
21
9.700233
31
0.0
0
LINE
8
Layer_1
62
1
5
198
100
AcDbEntity
100
AcDbLine
10
12.799238
20
9.700233
30
0.0
11
12.424828
21
9.700233
31
0.0
0
LINE
8
Layer_1
62
1
5
199
100
AcDbEntity
100
AcDbLine
10
12.424828
20
9.700233
30
0.0
11
12.424828
21
9.345903
31
0.0
0
LINE
8
Layer_1
62
1
5
19a
100
AcDbEntity
100
AcDbLine
10
12.424828
20
9.345903
30
0.0
11
12.070891
21
9.345903
31
0.0
0
LINE
8
Layer_1
62
1
5
19b
100
AcDbEntity
100
AcDbLine
10
12.070891
20
9.345903
30
0.0
11
12.070891
21
9.700233
31
0.0
0
LINE
8
Layer_1
62
1
5
19c
100
AcDbEntity
100
AcDbLine
10
12.070891
20
9.700233
30
0.0
11
11.696481
21
9.700233
31
0.0
0
LINE
8
Layer_1
62
1
5
19d
100
AcDbEntity
100
AcDbLine
10
11.696481
20
9.700233
30
0.0
11
11.696481
21
9.345903
31
0.0
0
LINE
8
Layer_1
62
1
5
19e
100
AcDbEntity
100
AcDbLine
10
11.696481
20
9.345903
30
0.0
11
11.342544
21
9.345903
31
0.0
0
LINE
8
Layer_1
62
1
5
19f
100
AcDbEntity
100
AcDbLine
10
11.342544
20
9.345903
30
0.0
11
11.342544
21
9.700233
31
0.0
0
LINE
8
Layer_1
62
1
5
1a0
100
AcDbEntity
100
AcDbLine
10
11.342544
20
9.700233
30
0.0
11
10.968135
21
9.700233
31
0.0
0
LINE
8
Layer_1
62
1
5
1a1
100
AcDbEntity
100
AcDbLine
10
10.968135
20
9.700233
30
0.0
11
10.968135
21
9.345903
31
0.0
0
LINE
8
Layer_1
62
1
5
1a2
100
AcDbEntity
100
AcDbLine
10
10.968135
20
9.345903
30
0.0
11
10.614198
21
9.345903
31
0.0
0
LINE
8
Layer_1
62
1
5
1a3
100
AcDbEntity
100
AcDbLine
10
10.614198
20
9.345903
30
0.0
11
10.614198
21
9.700233
31
0.0
0
LINE
8
Layer_1
62
1
5
1a4
100
AcDbEntity
100
AcDbLine
10
10.614198
20
9.700233
30
0.0
11
10.239789
21
9.700238
31
0.0
0
LINE
8
Layer_1
62
1
5
1a5
100
AcDbEntity
100
AcDbLine
10
10.239789
20
9.700238
30
0.0
11
10.239789
21
9.345903
31
0.0
0
LINE
8
Layer_1
62
1
5
1a6
100
AcDbEntity
100
AcDbLine
10
10.239789
20
9.345903
30
0.0
11
9.885852
21
9.345903
31
0.0
0
LINE
8
Layer_1
62
1
5
1a7
100
AcDbEntity
100
AcDbLine
10
18.971238
20
15.256969
30
0.0
11
18.971238
21
9.351458
31
0.0
0
LINE
8
Layer_1
62
1
5
1a8
100
AcDbEntity
100
AcDbLine
10
9.894561
20
15.256969
30
0.0
11
9.894561
21
14.109686
31
0.0
0
LINE
8
Layer_1
62
1
5
1a9
100
AcDbEntity
100
AcDbLine
10
9.894561
20
14.109686
30
0.0
11
12.070891
21
13.525474
31
0.0
0
LINE
8
Layer_1
62
1
5
1aa
100
AcDbEntity
100
AcDbLine
10
12.070891
20
13.525474
30
0.0
11
12.070891
21
11.082954
31
0.0
0
LINE
8
Layer_1
62
1
5
1ab
100
AcDbEntity
100
AcDbLine
10
12.070891
20
11.082954
30
0.0
11
9.894561
21
10.487639
31
0.0
0
LINE
8
Layer_1
62
1
5
1ac
100
AcDbEntity
100
AcDbLine
10
9.894561
20
10.487639
30
0.0
11
9.894561
21
9.351459
31
0.0
0
LINE
8
Layer_1
62
1
5
1ad
100
AcDbEntity
100
AcDbLine
10
12.658571
20
13.525488
30
0.0
11
12.658571
21
12.428225
31
0.0
0
LINE
8
Layer_1
62
1
5
1ae
100
AcDbEntity
100
AcDbLine
10
12.658571
20
12.428225
30
0.0
11
12.554309
21
12.428225
31
0.0
0
LINE
8
Layer_1
62
1
5
1af
100
AcDbEntity
100
AcDbLine
10
12.554309
20
12.428225
30
0.0
11
12.554309
21
13.525474
31
0.0
0
LINE
8
Layer_1
62
1
5
1b0
100
AcDbEntity
100
AcDbLine
10
12.554309
20
13.525474
30
0.0
11
12.658571
21
13.525488
31
0.0
0
LINE
8
Layer_1
62
1
5
1b1
100
AcDbEntity
100
AcDbLine
10
12.658571
20
12.180200
30
0.0
11
12.658571
21
11.082937
31
0.0
0
LINE
8
Layer_1
62
1
5
1b2
100
AcDbEntity
100
AcDbLine
10
12.658571
20
11.082937
30
0.0
11
12.554309
21
11.082959
31
0.0
0
LINE
8
Layer_1
62
1
5
1b3
100
AcDbEntity
100
AcDbLine
10
12.554309
20
11.082959
30
0.0
11
12.554309
21
12.180205
31
0.0
0
LINE
8
Layer_1
62
1
5
1b4
100
AcDbEntity
100
AcDbLine
10
12.554309
20
12.180205
30
0.0
11
12.658571
21
12.180200
31
0.0
0
LINE
8
Layer_1
62
1
5
1b5
100
AcDbEntity
100
AcDbLine
10
13.503042
20
14.664042
30
0.0
11
13.503042
21
9.944381
31
0.0
0
LINE
8
Layer_1
62
1
5
1b6
100
AcDbEntity
100
AcDbLine
10
13.503042
20
9.944381
30
0.0
11
13.153459
21
9.944381
31
0.0
0
LINE
8
Layer_1
62
1
5
1b7
100
AcDbEntity
100
AcDbLine
10
13.153459
20
9.944381
30
0.0
11
13.153459
21
14.664042
31
0.0
0
LINE
8
Layer_1
62
1
5
1b8
100
AcDbEntity
100
AcDbLine
10
13.153459
20
14.664042
30
0.0
11
13.503042
21
14.664042
31
0.0
0
LINE
8
Layer_1
62
1
5
1b9
100
AcDbEntity
100
AcDbLine
10
14.956151
20
14.664042
30
0.0
11
14.956151
21
9.944381
31
0.0
0
LINE
8
Layer_1
62
1
5
1ba
100
AcDbEntity
100
AcDbLine
10
14.956151
20
9.944381
30
0.0
11
14.606568
21
9.944381
31
0.0
0
LINE
8
Layer_1
62
1
5
1bb
100
AcDbEntity
100
AcDbLine
10
14.606568
20
9.944381
30
0.0
11
14.606568
21
14.664042
31
0.0
0
LINE
8
Layer_1
62
1
5
1bc
100
AcDbEntity
100
AcDbLine
10
14.606568
20
14.664042
30
0.0
11
14.956151
21
14.664042
31
0.0
0
LINE
8
Layer_1
62
1
5
1bd
100
AcDbEntity
100
AcDbLine
10
16.409258
20
14.664042
30
0.0
11
16.409258
21
9.944381
31
0.0
0
LINE
8
Layer_1
62
1
5
1be
100
AcDbEntity
100
AcDbLine
10
16.409258
20
9.944381
30
0.0
11
16.059676
21
9.944381
31
0.0
0
LINE
8
Layer_1
62
1
5
1bf
100
AcDbEntity
100
AcDbLine
10
16.059676
20
9.944381
30
0.0
11
16.059676
21
14.664042
31
0.0
0
LINE
8
Layer_1
62
1
5
1c0
100
AcDbEntity
100
AcDbLine
10
16.059676
20
14.664042
30
0.0
11
16.409258
21
14.664042
31
0.0
0
LINE
8
Layer_1
62
1
5
1c1
100
AcDbEntity
100
AcDbLine
10
14.229597
20
14.664042
30
0.0
11
14.229597
21
9.944381
31
0.0
0
LINE
8
Layer_1
62
1
5
1c2
100
AcDbEntity
100
AcDbLine
10
14.229597
20
9.944381
30
0.0
11
13.880013
21
9.944381
31
0.0
0
LINE
8
Layer_1
62
1
5
1c3
100
AcDbEntity
100
AcDbLine
10
13.880013
20
9.944381
30
0.0
11
13.880013
21
14.664042
31
0.0
0
LINE
8
Layer_1
62
1
5
1c4
100
AcDbEntity
100
AcDbLine
10
13.880013
20
14.664042
30
0.0
11
14.229597
21
14.664042
31
0.0
0
LINE
8
Layer_1
62
1
5
1c5
100
AcDbEntity
100
AcDbLine
10
17.135812
20
14.664042
30
0.0
11
17.135812
21
9.944381
31
0.0
0
LINE
8
Layer_1
62
1
5
1c6
100
AcDbEntity
100
AcDbLine
10
17.135812
20
9.944381
30
0.0
11
16.786229
21
9.944381
31
0.0
0
LINE
8
Layer_1
62
1
5
1c7
100
AcDbEntity
100
AcDbLine
10
16.786229
20
9.944381
30
0.0
11
16.786229
21
14.664042
31
0.0
0
LINE
8
Layer_1
62
1
5
1c8
100
AcDbEntity
100
AcDbLine
10
16.786229
20
14.664042
30
0.0
11
17.135812
21
14.664042
31
0.0
0
LINE
8
Layer_1
62
1
5
1c9
100
AcDbEntity
100
AcDbLine
10
15.682704
20
14.664042
30
0.0
11
15.682704
21
9.944381
31
0.0
0
LINE
8
Layer_1
62
1
5
1ca
100
AcDbEntity
100
AcDbLine
10
15.682704
20
9.944381
30
0.0
11
15.333121
21
9.944381
31
0.0
0
LINE
8
Layer_1
62
1
5
1cb
100
AcDbEntity
100
AcDbLine
10
15.333121
20
9.944381
30
0.0
11
15.333121
21
14.664042
31
0.0
0
LINE
8
Layer_1
62
1
5
1cc
100
AcDbEntity
100
AcDbLine
10
15.333121
20
14.664042
30
0.0
11
15.682704
21
14.664042
31
0.0
0
LINE
8
Layer_1
62
1
5
1cd
100
AcDbEntity
100
AcDbLine
10
18.588920
20
14.664042
30
0.0
11
18.588920
21
9.944381
31
0.0
0
LINE
8
Layer_1
62
1
5
1ce
100
AcDbEntity
100
AcDbLine
10
18.588920
20
9.944381
30
0.0
11
18.239337
21
9.944381
31
0.0
0
LINE
8
Layer_1
62
1
5
1cf
100
AcDbEntity
100
AcDbLine
10
18.239337
20
9.944381
30
0.0
11
18.239337
21
14.664042
31
0.0
0
LINE
8
Layer_1
62
1
5
1d0
100
AcDbEntity
100
AcDbLine
10
18.239337
20
14.664042
30
0.0
11
18.588920
21
14.664042
31
0.0
0
LINE
8
Layer_1
62
1
5
1d1
100
AcDbEntity
100
AcDbLine
10
17.862366
20
14.664042
30
0.0
11
17.862366
21
9.944381
31
0.0
0
LINE
8
Layer_1
62
1
5
1d2
100
AcDbEntity
100
AcDbLine
10
17.862366
20
9.944381
30
0.0
11
17.512783
21
9.944381
31
0.0
0
LINE
8
Layer_1
62
1
5
1d3
100
AcDbEntity
100
AcDbLine
10
17.512783
20
9.944381
30
0.0
11
17.512783
21
14.664042
31
0.0
0
LINE
8
Layer_1
62
1
5
1d4
100
AcDbEntity
100
AcDbLine
10
17.512783
20
14.664042
30
0.0
11
17.862366
21
14.664042
31
0.0
0
LINE
8
Layer_1
62
1
5
1d5
100
AcDbEntity
100
AcDbLine
10
0.247234
20
15.251414
30
0.0
11
0.601171
21
15.251414
31
0.0
0
LINE
8
Layer_1
62
1
5
1d6
100
AcDbEntity
100
AcDbLine
10
0.601171
20
15.251414
30
0.0
11
0.601171
21
14.897083
31
0.0
0
LINE
8
Layer_1
62
1
5
1d7
100
AcDbEntity
100
AcDbLine
10
0.601171
20
14.897083
30
0.0
11
0.975580
21
14.897083
31
0.0
0
LINE
8
Layer_1
62
1
5
1d8
100
AcDbEntity
100
AcDbLine
10
0.975580
20
14.897083
30
0.0
11
0.975580
21
15.251414
31
0.0
0
LINE
8
Layer_1
62
1
5
1d9
100
AcDbEntity
100
AcDbLine
10
0.975580
20
15.251414
30
0.0
11
1.329517
21
15.251414
31
0.0
0
LINE
8
Layer_1
62
1
5
1da
100
AcDbEntity
100
AcDbLine
10
1.329517
20
15.251414
30
0.0
11
1.329517
21
14.897083
31
0.0
0
LINE
8
Layer_1
62
1
5
1db
100
AcDbEntity
100
AcDbLine
10
1.329517
20
14.897083
30
0.0
11
1.703926
21
14.897083
31
0.0
0
LINE
8
Layer_1
62
1
5
1dc
100
AcDbEntity
100
AcDbLine
10
1.703926
20
14.897083
30
0.0
11
1.703926
21
15.251414
31
0.0
0
LINE
8
Layer_1
62
1
5
1dd
100
AcDbEntity
100
AcDbLine
10
1.703926
20
15.251414
30
0.0
11
2.057863
21
15.251414
31
0.0
0
LINE
8
Layer_1
62
1
5
1de
100
AcDbEntity
100
AcDbLine
10
2.057863
20
15.251414
30
0.0
11
2.057863
21
14.897083
31
0.0
0
LINE
8
Layer_1
62
1
5
1df
100
AcDbEntity
100
AcDbLine
10
2.057863
20
14.897083
30
0.0
11
2.432273
21
14.897083
31
0.0
0
LINE
8
Layer_1
62
1
5
1e0
100
AcDbEntity
100
AcDbLine
10
2.432273
20
14.897083
30
0.0
11
2.432273
21
15.251414
31
0.0
0
LINE
8
Layer_1
62
1
5
1e1
100
AcDbEntity
100
AcDbLine
10
2.432273
20
15.251414
30
0.0
11
2.786210
21
15.251414
31
0.0
0
LINE
8
Layer_1
62
1
5
1e2
100
AcDbEntity
100
AcDbLine
10
2.786210
20
15.251414
30
0.0
11
2.786210
21
14.897083
31
0.0
0
LINE
8
Layer_1
62
1
5
1e3
100
AcDbEntity
100
AcDbLine
10
2.786210
20
14.897083
30
0.0
11
3.160619
21
14.897083
31
0.0
0
LINE
8
Layer_1
62
1
5
1e4
100
AcDbEntity
100
AcDbLine
10
3.160619
20
14.897083
30
0.0
11
3.160619
21
15.251414
31
0.0
0
LINE
8
Layer_1
62
1
5
1e5
100
AcDbEntity
100
AcDbLine
10
3.160619
20
15.251414
30
0.0
11
3.514556
21
15.251414
31
0.0
0
LINE
8
Layer_1
62
1
5
1e6
100
AcDbEntity
100
AcDbLine
10
3.514556
20
15.251414
30
0.0
11
3.514556
21
14.897083
31
0.0
0
LINE
8
Layer_1
62
1
5
1e7
100
AcDbEntity
100
AcDbLine
10
3.514556
20
14.897083
30
0.0
11
3.888966
21
14.897083
31
0.0
0
LINE
8
Layer_1
62
1
5
1e8
100
AcDbEntity
100
AcDbLine
10
3.888966
20
14.897083
30
0.0
11
3.888966
21
15.251414
31
0.0
0
LINE
8
Layer_1
62
1
5
1e9
100
AcDbEntity
100
AcDbLine
10
3.888966
20
15.251414
30
0.0
11
4.242903
21
15.251414
31
0.0
0
LINE
8
Layer_1
62
1
5
1ea
100
AcDbEntity
100
AcDbLine
10
4.242903
20
15.251414
30
0.0
11
4.242903
21
14.897083
31
0.0
0
LINE
8
Layer_1
62
1
5
1eb
100
AcDbEntity
100
AcDbLine
10
4.242903
20
14.897083
30
0.0
11
4.617312
21
14.897083
31
0.0
0
LINE
8
Layer_1
62
1
5
1ec
100
AcDbEntity
100
AcDbLine
10
4.617312
20
14.897083
30
0.0
11
4.617312
21
15.251414
31
0.0
0
LINE
8
Layer_1
62
1
5
1ed
100
AcDbEntity
100
AcDbLine
10
4.617312
20
15.251414
30
0.0
11
4.971249
21
15.251414
31
0.0
0
LINE
8
Layer_1
62
1
5
1ee
100
AcDbEntity
100
AcDbLine
10
4.971249
20
15.251414
30
0.0
11
4.971249
21
14.897083
31
0.0
0
LINE
8
Layer_1
62
1
5
1ef
100
AcDbEntity
100
AcDbLine
10
4.971249
20
14.897083
30
0.0
11
5.345659
21
14.897083
31
0.0
0
LINE
8
Layer_1
62
1
5
1f0
100
AcDbEntity
100
AcDbLine
10
5.345659
20
14.897083
30
0.0
11
5.345659
21
15.251414
31
0.0
0
LINE
8
Layer_1
62
1
5
1f1
100
AcDbEntity
100
AcDbLine
10
5.345659
20
15.251414
30
0.0
11
5.699596
21
15.251414
31
0.0
0
LINE
8
Layer_1
62
1
5
1f2
100
AcDbEntity
100
AcDbLine
10
5.699596
20
15.251414
30
0.0
11
5.699596
21
14.897083
31
0.0
0
LINE
8
Layer_1
62
1
5
1f3
100
AcDbEntity
100
AcDbLine
10
5.699596
20
14.897083
30
0.0
11
6.074005
21
14.897083
31
0.0
0
LINE
8
Layer_1
62
1
5
1f4
100
AcDbEntity
100
AcDbLine
10
6.074005
20
14.897083
30
0.0
11
6.074005
21
15.251414
31
0.0
0
LINE
8
Layer_1
62
1
5
1f5
100
AcDbEntity
100
AcDbLine
10
6.074005
20
15.251414
30
0.0
11
6.427942
21
15.251414
31
0.0
0
LINE
8
Layer_1
62
1
5
1f6
100
AcDbEntity
100
AcDbLine
10
6.427942
20
15.251414
30
0.0
11
6.427942
21
14.897083
31
0.0
0
LINE
8
Layer_1
62
1
5
1f7
100
AcDbEntity
100
AcDbLine
10
6.427942
20
14.897083
30
0.0
11
6.802352
21
14.897083
31
0.0
0
LINE
8
Layer_1
62
1
5
1f8
100
AcDbEntity
100
AcDbLine
10
6.802352
20
14.897083
30
0.0
11
6.802352
21
15.251414
31
0.0
0
LINE
8
Layer_1
62
1
5
1f9
100
AcDbEntity
100
AcDbLine
10
6.802352
20
15.251414
30
0.0
11
7.156289
21
15.251414
31
0.0
0
LINE
8
Layer_1
62
1
5
1fa
100
AcDbEntity
100
AcDbLine
10
7.156289
20
15.251414
30
0.0
11
7.156289
21
14.897083
31
0.0
0
LINE
8
Layer_1
62
1
5
1fb
100
AcDbEntity
100
AcDbLine
10
7.156289
20
14.897083
30
0.0
11
7.530698
21
14.897083
31
0.0
0
LINE
8
Layer_1
62
1
5
1fc
100
AcDbEntity
100
AcDbLine
10
7.530698
20
14.897083
30
0.0
11
7.530698
21
15.251414
31
0.0
0
LINE
8
Layer_1
62
1
5
1fd
100
AcDbEntity
100
AcDbLine
10
7.530698
20
15.251414
30
0.0
11
7.884635
21
15.251414
31
0.0
0
LINE
8
Layer_1
62
1
5
1fe
100
AcDbEntity
100
AcDbLine
10
7.884635
20
15.251414
30
0.0
11
7.884635
21
14.897083
31
0.0
0
LINE
8
Layer_1
62
1
5
1ff
100
AcDbEntity
100
AcDbLine
10
7.884635
20
14.897083
30
0.0
11
8.259045
21
14.897083
31
0.0
0
LINE
8
Layer_1
62
1
5
200
100
AcDbEntity
100
AcDbLine
10
8.259045
20
14.897083
30
0.0
11
8.259045
21
15.251414
31
0.0
0
LINE
8
Layer_1
62
1
5
201
100
AcDbEntity
100
AcDbLine
10
8.259045
20
15.251414
30
0.0
11
8.612982
21
15.251414
31
0.0
0
LINE
8
Layer_1
62
1
5
202
100
AcDbEntity
100
AcDbLine
10
8.612982
20
15.251414
30
0.0
11
8.612982
21
14.897083
31
0.0
0
LINE
8
Layer_1
62
1
5
203
100
AcDbEntity
100
AcDbLine
10
8.612982
20
14.897083
30
0.0
11
8.987391
21
14.897083
31
0.0
0
LINE
8
Layer_1
62
1
5
204
100
AcDbEntity
100
AcDbLine
10
8.987391
20
14.897083
30
0.0
11
8.987391
21
15.251414
31
0.0
0
LINE
8
Layer_1
62
1
5
205
100
AcDbEntity
100
AcDbLine
10
8.987391
20
15.251414
30
0.0
11
9.341328
21
15.251414
31
0.0
0
LINE
8
Layer_1
62
1
5
206
100
AcDbEntity
100
AcDbLine
10
9.341328
20
9.345903
30
0.0
11
8.987391
21
9.345903
31
0.0
0
LINE
8
Layer_1
62
1
5
207
100
AcDbEntity
100
AcDbLine
10
8.987391
20
9.345903
30
0.0
11
8.987391
21
9.700233
31
0.0
0
LINE
8
Layer_1
62
1
5
208
100
AcDbEntity
100
AcDbLine
10
8.987391
20
9.700233
30
0.0
11
8.612982
21
9.700233
31
0.0
0
LINE
8
Layer_1
62
1
5
209
100
AcDbEntity
100
AcDbLine
10
8.612982
20
9.700233
30
0.0
11
8.612982
21
9.345903
31
0.0
0
LINE
8
Layer_1
62
1
5
20a
100
AcDbEntity
100
AcDbLine
10
8.612982
20
9.345903
30
0.0
11
8.259045
21
9.345903
31
0.0
0
LINE
8
Layer_1
62
1
5
20b
100
AcDbEntity
100
AcDbLine
10
8.259045
20
9.345903
30
0.0
11
8.259045
21
9.700233
31
0.0
0
LINE
8
Layer_1
62
1
5
20c
100
AcDbEntity
100
AcDbLine
10
8.259045
20
9.700233
30
0.0
11
7.884635
21
9.700233
31
0.0
0
LINE
8
Layer_1
62
1
5
20d
100
AcDbEntity
100
AcDbLine
10
7.884635
20
9.700233
30
0.0
11
7.884635
21
9.345903
31
0.0
0
LINE
8
Layer_1
62
1
5
20e
100
AcDbEntity
100
AcDbLine
10
7.884635
20
9.345903
30
0.0
11
7.530698
21
9.345903
31
0.0
0
LINE
8
Layer_1
62
1
5
20f
100
AcDbEntity
100
AcDbLine
10
7.530698
20
9.345903
30
0.0
11
7.530698
21
9.700233
31
0.0
0
LINE
8
Layer_1
62
1
5
210
100
AcDbEntity
100
AcDbLine
10
7.530698
20
9.700233
30
0.0
11
7.156289
21
9.700233
31
0.0
0
LINE
8
Layer_1
62
1
5
211
100
AcDbEntity
100
AcDbLine
10
7.156289
20
9.700233
30
0.0
11
7.156289
21
9.345903
31
0.0
0
LINE
8
Layer_1
62
1
5
212
100
AcDbEntity
100
AcDbLine
10
7.156289
20
9.345903
30
0.0
11
6.802352
21
9.345903
31
0.0
0
LINE
8
Layer_1
62
1
5
213
100
AcDbEntity
100
AcDbLine
10
6.802352
20
9.345903
30
0.0
11
6.802352
21
9.700233
31
0.0
0
LINE
8
Layer_1
62
1
5
214
100
AcDbEntity
100
AcDbLine
10
6.802352
20
9.700233
30
0.0
11
6.427942
21
9.700233
31
0.0
0
LINE
8
Layer_1
62
1
5
215
100
AcDbEntity
100
AcDbLine
10
6.427942
20
9.700233
30
0.0
11
6.427942
21
9.345903
31
0.0
0
LINE
8
Layer_1
62
1
5
216
100
AcDbEntity
100
AcDbLine
10
6.427942
20
9.345903
30
0.0
11
6.074005
21
9.345903
31
0.0
0
LINE
8
Layer_1
62
1
5
217
100
AcDbEntity
100
AcDbLine
10
6.074005
20
9.345903
30
0.0
11
6.074005
21
9.700233
31
0.0
0
LINE
8
Layer_1
62
1
5
218
100
AcDbEntity
100
AcDbLine
10
6.074005
20
9.700233
30
0.0
11
5.699596
21
9.700233
31
0.0
0
LINE
8
Layer_1
62
1
5
219
100
AcDbEntity
100
AcDbLine
10
5.699596
20
9.700233
30
0.0
11
5.699596
21
9.345903
31
0.0
0
LINE
8
Layer_1
62
1
5
21a
100
AcDbEntity
100
AcDbLine
10
5.699596
20
9.345903
30
0.0
11
5.345659
21
9.345903
31
0.0
0
LINE
8
Layer_1
62
1
5
21b
100
AcDbEntity
100
AcDbLine
10
5.345659
20
9.345903
30
0.0
11
5.345659
21
9.700233
31
0.0
0
LINE
8
Layer_1
62
1
5
21c
100
AcDbEntity
100
AcDbLine
10
5.345659
20
9.700233
30
0.0
11
4.971249
21
9.700233
31
0.0
0
LINE
8
Layer_1
62
1
5
21d
100
AcDbEntity
100
AcDbLine
10
4.971249
20
9.700233
30
0.0
11
4.971249
21
9.345903
31
0.0
0
LINE
8
Layer_1
62
1
5
21e
100
AcDbEntity
100
AcDbLine
10
4.971249
20
9.345903
30
0.0
11
4.617312
21
9.345903
31
0.0
0
LINE
8
Layer_1
62
1
5
21f
100
AcDbEntity
100
AcDbLine
10
4.617312
20
9.345903
30
0.0
11
4.617312
21
9.700233
31
0.0
0
LINE
8
Layer_1
62
1
5
220
100
AcDbEntity
100
AcDbLine
10
4.617312
20
9.700233
30
0.0
11
4.242903
21
9.700233
31
0.0
0
LINE
8
Layer_1
62
1
5
221
100
AcDbEntity
100
AcDbLine
10
4.242903
20
9.700233
30
0.0
11
4.242903
21
9.345903
31
0.0
0
LINE
8
Layer_1
62
1
5
222
100
AcDbEntity
100
AcDbLine
10
4.242903
20
9.345903
30
0.0
11
3.888966
21
9.345903
31
0.0
0
LINE
8
Layer_1
62
1
5
223
100
AcDbEntity
100
AcDbLine
10
3.888966
20
9.345903
30
0.0
11
3.888966
21
9.700233
31
0.0
0
LINE
8
Layer_1
62
1
5
224
100
AcDbEntity
100
AcDbLine
10
3.888966
20
9.700233
30
0.0
11
3.514556
21
9.700233
31
0.0
0
LINE
8
Layer_1
62
1
5
225
100
AcDbEntity
100
AcDbLine
10
3.514556
20
9.700233
30
0.0
11
3.514556
21
9.345903
31
0.0
0
LINE
8
Layer_1
62
1
5
226
100
AcDbEntity
100
AcDbLine
10
3.514556
20
9.345903
30
0.0
11
3.160619
21
9.345903
31
0.0
0
LINE
8
Layer_1
62
1
5
227
100
AcDbEntity
100
AcDbLine
10
3.160619
20
9.345903
30
0.0
11
3.160619
21
9.700233
31
0.0
0
LINE
8
Layer_1
62
1
5
228
100
AcDbEntity
100
AcDbLine
10
3.160619
20
9.700233
30
0.0
11
2.786210
21
9.700233
31
0.0
0
LINE
8
Layer_1
62
1
5
229
100
AcDbEntity
100
AcDbLine
10
2.786210
20
9.700233
30
0.0
11
2.786210
21
9.345903
31
0.0
0
LINE
8
Layer_1
62
1
5
22a
100
AcDbEntity
100
AcDbLine
10
2.786210
20
9.345903
30
0.0
11
2.432273
21
9.345903
31
0.0
0
LINE
8
Layer_1
62
1
5
22b
100
AcDbEntity
100
AcDbLine
10
2.432273
20
9.345903
30
0.0
11
2.432273
21
9.700233
31
0.0
0
LINE
8
Layer_1
62
1
5
22c
100
AcDbEntity
100
AcDbLine
10
2.432273
20
9.700233
30
0.0
11
2.057863
21
9.700233
31
0.0
0
LINE
8
Layer_1
62
1
5
22d
100
AcDbEntity
100
AcDbLine
10
2.057863
20
9.700233
30
0.0
11
2.057863
21
9.345903
31
0.0
0
LINE
8
Layer_1
62
1
5
22e
100
AcDbEntity
100
AcDbLine
10
2.057863
20
9.345903
30
0.0
11
1.703926
21
9.345903
31
0.0
0
LINE
8
Layer_1
62
1
5
22f
100
AcDbEntity
100
AcDbLine
10
1.703926
20
9.345903
30
0.0
11
1.703926
21
9.700233
31
0.0
0
LINE
8
Layer_1
62
1
5
230
100
AcDbEntity
100
AcDbLine
10
1.703926
20
9.700233
30
0.0
11
1.329517
21
9.700233
31
0.0
0
LINE
8
Layer_1
62
1
5
231
100
AcDbEntity
100
AcDbLine
10
1.329517
20
9.700233
30
0.0
11
1.329517
21
9.345903
31
0.0
0
LINE
8
Layer_1
62
1
5
232
100
AcDbEntity
100
AcDbLine
10
1.329517
20
9.345903
30
0.0
11
0.975580
21
9.345903
31
0.0
0
LINE
8
Layer_1
62
1
5
233
100
AcDbEntity
100
AcDbLine
10
0.975580
20
9.345903
30
0.0
11
0.975580
21
9.700233
31
0.0
0
LINE
8
Layer_1
62
1
5
234
100
AcDbEntity
100
AcDbLine
10
0.975580
20
9.700233
30
0.0
11
0.601171
21
9.700238
31
0.0
0
LINE
8
Layer_1
62
1
5
235
100
AcDbEntity
100
AcDbLine
10
0.601171
20
9.700238
30
0.0
11
0.601171
21
9.345903
31
0.0
0
LINE
8
Layer_1
62
1
5
236
100
AcDbEntity
100
AcDbLine
10
0.601171
20
9.345903
30
0.0
11
0.247234
21
9.345903
31
0.0
0
LINE
8
Layer_1
62
1
5
237
100
AcDbEntity
100
AcDbLine
10
9.332619
20
15.256969
30
0.0
11
9.332619
21
9.351458
31
0.0
0
LINE
8
Layer_1
62
1
5
238
100
AcDbEntity
100
AcDbLine
10
0.255942
20
15.256969
30
0.0
11
0.255942
21
14.109686
31
0.0
0
LINE
8
Layer_1
62
1
5
239
100
AcDbEntity
100
AcDbLine
10
0.255942
20
14.109686
30
0.0
11
2.432273
21
13.525474
31
0.0
0
LINE
8
Layer_1
62
1
5
23a
100
AcDbEntity
100
AcDbLine
10
2.432273
20
13.525474
30
0.0
11
2.432273
21
11.082954
31
0.0
0
LINE
8
Layer_1
62
1
5
23b
100
AcDbEntity
100
AcDbLine
10
2.432273
20
11.082954
30
0.0
11
0.255942
21
10.487639
31
0.0
0
LINE
8
Layer_1
62
1
5
23c
100
AcDbEntity
100
AcDbLine
10
0.255942
20
10.487639
30
0.0
11
0.255942
21
9.351459
31
0.0
0
LINE
8
Layer_1
62
1
5
23d
100
AcDbEntity
100
AcDbLine
10
3.019953
20
13.525488
30
0.0
11
3.019953
21
12.428225
31
0.0
0
LINE
8
Layer_1
62
1
5
23e
100
AcDbEntity
100
AcDbLine
10
3.019953
20
12.428225
30
0.0
11
2.915690
21
12.428225
31
0.0
0
LINE
8
Layer_1
62
1
5
23f
100
AcDbEntity
100
AcDbLine
10
2.915690
20
12.428225
30
0.0
11
2.915690
21
13.525474
31
0.0
0
LINE
8
Layer_1
62
1
5
240
100
AcDbEntity
100
AcDbLine
10
2.915690
20
13.525474
30
0.0
11
3.019953
21
13.525488
31
0.0
0
LINE
8
Layer_1
62
1
5
241
100
AcDbEntity
100
AcDbLine
10
3.019953
20
12.180200
30
0.0
11
3.019953
21
11.082937
31
0.0
0
LINE
8
Layer_1
62
1
5
242
100
AcDbEntity
100
AcDbLine
10
3.019953
20
11.082937
30
0.0
11
2.915690
21
11.082959
31
0.0
0
LINE
8
Layer_1
62
1
5
243
100
AcDbEntity
100
AcDbLine
10
2.915690
20
11.082959
30
0.0
11
2.915690
21
12.180205
31
0.0
0
LINE
8
Layer_1
62
1
5
244
100
AcDbEntity
100
AcDbLine
10
2.915690
20
12.180205
30
0.0
11
3.019953
21
12.180200
31
0.0
0
LINE
8
Layer_1
62
1
5
245
100
AcDbEntity
100
AcDbLine
10
3.864424
20
14.664042
30
0.0
11
3.864424
21
9.944381
31
0.0
0
LINE
8
Layer_1
62
1
5
246
100
AcDbEntity
100
AcDbLine
10
3.864424
20
9.944381
30
0.0
11
3.514841
21
9.944381
31
0.0
0
LINE
8
Layer_1
62
1
5
247
100
AcDbEntity
100
AcDbLine
10
3.514841
20
9.944381
30
0.0
11
3.514841
21
14.664042
31
0.0
0
LINE
8
Layer_1
62
1
5
248
100
AcDbEntity
100
AcDbLine
10
3.514841
20
14.664042
30
0.0
11
3.864424
21
14.664042
31
0.0
0
LINE
8
Layer_1
62
1
5
249
100
AcDbEntity
100
AcDbLine
10
5.317532
20
14.664042
30
0.0
11
5.317532
21
9.944381
31
0.0
0
LINE
8
Layer_1
62
1
5
24a
100
AcDbEntity
100
AcDbLine
10
5.317532
20
9.944381
30
0.0
11
4.967949
21
9.944381
31
0.0
0
LINE
8
Layer_1
62
1
5
24b
100
AcDbEntity
100
AcDbLine
10
4.967949
20
9.944381
30
0.0
11
4.967949
21
14.664042
31
0.0
0
LINE
8
Layer_1
62
1
5
24c
100
AcDbEntity
100
AcDbLine
10
4.967949
20
14.664042
30
0.0
11
5.317532
21
14.664042
31
0.0
0
LINE
8
Layer_1
62
1
5
24d
100
AcDbEntity
100
AcDbLine
10
6.770640
20
14.664042
30
0.0
11
6.770640
21
9.944381
31
0.0
0
LINE
8
Layer_1
62
1
5
24e
100
AcDbEntity
100
AcDbLine
10
6.770640
20
9.944381
30
0.0
11
6.421057
21
9.944381
31
0.0
0
LINE
8
Layer_1
62
1
5
24f
100
AcDbEntity
100
AcDbLine
10
6.421057
20
9.944381
30
0.0
11
6.421057
21
14.664042
31
0.0
0
LINE
8
Layer_1
62
1
5
250
100
AcDbEntity
100
AcDbLine
10
6.421057
20
14.664042
30
0.0
11
6.770640
21
14.664042
31
0.0
0
LINE
8
Layer_1
62
1
5
251
100
AcDbEntity
100
AcDbLine
10
4.590978
20
14.664042
30
0.0
11
4.590978
21
9.944381
31
0.0
0
LINE
8
Layer_1
62
1
5
252
100
AcDbEntity
100
AcDbLine
10
4.590978
20
9.944381
30
0.0
11
4.241395
21
9.944381
31
0.0
0
LINE
8
Layer_1
62
1
5
253
100
AcDbEntity
100
AcDbLine
10
4.241395
20
9.944381
30
0.0
11
4.241395
21
14.664042
31
0.0
0
LINE
8
Layer_1
62
1
5
254
100
AcDbEntity
100
AcDbLine
10
4.241395
20
14.664042
30
0.0
11
4.590978
21
14.664042
31
0.0
0
LINE
8
Layer_1
62
1
5
255
100
AcDbEntity
100
AcDbLine
10
7.497194
20
14.664042
30
0.0
11
7.497194
21
9.944381
31
0.0
0
LINE
8
Layer_1
62
1
5
256
100
AcDbEntity
100
AcDbLine
10
7.497194
20
9.944381
30
0.0
11
7.147611
21
9.944381
31
0.0
0
LINE
8
Layer_1
62
1
5
257
100
AcDbEntity
100
AcDbLine
10
7.147611
20
9.944381
30
0.0
11
7.147611
21
14.664042
31
0.0
0
LINE
8
Layer_1
62
1
5
258
100
AcDbEntity
100
AcDbLine
10
7.147611
20
14.664042
30
0.0
11
7.497194
21
14.664042
31
0.0
0
LINE
8
Layer_1
62
1
5
259
100
AcDbEntity
100
AcDbLine
10
6.044086
20
14.664042
30
0.0
11
6.044086
21
9.944381
31
0.0
0
LINE
8
Layer_1
62
1
5
25a
100
AcDbEntity
100
AcDbLine
10
6.044086
20
9.944381
30
0.0
11
5.694503
21
9.944381
31
0.0
0
LINE
8
Layer_1
62
1
5
25b
100
AcDbEntity
100
AcDbLine
10
5.694503
20
9.944381
30
0.0
11
5.694503
21
14.664042
31
0.0
0
LINE
8
Layer_1
62
1
5
25c
100
AcDbEntity
100
AcDbLine
10
5.694503
20
14.664042
30
0.0
11
6.044086
21
14.664042
31
0.0
0
LINE
8
Layer_1
62
1
5
25d
100
AcDbEntity
100
AcDbLine
10
8.950302
20
14.664042
30
0.0
11
8.950302
21
9.944381
31
0.0
0
LINE
8
Layer_1
62
1
5
25e
100
AcDbEntity
100
AcDbLine
10
8.950302
20
9.944381
30
0.0
11
8.600719
21
9.944381
31
0.0
0
LINE
8
Layer_1
62
1
5
25f
100
AcDbEntity
100
AcDbLine
10
8.600719
20
9.944381
30
0.0
11
8.600719
21
14.664042
31
0.0
0
LINE
8
Layer_1
62
1
5
260
100
AcDbEntity
100
AcDbLine
10
8.600719
20
14.664042
30
0.0
11
8.950302
21
14.664042
31
0.0
0
LINE
8
Layer_1
62
1
5
261
100
AcDbEntity
100
AcDbLine
10
8.223748
20
14.664042
30
0.0
11
8.223748
21
9.944381
31
0.0
0
LINE
8
Layer_1
62
1
5
262
100
AcDbEntity
100
AcDbLine
10
8.223748
20
9.944381
30
0.0
11
7.874165
21
9.944381
31
0.0
0
LINE
8
Layer_1
62
1
5
263
100
AcDbEntity
100
AcDbLine
10
7.874165
20
9.944381
30
0.0
11
7.874165
21
14.664042
31
0.0
0
LINE
8
Layer_1
62
1
5
264
100
AcDbEntity
100
AcDbLine
10
7.874165
20
14.664042
30
0.0
11
8.223748
21
14.664042
31
0.0
0
LINE
8
Layer_1
62
1
5
265
100
AcDbEntity
100
AcDbLine
10
18.980340
20
3.055673
30
0.0
11
18.625616
21
3.055673
31
0.0
0
LINE
8
Layer_1
62
1
5
266
100
AcDbEntity
100
AcDbLine
10
18.625616
20
3.055673
30
0.0
11
18.625616
21
2.701343
31
0.0
0
LINE
8
Layer_1
62
1
5
267
100
AcDbEntity
100
AcDbLine
10
18.625616
20
2.701343
30
0.0
11
18.251993
21
2.701343
31
0.0
0
LINE
8
Layer_1
62
1
5
268
100
AcDbEntity
100
AcDbLine
10
18.251993
20
2.701343
30
0.0
11
18.251993
21
3.055673
31
0.0
0
LINE
8
Layer_1
62
1
5
269
100
AcDbEntity
100
AcDbLine
10
18.251993
20
3.055673
30
0.0
11
17.897269
21
3.055673
31
0.0
0
LINE
8
Layer_1
62
1
5
26a
100
AcDbEntity
100
AcDbLine
10
17.897269
20
3.055673
30
0.0
11
17.897269
21
2.701343
31
0.0
0
LINE
8
Layer_1
62
1
5
26b
100
AcDbEntity
100
AcDbLine
10
17.897269
20
2.701343
30
0.0
11
17.523647
21
2.701343
31
0.0
0
LINE
8
Layer_1
62
1
5
26c
100
AcDbEntity
100
AcDbLine
10
17.523647
20
2.701343
30
0.0
11
17.523647
21
3.055673
31
0.0
0
LINE
8
Layer_1
62
1
5
26d
100
AcDbEntity
100
AcDbLine
10
17.523647
20
3.055673
30
0.0
11
17.168922
21
3.055673
31
0.0
0
LINE
8
Layer_1
62
1
5
26e
100
AcDbEntity
100
AcDbLine
10
17.168922
20
3.055673
30
0.0
11
17.168922
21
2.701343
31
0.0
0
LINE
8
Layer_1
62
1
5
26f
100
AcDbEntity
100
AcDbLine
10
17.168922
20
2.701343
30
0.0
11
16.795300
21
2.701343
31
0.0
0
LINE
8
Layer_1
62
1
5
270
100
AcDbEntity
100
AcDbLine
10
16.795300
20
2.701343
30
0.0
11
16.795300
21
3.055673
31
0.0
0
LINE
8
Layer_1
62
1
5
271
100
AcDbEntity
100
AcDbLine
10
16.795300
20
3.055673
30
0.0
11
16.440576
21
3.055673
31
0.0
0
LINE
8
Layer_1
62
1
5
272
100
AcDbEntity
100
AcDbLine
10
16.440576
20
3.055673
30
0.0
11
16.440576
21
2.701343
31
0.0
0
LINE
8
Layer_1
62
1
5
273
100
AcDbEntity
100
AcDbLine
10
16.440576
20
2.701343
30
0.0
11
16.066954
21
2.701343
31
0.0
0
LINE
8
Layer_1
62
1
5
274
100
AcDbEntity
100
AcDbLine
10
16.066954
20
2.701343
30
0.0
11
16.066954
21
3.055673
31
0.0
0
LINE
8
Layer_1
62
1
5
275
100
AcDbEntity
100
AcDbLine
10
16.066954
20
3.055673
30
0.0
11
15.712230
21
3.055673
31
0.0
0
LINE
8
Layer_1
62
1
5
276
100
AcDbEntity
100
AcDbLine
10
15.712230
20
3.055673
30
0.0
11
15.712230
21
2.701343
31
0.0
0
LINE
8
Layer_1
62
1
5
277
100
AcDbEntity
100
AcDbLine
10
15.712230
20
2.701343
30
0.0
11
15.338608
21
2.701343
31
0.0
0
LINE
8
Layer_1
62
1
5
278
100
AcDbEntity
100
AcDbLine
10
15.338608
20
2.701343
30
0.0
11
15.338608
21
3.055673
31
0.0
0
LINE
8
Layer_1
62
1
5
279
100
AcDbEntity
100
AcDbLine
10
15.338608
20
3.055673
30
0.0
11
14.983883
21
3.055673
31
0.0
0
LINE
8
Layer_1
62
1
5
27a
100
AcDbEntity
100
AcDbLine
10
14.983883
20
3.055673
30
0.0
11
14.983883
21
2.701343
31
0.0
0
LINE
8
Layer_1
62
1
5
27b
100
AcDbEntity
100
AcDbLine
10
14.983883
20
2.701343
30
0.0
11
14.610261
21
2.701343
31
0.0
0
LINE
8
Layer_1
62
1
5
27c
100
AcDbEntity
100
AcDbLine
10
14.610261
20
2.701343
30
0.0
11
14.610261
21
3.055673
31
0.0
0
LINE
8
Layer_1
62
1
5
27d
100
AcDbEntity
100
AcDbLine
10
14.610261
20
3.055673
30
0.0
11
14.255537
21
3.055673
31
0.0
0
LINE
8
Layer_1
62
1
5
27e
100
AcDbEntity
100
AcDbLine
10
14.255537
20
3.055673
30
0.0
11
14.255537
21
2.701343
31
0.0
0
LINE
8
Layer_1
62
1
5
27f
100
AcDbEntity
100
AcDbLine
10
14.255537
20
2.701343
30
0.0
11
13.881914
21
2.701343
31
0.0
0
LINE
8
Layer_1
62
1
5
280
100
AcDbEntity
100
AcDbLine
10
13.881914
20
2.701343
30
0.0
11
13.881914
21
3.055673
31
0.0
0
LINE
8
Layer_1
62
1
5
281
100
AcDbEntity
100
AcDbLine
10
13.881914
20
3.055673
30
0.0
11
13.527190
21
3.055673
31
0.0
0
LINE
8
Layer_1
62
1
5
282
100
AcDbEntity
100
AcDbLine
10
13.527190
20
3.055673
30
0.0
11
13.527190
21
2.701343
31
0.0
0
LINE
8
Layer_1
62
1
5
283
100
AcDbEntity
100
AcDbLine
10
13.527190
20
2.701343
30
0.0
11
13.153568
21
2.701343
31
0.0
0
LINE
8
Layer_1
62
1
5
284
100
AcDbEntity
100
AcDbLine
10
13.153568
20
2.701343
30
0.0
11
13.153568
21
3.055673
31
0.0
0
LINE
8
Layer_1
62
1
5
285
100
AcDbEntity
100
AcDbLine
10
13.153568
20
3.055673
30
0.0
11
12.798843
21
3.055673
31
0.0
0
LINE
8
Layer_1
62
1
5
286
100
AcDbEntity
100
AcDbLine
10
12.798843
20
3.055673
30
0.0
11
12.798843
21
2.701343
31
0.0
0
LINE
8
Layer_1
62
1
5
287
100
AcDbEntity
100
AcDbLine
10
12.798843
20
2.701343
30
0.0
11
12.425221
21
2.701343
31
0.0
0
LINE
8
Layer_1
62
1
5
288
100
AcDbEntity
100
AcDbLine
10
12.425221
20
2.701343
30
0.0
11
12.425221
21
3.055673
31
0.0
0
LINE
8
Layer_1
62
1
5
289
100
AcDbEntity
100
AcDbLine
10
12.425221
20
3.055673
30
0.0
11
12.070498
21
3.055673
31
0.0
0
LINE
8
Layer_1
62
1
5
28a
100
AcDbEntity
100
AcDbLine
10
12.070498
20
3.055673
30
0.0
11
12.070498
21
2.701343
31
0.0
0
LINE
8
Layer_1
62
1
5
28b
100
AcDbEntity
100
AcDbLine
10
12.070498
20
2.701343
30
0.0
11
11.696876
21
2.701343
31
0.0
0
LINE
8
Layer_1
62
1
5
28c
100
AcDbEntity
100
AcDbLine
10
11.696876
20
2.701343
30
0.0
11
11.696876
21
3.055673
31
0.0
0
LINE
8
Layer_1
62
1
5
28d
100
AcDbEntity
100
AcDbLine
10
11.696876
20
3.055673
30
0.0
11
11.342151
21
3.055673
31
0.0
0
LINE
8
Layer_1
62
1
5
28e
100
AcDbEntity
100
AcDbLine
10
11.342151
20
3.055673
30
0.0
11
11.342151
21
2.701343
31
0.0
0
LINE
8
Layer_1
62
1
5
28f
100
AcDbEntity
100
AcDbLine
10
11.342151
20
2.701343
30
0.0
11
10.968529
21
2.701343
31
0.0
0
LINE
8
Layer_1
62
1
5
290
100
AcDbEntity
100
AcDbLine
10
10.968529
20
2.701343
30
0.0
11
10.968529
21
3.055673
31
0.0
0
LINE
8
Layer_1
62
1
5
291
100
AcDbEntity
100
AcDbLine
10
10.968529
20
3.055673
30
0.0
11
10.613804
21
3.055673
31
0.0
0
LINE
8
Layer_1
62
1
5
292
100
AcDbEntity
100
AcDbLine
10
10.613804
20
3.055673
30
0.0
11
10.613804
21
2.701343
31
0.0
0
LINE
8
Layer_1
62
1
5
293
100
AcDbEntity
100
AcDbLine
10
10.613804
20
2.701343
30
0.0
11
10.240182
21
2.701343
31
0.0
0
LINE
8
Layer_1
62
1
5
294
100
AcDbEntity
100
AcDbLine
10
10.240182
20
2.701343
30
0.0
11
10.240182
21
3.055673
31
0.0
0
LINE
8
Layer_1
62
1
5
295
100
AcDbEntity
100
AcDbLine
10
10.240182
20
3.055673
30
0.0
11
9.885458
21
3.055673
31
0.0
0
LINE
8
Layer_1
62
1
5
296
100
AcDbEntity
100
AcDbLine
10
9.885458
20
8.252523
30
0.0
11
10.240182
21
8.252523
31
0.0
0
LINE
8
Layer_1
62
1
5
297
100
AcDbEntity
100
AcDbLine
10
10.240182
20
8.252523
30
0.0
11
10.240182
21
8.606854
31
0.0
0
LINE
8
Layer_1
62
1
5
298
100
AcDbEntity
100
AcDbLine
10
10.240182
20
8.606854
30
0.0
11
10.613804
21
8.606854
31
0.0
0
LINE
8
Layer_1
62
1
5
299
100
AcDbEntity
100
AcDbLine
10
10.613804
20
8.606854
30
0.0
11
10.613804
21
8.252523
31
0.0
0
LINE
8
Layer_1
62
1
5
29a
100
AcDbEntity
100
AcDbLine
10
10.613804
20
8.252523
30
0.0
11
10.968529
21
8.252523
31
0.0
0
LINE
8
Layer_1
62
1
5
29b
100
AcDbEntity
100
AcDbLine
10
10.968529
20
8.252523
30
0.0
11
10.968529
21
8.606854
31
0.0
0
LINE
8
Layer_1
62
1
5
29c
100
AcDbEntity
100
AcDbLine
10
10.968529
20
8.606854
30
0.0
11
11.342151
21
8.606854
31
0.0
0
LINE
8
Layer_1
62
1
5
29d
100
AcDbEntity
100
AcDbLine
10
11.342151
20
8.606854
30
0.0
11
11.342151
21
8.252523
31
0.0
0
LINE
8
Layer_1
62
1
5
29e
100
AcDbEntity
100
AcDbLine
10
11.342151
20
8.252523
30
0.0
11
11.696876
21
8.252523
31
0.0
0
LINE
8
Layer_1
62
1
5
29f
100
AcDbEntity
100
AcDbLine
10
11.696876
20
8.252523
30
0.0
11
11.696876
21
8.606854
31
0.0
0
LINE
8
Layer_1
62
1
5
2a0
100
AcDbEntity
100
AcDbLine
10
11.696876
20
8.606854
30
0.0
11
12.070498
21
8.606854
31
0.0
0
LINE
8
Layer_1
62
1
5
2a1
100
AcDbEntity
100
AcDbLine
10
12.070498
20
8.606854
30
0.0
11
12.070498
21
8.252523
31
0.0
0
LINE
8
Layer_1
62
1
5
2a2
100
AcDbEntity
100
AcDbLine
10
12.070498
20
8.252523
30
0.0
11
12.425222
21
8.252523
31
0.0
0
LINE
8
Layer_1
62
1
5
2a3
100
AcDbEntity
100
AcDbLine
10
12.425222
20
8.252523
30
0.0
11
12.425222
21
8.606854
31
0.0
0
LINE
8
Layer_1
62
1
5
2a4
100
AcDbEntity
100
AcDbLine
10
12.425222
20
8.606854
30
0.0
11
12.798843
21
8.606854
31
0.0
0
LINE
8
Layer_1
62
1
5
2a5
100
AcDbEntity
100
AcDbLine
10
12.798843
20
8.606854
30
0.0
11
12.798843
21
8.252523
31
0.0
0
LINE
8
Layer_1
62
1
5
2a6
100
AcDbEntity
100
AcDbLine
10
12.798843
20
8.252523
30
0.0
11
13.153568
21
8.252523
31
0.0
0
LINE
8
Layer_1
62
1
5
2a7
100
AcDbEntity
100
AcDbLine
10
13.153568
20
8.252523
30
0.0
11
13.153568
21
8.606854
31
0.0
0
LINE
8
Layer_1
62
1
5
2a8
100
AcDbEntity
100
AcDbLine
10
13.153568
20
8.606854
30
0.0
11
13.527190
21
8.606854
31
0.0
0
LINE
8
Layer_1
62
1
5
2a9
100
AcDbEntity
100
AcDbLine
10
13.527190
20
8.606854
30
0.0
11
13.527190
21
8.252523
31
0.0
0
LINE
8
Layer_1
62
1
5
2aa
100
AcDbEntity
100
AcDbLine
10
13.527190
20
8.252523
30
0.0
11
13.881914
21
8.252523
31
0.0
0
LINE
8
Layer_1
62
1
5
2ab
100
AcDbEntity
100
AcDbLine
10
13.881914
20
8.252523
30
0.0
11
13.881914
21
8.606854
31
0.0
0
LINE
8
Layer_1
62
1
5
2ac
100
AcDbEntity
100
AcDbLine
10
13.881914
20
8.606854
30
0.0
11
14.255537
21
8.606854
31
0.0
0
LINE
8
Layer_1
62
1
5
2ad
100
AcDbEntity
100
AcDbLine
10
14.255537
20
8.606854
30
0.0
11
14.255537
21
8.252523
31
0.0
0
LINE
8
Layer_1
62
1
5
2ae
100
AcDbEntity
100
AcDbLine
10
14.255537
20
8.252523
30
0.0
11
14.610261
21
8.252523
31
0.0
0
LINE
8
Layer_1
62
1
5
2af
100
AcDbEntity
100
AcDbLine
10
14.610261
20
8.252523
30
0.0
11
14.610261
21
8.606854
31
0.0
0
LINE
8
Layer_1
62
1
5
2b0
100
AcDbEntity
100
AcDbLine
10
14.610261
20
8.606854
30
0.0
11
14.983883
21
8.606854
31
0.0
0
LINE
8
Layer_1
62
1
5
2b1
100
AcDbEntity
100
AcDbLine
10
14.983883
20
8.606854
30
0.0
11
14.983883
21
8.252523
31
0.0
0
LINE
8
Layer_1
62
1
5
2b2
100
AcDbEntity
100
AcDbLine
10
14.983883
20
8.252523
30
0.0
11
15.338608
21
8.252523
31
0.0
0
LINE
8
Layer_1
62
1
5
2b3
100
AcDbEntity
100
AcDbLine
10
15.338608
20
8.252523
30
0.0
11
15.338608
21
8.606854
31
0.0
0
LINE
8
Layer_1
62
1
5
2b4
100
AcDbEntity
100
AcDbLine
10
15.338608
20
8.606854
30
0.0
11
15.712230
21
8.606854
31
0.0
0
LINE
8
Layer_1
62
1
5
2b5
100
AcDbEntity
100
AcDbLine
10
15.712230
20
8.606854
30
0.0
11
15.712230
21
8.252523
31
0.0
0
LINE
8
Layer_1
62
1
5
2b6
100
AcDbEntity
100
AcDbLine
10
15.712230
20
8.252523
30
0.0
11
16.066954
21
8.252523
31
0.0
0
LINE
8
Layer_1
62
1
5
2b7
100
AcDbEntity
100
AcDbLine
10
16.066954
20
8.252523
30
0.0
11
16.066954
21
8.606854
31
0.0
0
LINE
8
Layer_1
62
1
5
2b8
100
AcDbEntity
100
AcDbLine
10
16.066954
20
8.606854
30
0.0
11
16.440576
21
8.606854
31
0.0
0
LINE
8
Layer_1
62
1
5
2b9
100
AcDbEntity
100
AcDbLine
10
16.440576
20
8.606854
30
0.0
11
16.440576
21
8.252523
31
0.0
0
LINE
8
Layer_1
62
1
5
2ba
100
AcDbEntity
100
AcDbLine
10
16.440576
20
8.252523
30
0.0
11
16.795300
21
8.252523
31
0.0
0
LINE
8
Layer_1
62
1
5
2bb
100
AcDbEntity
100
AcDbLine
10
16.795300
20
8.252523
30
0.0
11
16.795300
21
8.606854
31
0.0
0
LINE
8
Layer_1
62
1
5
2bc
100
AcDbEntity
100
AcDbLine
10
16.795300
20
8.606854
30
0.0
11
17.168922
21
8.606854
31
0.0
0
LINE
8
Layer_1
62
1
5
2bd
100
AcDbEntity
100
AcDbLine
10
17.168922
20
8.606854
30
0.0
11
17.168922
21
8.252523
31
0.0
0
LINE
8
Layer_1
62
1
5
2be
100
AcDbEntity
100
AcDbLine
10
17.168922
20
8.252523
30
0.0
11
17.523647
21
8.252523
31
0.0
0
LINE
8
Layer_1
62
1
5
2bf
100
AcDbEntity
100
AcDbLine
10
17.523647
20
8.252523
30
0.0
11
17.523647
21
8.606854
31
0.0
0
LINE
8
Layer_1
62
1
5
2c0
100
AcDbEntity
100
AcDbLine
10
17.523647
20
8.606854
30
0.0
11
17.897269
21
8.606854
31
0.0
0
LINE
8
Layer_1
62
1
5
2c1
100
AcDbEntity
100
AcDbLine
10
17.897269
20
8.606854
30
0.0
11
17.897269
21
8.252523
31
0.0
0
LINE
8
Layer_1
62
1
5
2c2
100
AcDbEntity
100
AcDbLine
10
17.897269
20
8.252523
30
0.0
11
18.251993
21
8.252523
31
0.0
0
LINE
8
Layer_1
62
1
5
2c3
100
AcDbEntity
100
AcDbLine
10
18.251993
20
8.252523
30
0.0
11
18.251993
21
8.606854
31
0.0
0
LINE
8
Layer_1
62
1
5
2c4
100
AcDbEntity
100
AcDbLine
10
18.251993
20
8.606854
30
0.0
11
18.625616
21
8.606854
31
0.0
0
LINE
8
Layer_1
62
1
5
2c5
100
AcDbEntity
100
AcDbLine
10
18.625616
20
8.606854
30
0.0
11
18.625616
21
8.252523
31
0.0
0
LINE
8
Layer_1
62
1
5
2c6
100
AcDbEntity
100
AcDbLine
10
18.625616
20
8.252523
30
0.0
11
18.980340
21
8.252523
31
0.0
0
LINE
8
Layer_1
62
1
5
2c7
100
AcDbEntity
100
AcDbLine
10
18.975128
20
8.252523
30
0.0
11
18.975128
21
3.055673
31
0.0
0
LINE
8
Layer_1
62
1
5
2c8
100
AcDbEntity
100
AcDbLine
10
9.890670
20
8.252518
30
0.0
11
9.890670
21
7.465117
31
0.0
0
LINE
8
Layer_1
62
1
5
2c9
100
AcDbEntity
100
AcDbLine
10
9.890670
20
7.465117
30
0.0
11
12.070891
21
6.875393
31
0.0
0
LINE
8
Layer_1
62
1
5
2ca
100
AcDbEntity
100
AcDbLine
10
12.070891
20
6.875393
30
0.0
11
12.070891
21
4.432834
31
0.0
0
LINE
8
Layer_1
62
1
5
2cb
100
AcDbEntity
100
AcDbLine
10
12.070891
20
4.432834
30
0.0
11
9.890670
21
3.843070
31
0.0
0
LINE
8
Layer_1
62
1
5
2cc
100
AcDbEntity
100
AcDbLine
10
9.890670
20
3.843070
30
0.0
11
9.890670
21
3.055668
31
0.0
0
LINE
8
Layer_1
62
1
5
2cd
100
AcDbEntity
100
AcDbLine
10
12.658571
20
6.875374
30
0.0
11
12.658571
21
5.778110
31
0.0
0
LINE
8
Layer_1
62
1
5
2ce
100
AcDbEntity
100
AcDbLine
10
12.658571
20
5.778110
30
0.0
11
12.554309
21
5.778110
31
0.0
0
LINE
8
Layer_1
62
1
5
2cf
100
AcDbEntity
100
AcDbLine
10
12.554309
20
5.778110
30
0.0
11
12.554309
21
6.875393
31
0.0
0
LINE
8
Layer_1
62
1
5
2d0
100
AcDbEntity
100
AcDbLine
10
12.554309
20
6.875393
30
0.0
11
12.658571
21
6.875374
31
0.0
0
LINE
8
Layer_1
62
1
5
2d1
100
AcDbEntity
100
AcDbLine
10
12.658571
20
5.530086
30
0.0
11
12.658571
21
4.432823
31
0.0
0
LINE
8
Layer_1
62
1
5
2d2
100
AcDbEntity
100
AcDbLine
10
12.658571
20
4.432823
30
0.0
11
12.554309
21
4.432834
31
0.0
0
LINE
8
Layer_1
62
1
5
2d3
100
AcDbEntity
100
AcDbLine
10
12.554309
20
4.432834
30
0.0
11
12.554309
21
5.530086
31
0.0
0
LINE
8
Layer_1
62
1
5
2d4
100
AcDbEntity
100
AcDbLine
10
12.554309
20
5.530086
30
0.0
11
12.658571
21
5.530086
31
0.0
0
LINE
8
Layer_1
62
1
5
2d5
100
AcDbEntity
100
AcDbLine
10
13.503042
20
8.013929
30
0.0
11
13.503042
21
3.294267
31
0.0
0
LINE
8
Layer_1
62
1
5
2d6
100
AcDbEntity
100
AcDbLine
10
13.503042
20
3.294267
30
0.0
11
13.153459
21
3.294267
31
0.0
0
LINE
8
Layer_1
62
1
5
2d7
100
AcDbEntity
100
AcDbLine
10
13.153459
20
3.294267
30
0.0
11
13.153459
21
8.013929
31
0.0
0
LINE
8
Layer_1
62
1
5
2d8
100
AcDbEntity
100
AcDbLine
10
13.153459
20
8.013929
30
0.0
11
13.503042
21
8.013929
31
0.0
0
LINE
8
Layer_1
62
1
5
2d9
100
AcDbEntity
100
AcDbLine
10
14.956151
20
8.013929
30
0.0
11
14.956151
21
3.294268
31
0.0
0
LINE
8
Layer_1
62
1
5
2da
100
AcDbEntity
100
AcDbLine
10
14.956151
20
3.294268
30
0.0
11
14.606568
21
3.294268
31
0.0
0
LINE
8
Layer_1
62
1
5
2db
100
AcDbEntity
100
AcDbLine
10
14.606568
20
3.294268
30
0.0
11
14.606568
21
8.013929
31
0.0
0
LINE
8
Layer_1
62
1
5
2dc
100
AcDbEntity
100
AcDbLine
10
14.606568
20
8.013929
30
0.0
11
14.956151
21
8.013929
31
0.0
0
LINE
8
Layer_1
62
1
5
2dd
100
AcDbEntity
100
AcDbLine
10
16.409258
20
8.013929
30
0.0
11
16.409258
21
3.294268
31
0.0
0
LINE
8
Layer_1
62
1
5
2de
100
AcDbEntity
100
AcDbLine
10
16.409258
20
3.294268
30
0.0
11
16.059676
21
3.294268
31
0.0
0
LINE
8
Layer_1
62
1
5
2df
100
AcDbEntity
100
AcDbLine
10
16.059676
20
3.294268
30
0.0
11
16.059676
21
8.013929
31
0.0
0
LINE
8
Layer_1
62
1
5
2e0
100
AcDbEntity
100
AcDbLine
10
16.059676
20
8.013929
30
0.0
11
16.409258
21
8.013929
31
0.0
0
LINE
8
Layer_1
62
1
5
2e1
100
AcDbEntity
100
AcDbLine
10
14.229597
20
8.013929
30
0.0
11
14.229597
21
3.294268
31
0.0
0
LINE
8
Layer_1
62
1
5
2e2
100
AcDbEntity
100
AcDbLine
10
14.229597
20
3.294268
30
0.0
11
13.880013
21
3.294268
31
0.0
0
LINE
8
Layer_1
62
1
5
2e3
100
AcDbEntity
100
AcDbLine
10
13.880013
20
3.294268
30
0.0
11
13.880013
21
8.013929
31
0.0
0
LINE
8
Layer_1
62
1
5
2e4
100
AcDbEntity
100
AcDbLine
10
13.880013
20
8.013929
30
0.0
11
14.229597
21
8.013929
31
0.0
0
LINE
8
Layer_1
62
1
5
2e5
100
AcDbEntity
100
AcDbLine
10
17.135812
20
8.013929
30
0.0
11
17.135812
21
3.294268
31
0.0
0
LINE
8
Layer_1
62
1
5
2e6
100
AcDbEntity
100
AcDbLine
10
17.135812
20
3.294268
30
0.0
11
16.786229
21
3.294268
31
0.0
0
LINE
8
Layer_1
62
1
5
2e7
100
AcDbEntity
100
AcDbLine
10
16.786229
20
3.294268
30
0.0
11
16.786229
21
8.013929
31
0.0
0
LINE
8
Layer_1
62
1
5
2e8
100
AcDbEntity
100
AcDbLine
10
16.786229
20
8.013929
30
0.0
11
17.135812
21
8.013929
31
0.0
0
LINE
8
Layer_1
62
1
5
2e9
100
AcDbEntity
100
AcDbLine
10
15.682704
20
8.013929
30
0.0
11
15.682704
21
3.294268
31
0.0
0
LINE
8
Layer_1
62
1
5
2ea
100
AcDbEntity
100
AcDbLine
10
15.682704
20
3.294268
30
0.0
11
15.333121
21
3.294268
31
0.0
0
LINE
8
Layer_1
62
1
5
2eb
100
AcDbEntity
100
AcDbLine
10
15.333121
20
3.294268
30
0.0
11
15.333121
21
8.013929
31
0.0
0
LINE
8
Layer_1
62
1
5
2ec
100
AcDbEntity
100
AcDbLine
10
15.333121
20
8.013929
30
0.0
11
15.682704
21
8.013929
31
0.0
0
LINE
8
Layer_1
62
1
5
2ed
100
AcDbEntity
100
AcDbLine
10
18.588920
20
8.013929
30
0.0
11
18.588920
21
3.294268
31
0.0
0
LINE
8
Layer_1
62
1
5
2ee
100
AcDbEntity
100
AcDbLine
10
18.588920
20
3.294268
30
0.0
11
18.239337
21
3.294268
31
0.0
0
LINE
8
Layer_1
62
1
5
2ef
100
AcDbEntity
100
AcDbLine
10
18.239337
20
3.294268
30
0.0
11
18.239337
21
8.013929
31
0.0
0
LINE
8
Layer_1
62
1
5
2f0
100
AcDbEntity
100
AcDbLine
10
18.239337
20
8.013929
30
0.0
11
18.588920
21
8.013929
31
0.0
0
LINE
8
Layer_1
62
1
5
2f1
100
AcDbEntity
100
AcDbLine
10
17.862366
20
8.013929
30
0.0
11
17.862366
21
3.294268
31
0.0
0
LINE
8
Layer_1
62
1
5
2f2
100
AcDbEntity
100
AcDbLine
10
17.862366
20
3.294268
30
0.0
11
17.512783
21
3.294268
31
0.0
0
LINE
8
Layer_1
62
1
5
2f3
100
AcDbEntity
100
AcDbLine
10
17.512783
20
3.294268
30
0.0
11
17.512783
21
8.013929
31
0.0
0
LINE
8
Layer_1
62
1
5
2f4
100
AcDbEntity
100
AcDbLine
10
17.512783
20
8.013929
30
0.0
11
17.862366
21
8.013929
31
0.0
0
LINE
8
Layer_1
62
1
5
2f5
100
AcDbEntity
100
AcDbLine
10
9.341722
20
3.055673
30
0.0
11
8.986997
21
3.055673
31
0.0
0
LINE
8
Layer_1
62
1
5
2f6
100
AcDbEntity
100
AcDbLine
10
8.986997
20
3.055673
30
0.0
11
8.986997
21
2.701343
31
0.0
0
LINE
8
Layer_1
62
1
5
2f7
100
AcDbEntity
100
AcDbLine
10
8.986997
20
2.701343
30
0.0
11
8.613375
21
2.701343
31
0.0
0
LINE
8
Layer_1
62
1
5
2f8
100
AcDbEntity
100
AcDbLine
10
8.613375
20
2.701343
30
0.0
11
8.613375
21
3.055673
31
0.0
0
LINE
8
Layer_1
62
1
5
2f9
100
AcDbEntity
100
AcDbLine
10
8.613375
20
3.055673
30
0.0
11
8.258651
21
3.055673
31
0.0
0
LINE
8
Layer_1
62
1
5
2fa
100
AcDbEntity
100
AcDbLine
10
8.258651
20
3.055673
30
0.0
11
8.258651
21
2.701343
31
0.0
0
LINE
8
Layer_1
62
1
5
2fb
100
AcDbEntity
100
AcDbLine
10
8.258651
20
2.701343
30
0.0
11
7.885029
21
2.701343
31
0.0
0
LINE
8
Layer_1
62
1
5
2fc
100
AcDbEntity
100
AcDbLine
10
7.885029
20
2.701343
30
0.0
11
7.885029
21
3.055673
31
0.0
0
LINE
8
Layer_1
62
1
5
2fd
100
AcDbEntity
100
AcDbLine
10
7.885029
20
3.055673
30
0.0
11
7.530304
21
3.055673
31
0.0
0
LINE
8
Layer_1
62
1
5
2fe
100
AcDbEntity
100
AcDbLine
10
7.530304
20
3.055673
30
0.0
11
7.530304
21
2.701343
31
0.0
0
LINE
8
Layer_1
62
1
5
2ff
100
AcDbEntity
100
AcDbLine
10
7.530304
20
2.701343
30
0.0
11
7.156682
21
2.701343
31
0.0
0
LINE
8
Layer_1
62
1
5
300
100
AcDbEntity
100
AcDbLine
10
7.156682
20
2.701343
30
0.0
11
7.156682
21
3.055673
31
0.0
0
LINE
8
Layer_1
62
1
5
301
100
AcDbEntity
100
AcDbLine
10
7.156682
20
3.055673
30
0.0
11
6.801958
21
3.055673
31
0.0
0
LINE
8
Layer_1
62
1
5
302
100
AcDbEntity
100
AcDbLine
10
6.801958
20
3.055673
30
0.0
11
6.801958
21
2.701343
31
0.0
0
LINE
8
Layer_1
62
1
5
303
100
AcDbEntity
100
AcDbLine
10
6.801958
20
2.701343
30
0.0
11
6.428336
21
2.701343
31
0.0
0
LINE
8
Layer_1
62
1
5
304
100
AcDbEntity
100
AcDbLine
10
6.428336
20
2.701343
30
0.0
11
6.428336
21
3.055673
31
0.0
0
LINE
8
Layer_1
62
1
5
305
100
AcDbEntity
100
AcDbLine
10
6.428336
20
3.055673
30
0.0
11
6.073611
21
3.055673
31
0.0
0
LINE
8
Layer_1
62
1
5
306
100
AcDbEntity
100
AcDbLine
10
6.073611
20
3.055673
30
0.0
11
6.073611
21
2.701343
31
0.0
0
LINE
8
Layer_1
62
1
5
307
100
AcDbEntity
100
AcDbLine
10
6.073611
20
2.701343
30
0.0
11
5.699989
21
2.701343
31
0.0
0
LINE
8
Layer_1
62
1
5
308
100
AcDbEntity
100
AcDbLine
10
5.699989
20
2.701343
30
0.0
11
5.699989
21
3.055673
31
0.0
0
LINE
8
Layer_1
62
1
5
309
100
AcDbEntity
100
AcDbLine
10
5.699989
20
3.055673
30
0.0
11
5.345265
21
3.055673
31
0.0
0
LINE
8
Layer_1
62
1
5
30a
100
AcDbEntity
100
AcDbLine
10
5.345265
20
3.055673
30
0.0
11
5.345265
21
2.701343
31
0.0
0
LINE
8
Layer_1
62
1
5
30b
100
AcDbEntity
100
AcDbLine
10
5.345265
20
2.701343
30
0.0
11
4.971643
21
2.701343
31
0.0
0
LINE
8
Layer_1
62
1
5
30c
100
AcDbEntity
100
AcDbLine
10
4.971643
20
2.701343
30
0.0
11
4.971643
21
3.055673
31
0.0
0
LINE
8
Layer_1
62
1
5
30d
100
AcDbEntity
100
AcDbLine
10
4.971643
20
3.055673
30
0.0
11
4.616919
21
3.055673
31
0.0
0
LINE
8
Layer_1
62
1
5
30e
100
AcDbEntity
100
AcDbLine
10
4.616919
20
3.055673
30
0.0
11
4.616919
21
2.701343
31
0.0
0
LINE
8
Layer_1
62
1
5
30f
100
AcDbEntity
100
AcDbLine
10
4.616919
20
2.701343
30
0.0
11
4.243296
21
2.701343
31
0.0
0
LINE
8
Layer_1
62
1
5
310
100
AcDbEntity
100
AcDbLine
10
4.243296
20
2.701343
30
0.0
11
4.243296
21
3.055673
31
0.0
0
LINE
8
Layer_1
62
1
5
311
100
AcDbEntity
100
AcDbLine
10
4.243296
20
3.055673
30
0.0
11
3.888572
21
3.055673
31
0.0
0
LINE
8
Layer_1
62
1
5
312
100
AcDbEntity
100
AcDbLine
10
3.888572
20
3.055673
30
0.0
11
3.888572
21
2.701343
31
0.0
0
LINE
8
Layer_1
62
1
5
313
100
AcDbEntity
100
AcDbLine
10
3.888572
20
2.701343
30
0.0
11
3.514950
21
2.701343
31
0.0
0
LINE
8
Layer_1
62
1
5
314
100
AcDbEntity
100
AcDbLine
10
3.514950
20
2.701343
30
0.0
11
3.514950
21
3.055673
31
0.0
0
LINE
8
Layer_1
62
1
5
315
100
AcDbEntity
100
AcDbLine
10
3.514950
20
3.055673
30
0.0
11
3.160226
21
3.055673
31
0.0
0
LINE
8
Layer_1
62
1
5
316
100
AcDbEntity
100
AcDbLine
10
3.160226
20
3.055673
30
0.0
11
3.160226
21
2.701343
31
0.0
0
LINE
8
Layer_1
62
1
5
317
100
AcDbEntity
100
AcDbLine
10
3.160226
20
2.701343
30
0.0
11
2.786604
21
2.701343
31
0.0
0
LINE
8
Layer_1
62
1
5
318
100
AcDbEntity
100
AcDbLine
10
2.786604
20
2.701343
30
0.0
11
2.786604
21
3.055673
31
0.0
0
LINE
8
Layer_1
62
1
5
319
100
AcDbEntity
100
AcDbLine
10
2.786604
20
3.055673
30
0.0
11
2.431879
21
3.055673
31
0.0
0
LINE
8
Layer_1
62
1
5
31a
100
AcDbEntity
100
AcDbLine
10
2.431879
20
3.055673
30
0.0
11
2.431879
21
2.701343
31
0.0
0
LINE
8
Layer_1
62
1
5
31b
100
AcDbEntity
100
AcDbLine
10
2.431879
20
2.701343
30
0.0
11
2.058257
21
2.701343
31
0.0
0
LINE
8
Layer_1
62
1
5
31c
100
AcDbEntity
100
AcDbLine
10
2.058257
20
2.701343
30
0.0
11
2.058257
21
3.055673
31
0.0
0
LINE
8
Layer_1
62
1
5
31d
100
AcDbEntity
100
AcDbLine
10
2.058257
20
3.055673
30
0.0
11
1.703533
21
3.055673
31
0.0
0
LINE
8
Layer_1
62
1
5
31e
100
AcDbEntity
100
AcDbLine
10
1.703533
20
3.055673
30
0.0
11
1.703533
21
2.701343
31
0.0
0
LINE
8
Layer_1
62
1
5
31f
100
AcDbEntity
100
AcDbLine
10
1.703533
20
2.701343
30
0.0
11
1.329911
21
2.701343
31
0.0
0
LINE
8
Layer_1
62
1
5
320
100
AcDbEntity
100
AcDbLine
10
1.329911
20
2.701343
30
0.0
11
1.329911
21
3.055673
31
0.0
0
LINE
8
Layer_1
62
1
5
321
100
AcDbEntity
100
AcDbLine
10
1.329911
20
3.055673
30
0.0
11
0.975186
21
3.055673
31
0.0
0
LINE
8
Layer_1
62
1
5
322
100
AcDbEntity
100
AcDbLine
10
0.975186
20
3.055673
30
0.0
11
0.975186
21
2.701343
31
0.0
0
LINE
8
Layer_1
62
1
5
323
100
AcDbEntity
100
AcDbLine
10
0.975186
20
2.701343
30
0.0
11
0.601564
21
2.701343
31
0.0
0
LINE
8
Layer_1
62
1
5
324
100
AcDbEntity
100
AcDbLine
10
0.601564
20
2.701343
30
0.0
11
0.601564
21
3.055673
31
0.0
0
LINE
8
Layer_1
62
1
5
325
100
AcDbEntity
100
AcDbLine
10
0.601564
20
3.055673
30
0.0
11
0.246840
21
3.055673
31
0.0
0
LINE
8
Layer_1
62
1
5
326
100
AcDbEntity
100
AcDbLine
10
0.246840
20
8.252523
30
0.0
11
0.601564
21
8.252523
31
0.0
0
LINE
8
Layer_1
62
1
5
327
100
AcDbEntity
100
AcDbLine
10
0.601564
20
8.252523
30
0.0
11
0.601564
21
8.606854
31
0.0
0
LINE
8
Layer_1
62
1
5
328
100
AcDbEntity
100
AcDbLine
10
0.601564
20
8.606854
30
0.0
11
0.975186
21
8.606854
31
0.0
0
LINE
8
Layer_1
62
1
5
329
100
AcDbEntity
100
AcDbLine
10
0.975186
20
8.606854
30
0.0
11
0.975186
21
8.252523
31
0.0
0
LINE
8
Layer_1
62
1
5
32a
100
AcDbEntity
100
AcDbLine
10
0.975186
20
8.252523
30
0.0
11
1.329911
21
8.252523
31
0.0
0
LINE
8
Layer_1
62
1
5
32b
100
AcDbEntity
100
AcDbLine
10
1.329911
20
8.252523
30
0.0
11
1.329911
21
8.606854
31
0.0
0
LINE
8
Layer_1
62
1
5
32c
100
AcDbEntity
100
AcDbLine
10
1.329911
20
8.606854
30
0.0
11
1.703533
21
8.606854
31
0.0
0
LINE
8
Layer_1
62
1
5
32d
100
AcDbEntity
100
AcDbLine
10
1.703533
20
8.606854
30
0.0
11
1.703533
21
8.252523
31
0.0
0
LINE
8
Layer_1
62
1
5
32e
100
AcDbEntity
100
AcDbLine
10
1.703533
20
8.252523
30
0.0
11
2.058257
21
8.252523
31
0.0
0
LINE
8
Layer_1
62
1
5
32f
100
AcDbEntity
100
AcDbLine
10
2.058257
20
8.252523
30
0.0
11
2.058257
21
8.606854
31
0.0
0
LINE
8
Layer_1
62
1
5
330
100
AcDbEntity
100
AcDbLine
10
2.058257
20
8.606854
30
0.0
11
2.431879
21
8.606854
31
0.0
0
LINE
8
Layer_1
62
1
5
331
100
AcDbEntity
100
AcDbLine
10
2.431879
20
8.606854
30
0.0
11
2.431879
21
8.252523
31
0.0
0
LINE
8
Layer_1
62
1
5
332
100
AcDbEntity
100
AcDbLine
10
2.431879
20
8.252523
30
0.0
11
2.786604
21
8.252523
31
0.0
0
LINE
8
Layer_1
62
1
5
333
100
AcDbEntity
100
AcDbLine
10
2.786604
20
8.252523
30
0.0
11
2.786604
21
8.606854
31
0.0
0
LINE
8
Layer_1
62
1
5
334
100
AcDbEntity
100
AcDbLine
10
2.786604
20
8.606854
30
0.0
11
3.160226
21
8.606854
31
0.0
0
LINE
8
Layer_1
62
1
5
335
100
AcDbEntity
100
AcDbLine
10
3.160226
20
8.606854
30
0.0
11
3.160226
21
8.252523
31
0.0
0
LINE
8
Layer_1
62
1
5
336
100
AcDbEntity
100
AcDbLine
10
3.160226
20
8.252523
30
0.0
11
3.514950
21
8.252523
31
0.0
0
LINE
8
Layer_1
62
1
5
337
100
AcDbEntity
100
AcDbLine
10
3.514950
20
8.252523
30
0.0
11
3.514950
21
8.606854
31
0.0
0
LINE
8
Layer_1
62
1
5
338
100
AcDbEntity
100
AcDbLine
10
3.514950
20
8.606854
30
0.0
11
3.888572
21
8.606854
31
0.0
0
LINE
8
Layer_1
62
1
5
339
100
AcDbEntity
100
AcDbLine
10
3.888572
20
8.606854
30
0.0
11
3.888572
21
8.252523
31
0.0
0
LINE
8
Layer_1
62
1
5
33a
100
AcDbEntity
100
AcDbLine
10
3.888572
20
8.252523
30
0.0
11
4.243296
21
8.252523
31
0.0
0
LINE
8
Layer_1
62
1
5
33b
100
AcDbEntity
100
AcDbLine
10
4.243296
20
8.252523
30
0.0
11
4.243296
21
8.606854
31
0.0
0
LINE
8
Layer_1
62
1
5
33c
100
AcDbEntity
100
AcDbLine
10
4.243296
20
8.606854
30
0.0
11
4.616919
21
8.606854
31
0.0
0
LINE
8
Layer_1
62
1
5
33d
100
AcDbEntity
100
AcDbLine
10
4.616919
20
8.606854
30
0.0
11
4.616919
21
8.252523
31
0.0
0
LINE
8
Layer_1
62
1
5
33e
100
AcDbEntity
100
AcDbLine
10
4.616919
20
8.252523
30
0.0
11
4.971643
21
8.252523
31
0.0
0
LINE
8
Layer_1
62
1
5
33f
100
AcDbEntity
100
AcDbLine
10
4.971643
20
8.252523
30
0.0
11
4.971643
21
8.606854
31
0.0
0
LINE
8
Layer_1
62
1
5
340
100
AcDbEntity
100
AcDbLine
10
4.971643
20
8.606854
30
0.0
11
5.345265
21
8.606854
31
0.0
0
LINE
8
Layer_1
62
1
5
341
100
AcDbEntity
100
AcDbLine
10
5.345265
20
8.606854
30
0.0
11
5.345265
21
8.252523
31
0.0
0
LINE
8
Layer_1
62
1
5
342
100
AcDbEntity
100
AcDbLine
10
5.345265
20
8.252523
30
0.0
11
5.699989
21
8.252523
31
0.0
0
LINE
8
Layer_1
62
1
5
343
100
AcDbEntity
100
AcDbLine
10
5.699989
20
8.252523
30
0.0
11
5.699989
21
8.606854
31
0.0
0
LINE
8
Layer_1
62
1
5
344
100
AcDbEntity
100
AcDbLine
10
5.699989
20
8.606854
30
0.0
11
6.073611
21
8.606854
31
0.0
0
LINE
8
Layer_1
62
1
5
345
100
AcDbEntity
100
AcDbLine
10
6.073611
20
8.606854
30
0.0
11
6.073611
21
8.252523
31
0.0
0
LINE
8
Layer_1
62
1
5
346
100
AcDbEntity
100
AcDbLine
10
6.073611
20
8.252523
30
0.0
11
6.428336
21
8.252523
31
0.0
0
LINE
8
Layer_1
62
1
5
347
100
AcDbEntity
100
AcDbLine
10
6.428336
20
8.252523
30
0.0
11
6.428336
21
8.606854
31
0.0
0
LINE
8
Layer_1
62
1
5
348
100
AcDbEntity
100
AcDbLine
10
6.428336
20
8.606854
30
0.0
11
6.801958
21
8.606854
31
0.0
0
LINE
8
Layer_1
62
1
5
349
100
AcDbEntity
100
AcDbLine
10
6.801958
20
8.606854
30
0.0
11
6.801958
21
8.252523
31
0.0
0
LINE
8
Layer_1
62
1
5
34a
100
AcDbEntity
100
AcDbLine
10
6.801958
20
8.252523
30
0.0
11
7.156682
21
8.252523
31
0.0
0
LINE
8
Layer_1
62
1
5
34b
100
AcDbEntity
100
AcDbLine
10
7.156682
20
8.252523
30
0.0
11
7.156682
21
8.606854
31
0.0
0
LINE
8
Layer_1
62
1
5
34c
100
AcDbEntity
100
AcDbLine
10
7.156682
20
8.606854
30
0.0
11
7.530304
21
8.606854
31
0.0
0
LINE
8
Layer_1
62
1
5
34d
100
AcDbEntity
100
AcDbLine
10
7.530304
20
8.606854
30
0.0
11
7.530304
21
8.252523
31
0.0
0
LINE
8
Layer_1
62
1
5
34e
100
AcDbEntity
100
AcDbLine
10
7.530304
20
8.252523
30
0.0
11
7.885029
21
8.252523
31
0.0
0
LINE
8
Layer_1
62
1
5
34f
100
AcDbEntity
100
AcDbLine
10
7.885029
20
8.252523
30
0.0
11
7.885029
21
8.606854
31
0.0
0
LINE
8
Layer_1
62
1
5
350
100
AcDbEntity
100
AcDbLine
10
7.885029
20
8.606854
30
0.0
11
8.258651
21
8.606854
31
0.0
0
LINE
8
Layer_1
62
1
5
351
100
AcDbEntity
100
AcDbLine
10
8.258651
20
8.606854
30
0.0
11
8.258651
21
8.252523
31
0.0
0
LINE
8
Layer_1
62
1
5
352
100
AcDbEntity
100
AcDbLine
10
8.258651
20
8.252523
30
0.0
11
8.613375
21
8.252523
31
0.0
0
LINE
8
Layer_1
62
1
5
353
100
AcDbEntity
100
AcDbLine
10
8.613375
20
8.252523
30
0.0
11
8.613375
21
8.606854
31
0.0
0
LINE
8
Layer_1
62
1
5
354
100
AcDbEntity
100
AcDbLine
10
8.613375
20
8.606854
30
0.0
11
8.986997
21
8.606854
31
0.0
0
LINE
8
Layer_1
62
1
5
355
100
AcDbEntity
100
AcDbLine
10
8.986997
20
8.606854
30
0.0
11
8.986997
21
8.252523
31
0.0
0
LINE
8
Layer_1
62
1
5
356
100
AcDbEntity
100
AcDbLine
10
8.986997
20
8.252523
30
0.0
11
9.341722
21
8.252523
31
0.0
0
LINE
8
Layer_1
62
1
5
357
100
AcDbEntity
100
AcDbLine
10
9.336510
20
8.252523
30
0.0
11
9.336510
21
3.055673
31
0.0
0
LINE
8
Layer_1
62
1
5
358
100
AcDbEntity
100
AcDbLine
10
0.252052
20
8.252518
30
0.0
11
0.252052
21
7.465117
31
0.0
0
LINE
8
Layer_1
62
1
5
359
100
AcDbEntity
100
AcDbLine
10
0.252052
20
7.465117
30
0.0
11
2.432273
21
6.875393
31
0.0
0
LINE
8
Layer_1
62
1
5
35a
100
AcDbEntity
100
AcDbLine
10
2.432273
20
6.875393
30
0.0
11
2.432273
21
4.432834
31
0.0
0
LINE
8
Layer_1
62
1
5
35b
100
AcDbEntity
100
AcDbLine
10
2.432273
20
4.432834
30
0.0
11
0.252052
21
3.843070
31
0.0
0
LINE
8
Layer_1
62
1
5
35c
100
AcDbEntity
100
AcDbLine
10
0.252052
20
3.843070
30
0.0
11
0.252052
21
3.055668
31
0.0
0
LINE
8
Layer_1
62
1
5
35d
100
AcDbEntity
100
AcDbLine
10
3.019953
20
6.875374
30
0.0
11
3.019953
21
5.778110
31
0.0
0
LINE
8
Layer_1
62
1
5
35e
100
AcDbEntity
100
AcDbLine
10
3.019953
20
5.778110
30
0.0
11
2.915690
21
5.778110
31
0.0
0
LINE
8
Layer_1
62
1
5
35f
100
AcDbEntity
100
AcDbLine
10
2.915690
20
5.778110
30
0.0
11
2.915690
21
6.875393
31
0.0
0
LINE
8
Layer_1
62
1
5
360
100
AcDbEntity
100
AcDbLine
10
2.915690
20
6.875393
30
0.0
11
3.019953
21
6.875374
31
0.0
0
LINE
8
Layer_1
62
1
5
361
100
AcDbEntity
100
AcDbLine
10
3.019953
20
5.530086
30
0.0
11
3.019953
21
4.432823
31
0.0
0
LINE
8
Layer_1
62
1
5
362
100
AcDbEntity
100
AcDbLine
10
3.019953
20
4.432823
30
0.0
11
2.915690
21
4.432834
31
0.0
0
LINE
8
Layer_1
62
1
5
363
100
AcDbEntity
100
AcDbLine
10
2.915690
20
4.432834
30
0.0
11
2.915690
21
5.530086
31
0.0
0
LINE
8
Layer_1
62
1
5
364
100
AcDbEntity
100
AcDbLine
10
2.915690
20
5.530086
30
0.0
11
3.019953
21
5.530086
31
0.0
0
LINE
8
Layer_1
62
1
5
365
100
AcDbEntity
100
AcDbLine
10
3.864424
20
8.013929
30
0.0
11
3.864424
21
3.294267
31
0.0
0
LINE
8
Layer_1
62
1
5
366
100
AcDbEntity
100
AcDbLine
10
3.864424
20
3.294267
30
0.0
11
3.514841
21
3.294267
31
0.0
0
LINE
8
Layer_1
62
1
5
367
100
AcDbEntity
100
AcDbLine
10
3.514841
20
3.294267
30
0.0
11
3.514841
21
8.013929
31
0.0
0
LINE
8
Layer_1
62
1
5
368
100
AcDbEntity
100
AcDbLine
10
3.514841
20
8.013929
30
0.0
11
3.864424
21
8.013929
31
0.0
0
LINE
8
Layer_1
62
1
5
369
100
AcDbEntity
100
AcDbLine
10
5.317532
20
8.013929
30
0.0
11
5.317532
21
3.294268
31
0.0
0
LINE
8
Layer_1
62
1
5
36a
100
AcDbEntity
100
AcDbLine
10
5.317532
20
3.294268
30
0.0
11
4.967949
21
3.294268
31
0.0
0
LINE
8
Layer_1
62
1
5
36b
100
AcDbEntity
100
AcDbLine
10
4.967949
20
3.294268
30
0.0
11
4.967949
21
8.013929
31
0.0
0
LINE
8
Layer_1
62
1
5
36c
100
AcDbEntity
100
AcDbLine
10
4.967949
20
8.013929
30
0.0
11
5.317532
21
8.013929
31
0.0
0
LINE
8
Layer_1
62
1
5
36d
100
AcDbEntity
100
AcDbLine
10
6.770640
20
8.013929
30
0.0
11
6.770640
21
3.294268
31
0.0
0
LINE
8
Layer_1
62
1
5
36e
100
AcDbEntity
100
AcDbLine
10
6.770640
20
3.294268
30
0.0
11
6.421057
21
3.294268
31
0.0
0
LINE
8
Layer_1
62
1
5
36f
100
AcDbEntity
100
AcDbLine
10
6.421057
20
3.294268
30
0.0
11
6.421057
21
8.013929
31
0.0
0
LINE
8
Layer_1
62
1
5
370
100
AcDbEntity
100
AcDbLine
10
6.421057
20
8.013929
30
0.0
11
6.770640
21
8.013929
31
0.0
0
LINE
8
Layer_1
62
1
5
371
100
AcDbEntity
100
AcDbLine
10
4.590978
20
8.013929
30
0.0
11
4.590978
21
3.294268
31
0.0
0
LINE
8
Layer_1
62
1
5
372
100
AcDbEntity
100
AcDbLine
10
4.590978
20
3.294268
30
0.0
11
4.241395
21
3.294268
31
0.0
0
LINE
8
Layer_1
62
1
5
373
100
AcDbEntity
100
AcDbLine
10
4.241395
20
3.294268
30
0.0
11
4.241395
21
8.013929
31
0.0
0
LINE
8
Layer_1
62
1
5
374
100
AcDbEntity
100
AcDbLine
10
4.241395
20
8.013929
30
0.0
11
4.590978
21
8.013929
31
0.0
0
LINE
8
Layer_1
62
1
5
375
100
AcDbEntity
100
AcDbLine
10
7.497194
20
8.013929
30
0.0
11
7.497194
21
3.294268
31
0.0
0
LINE
8
Layer_1
62
1
5
376
100
AcDbEntity
100
AcDbLine
10
7.497194
20
3.294268
30
0.0
11
7.147611
21
3.294268
31
0.0
0
LINE
8
Layer_1
62
1
5
377
100
AcDbEntity
100
AcDbLine
10
7.147611
20
3.294268
30
0.0
11
7.147611
21
8.013929
31
0.0
0
LINE
8
Layer_1
62
1
5
378
100
AcDbEntity
100
AcDbLine
10
7.147611
20
8.013929
30
0.0
11
7.497194
21
8.013929
31
0.0
0
LINE
8
Layer_1
62
1
5
379
100
AcDbEntity
100
AcDbLine
10
6.044086
20
8.013929
30
0.0
11
6.044086
21
3.294268
31
0.0
0
LINE
8
Layer_1
62
1
5
37a
100
AcDbEntity
100
AcDbLine
10
6.044086
20
3.294268
30
0.0
11
5.694503
21
3.294268
31
0.0
0
LINE
8
Layer_1
62
1
5
37b
100
AcDbEntity
100
AcDbLine
10
5.694503
20
3.294268
30
0.0
11
5.694503
21
8.013929
31
0.0
0
LINE
8
Layer_1
62
1
5
37c
100
AcDbEntity
100
AcDbLine
10
5.694503
20
8.013929
30
0.0
11
6.044086
21
8.013929
31
0.0
0
LINE
8
Layer_1
62
1
5
37d
100
AcDbEntity
100
AcDbLine
10
8.950302
20
8.013929
30
0.0
11
8.950302
21
3.294268
31
0.0
0
LINE
8
Layer_1
62
1
5
37e
100
AcDbEntity
100
AcDbLine
10
8.950302
20
3.294268
30
0.0
11
8.600719
21
3.294268
31
0.0
0
LINE
8
Layer_1
62
1
5
37f
100
AcDbEntity
100
AcDbLine
10
8.600719
20
3.294268
30
0.0
11
8.600719
21
8.013929
31
0.0
0
LINE
8
Layer_1
62
1
5
380
100
AcDbEntity
100
AcDbLine
10
8.600719
20
8.013929
30
0.0
11
8.950302
21
8.013929
31
0.0
0
LINE
8
Layer_1
62
1
5
381
100
AcDbEntity
100
AcDbLine
10
8.223748
20
8.013929
30
0.0
11
8.223748
21
3.294268
31
0.0
0
LINE
8
Layer_1
62
1
5
382
100
AcDbEntity
100
AcDbLine
10
8.223748
20
3.294268
30
0.0
11
7.874165
21
3.294268
31
0.0
0
LINE
8
Layer_1
62
1
5
383
100
AcDbEntity
100
AcDbLine
10
7.874165
20
3.294268
30
0.0
11
7.874165
21
8.013929
31
0.0
0
LINE
8
Layer_1
62
1
5
384
100
AcDbEntity
100
AcDbLine
10
7.874165
20
8.013929
30
0.0
11
8.223748
21
8.013929
31
0.0
0
LINE
8
Layer_1
62
1
5
385
100
AcDbEntity
100
AcDbLine
10
0.026844
20
15.839297
30
0.0
11
25.563707
21
15.839297
31
0.0
0
LINE
8
Layer_1
62
1
5
386
100
AcDbEntity
100
AcDbLine
10
25.563707
20
15.839297
30
0.0
11
25.563707
21
2.113459
31
0.0
0
LINE
8
Layer_1
62
1
5
387
100
AcDbEntity
100
AcDbLine
10
25.563707
20
2.113459
30
0.0
11
0.026844
21
2.113459
31
0.0
0
LINE
8
Layer_1
62
1
5
388
100
AcDbEntity
100
AcDbLine
10
0.026844
20
2.113459
30
0.0
11
0.026844
21
15.839297
31
0.0
  0
ENDSEC
  0
SECTION
  2
OBJECTS
  0
DICTIONARY
  5
C
330
0
100
AcDbDictionary
  3
ACAD_GROUP
350
D
  3
ACAD_MLINESTYLE
350
17
  0
DICTIONARY
  5
D
330
C
100
AcDbDictionary
  0
DICTIONARY
  5
1A
330
C
100
AcDbDictionary
  0
DICTIONARY
  5
17
330
C
100
AcDbDictionary
  3
STANDARD
350
18
  0
DICTIONARY
  5
19
330
C
100
AcDbDictionary
  0
ENDSEC
  0
EOF
