<?xml version="1.0" encoding="UTF-8" standalone="no"?>
<!-- Created with Inkscape (http://www.inkscape.org/) -->

<svg
   xmlns:dc="http://purl.org/dc/elements/1.1/"
   xmlns:cc="http://creativecommons.org/ns#"
   xmlns:rdf="http://www.w3.org/1999/02/22-rdf-syntax-ns#"
   xmlns:svg="http://www.w3.org/2000/svg"
   xmlns="http://www.w3.org/2000/svg"
   xmlns:sodipodi="http://sodipodi.sourceforge.net/DTD/sodipodi-0.dtd"
   xmlns:inkscape="http://www.inkscape.org/namespaces/inkscape"
   width="300mm"
   height="300mm"
   viewBox="0 0 1062.9921 1062.9921"
   id="svg9752"
   version="1.1"
   inkscape:version="0.91 r13725"
   sodipodi:docname="lamp-base.svg">
  <defs
     id="defs9754" />
  <sodipodi:namedview
     id="base"
     pagecolor="#ffffff"
     bordercolor="#666666"
     borderopacity="1.0"
     inkscape:pageopacity="0.0"
     inkscape:pageshadow="2"
     inkscape:zoom="0.35"
     inkscape:cx="-278.55061"
     inkscape:cy="213.51184"
     inkscape:document-units="px"
     inkscape:current-layer="layer1"
     showgrid="false"
     inkscape:window-width="1366"
     inkscape:window-height="705"
     inkscape:window-x="-8"
     inkscape:window-y="-8"
     inkscape:window-maximized="1" />
  <metadata
     id="metadata9757">
    <rdf:RDF>
      <cc:Work
         rdf:about="">
        <dc:format>image/svg+xml</dc:format>
        <dc:type
           rdf:resource="http://purl.org/dc/dcmitype/StillImage" />
        <dc:title></dc:title>
      </cc:Work>
    </rdf:RDF>
  </metadata>
  <g
     inkscape:label="Layer 1"
     inkscape:groupmode="layer"
     id="layer1"
     transform="translate(0,10.629921)">
    <path
       id="contour"
       style="fill:none;fill-rule:evenodd;stroke:#ff0000;stroke-width:0.99734044;stroke-linecap:butt;stroke-linejoin:miter;stroke-miterlimit:4;stroke-dasharray:none;stroke-opacity:1"
       d="m 796.74542,631.11017 0,-99.73404 m 0,-21.01998 0,-99.73403 m 0.49867,99.16718 -32.93427,0 0,22.15368 32.93427,0 m 0,-120.754 -32.93427,0 0,-123.29469 -123.13662,0 0,-32.77617 m -374.92649,155.50404 0,99.73403 m 0,21.0199 0,99.73404 m -0.49868,-99.16719 32.57076,0 0,-22.1536 -32.57076,0 m 375.99202,276.32614 -99.73403,0 m 99.16717,0.49868 0,-32.51221 123.13663,0 0,-123.55913 32.93427,0 m -276.25797,155.57266 -99.73404,0 m 99.16719,0.49868 0,-32.51221 22.1536,0 0,32.51221 m -120.75394,0 0,-32.51221 -123.50014,0 0,-123.55877 -32.57054,0 m 375.99181,-374.92639 -99.73403,0 m 0.56685,-0.49867 0,32.51174 -22.1536,0 0,-32.51174 m 0.56685,0.49867 -99.73404,0 m 0.56685,-0.49867 0,32.77617 -123.50015,0 0,123.29469 -32.57076,0"
       inkscape:connector-curvature="0" />
    <path
       style="display:inline;opacity:1;fill:none;stroke:#ff0000;stroke-width:0.98516053;stroke-miterlimit:4;stroke-dasharray:none;stroke-dashoffset:0;stroke-opacity:1"
       d="m 592.84637,520.86611 c 0,33.88288 -27.46749,61.35038 -61.35038,61.35038 -33.88288,0 -61.35039,-27.4675 -61.35039,-61.35038 0,-33.88289 27.46751,-61.35039 61.35039,-61.35039 33.88289,0 61.35038,27.4675 61.35038,61.35039 z"
       id="hole"
       inkscape:connector-curvature="0" />
    <path
       style="opacity:1;fill:none;fill-opacity:1;stroke:#ff0000;stroke-width:1.36416245;stroke-miterlimit:4;stroke-dasharray:none;stroke-dashoffset:0;stroke-opacity:1"
       d="m 266.43011,255.80019 530.1319,0 0,530.13189 -530.1319,0 z"
       id="rect3400" />
  </g>
</svg>
