999
Inkscape export via Big Blue Saws DXF Export" (http://www.bigbluesaw.com/saw/big-blue-saw-blog/general-updates/big-blue-saws-dxf-export-for-inkscape.html)
  0
SECTION
  2
HEADER
  9
$ACADVER
  1
AC1014
  9
$HANDSEED
  5
FFFF
  0
$INSUNITS
 70
 1
 9
ENDSEC
  0
SECTION
  2
TABLES
  0
TABLE
  2
VPORT
  5
8
330
0
100
AcDbSymbolTable
 70
     4
  0
VPORT
  5
2E
330
8
100
AcDbSymbolTableRecord
100
AcDbViewportTableRecord
  2
*ACTIVE
 70
     0
 10
0.0
 20
0.0
 11
1.0
 21
1.0
 12
4.25
 22
5.5
 13
0.0
 23
0.0
 14
10.0
 24
10.0
 15
10.0
 25
10.0
 16
0.0
 26
0.0
 36
1.0
 17
0.0
 27
0.0
 37
0.0
 40
11
 41
1.24
 42
50.0
 43
0.0
 44
0.0
 50
0.0
 51
0.0
 71
     0
 72
   100
 73
     1
 74
     3
 75
     0
 76
     0
 77
     0
 78
     0
  0
ENDTAB
  0
TABLE
  2
LTYPE
  5
5
330
0
100
AcDbSymbolTable
 70
     1
  0
LTYPE
  5
14
330
5
100
AcDbSymbolTableRecord
100
AcDbLinetypeTableRecord
  2
BYBLOCK
 70
     0
  3

 72
    65
 73
     0
 40
0.0
  0
LTYPE
  5
15
330
5
100
AcDbSymbolTableRecord
100
AcDbLinetypeTableRecord
  2
BYLAYER
 70
     0
  3

 72
    65
 73
     0
 40
0.0
  0
LTYPE
  5
16
330
5
100
AcDbSymbolTableRecord
100
AcDbLinetypeTableRecord
  2
CONTINUOUS
 70
     0
  3
Solid line
 72
    65
 73
     0
 40
0.0
  0
ENDTAB
  0
TABLE
  2
STYLE
  5
3
330
0
100
AcDbSymbolTable
 70
     1
  0
STYLE
  5
11
330
3
100
AcDbSymbolTableRecord
100
AcDbTextStyleTableRecord
  2
STANDARD
 70
     0
 40
0.0
 41
1.0
 50
0.0
 71
     0
 42
2.5
  3
txt
  4

  0
ENDTAB
  0
TABLE
  2
VIEW
  5
6
330
0
100
AcDbSymbolTable
 70
     0
  0
ENDTAB
  0
TABLE
  2
UCS
  5
7
330
0
100
AcDbSymbolTable
 70
     0
  0
ENDTAB
  0
TABLE
  2
APPID
  5
9
330
0
100
AcDbSymbolTable
 70
     2
  0
APPID
  5
12
330
9
100
AcDbSymbolTableRecord
100
AcDbRegAppTableRecord
  2
ACAD
 70
     0
  0
ENDTAB
  0
TABLE
  2
DIMSTYLE
  5
A
330
0
100
AcDbSymbolTable
 70
     1
  0
DIMSTYLE
105
27
330
A
100
AcDbSymbolTableRecord
100
AcDbDimStyleTableRecord
  2
ISO-25
 70
     0
  3

  4

  5

  6

  7

 40
1.0
 41
2.5
 42
0.625
 43
3.75
 44
1.25
 45
0.0
 46
0.0
 47
0.0
 48
0.0
140
2.5
141
2.5
142
0.0
143
0.03937007874016
144
1.0
145
0.0
146
1.0
147
0.625
 71
     0
 72
     0
 73
     0
 74
     0
 75
     0
 76
     0
 77
     1
 78
     8
170
     0
171
     3
172
     1
173
     0
174
     0
175
     0
176
     0
177
     0
178
     0
270
     2
271
     2
272
     2
273
     2
274
     3
340
11
275
     0
280
     0
281
     0
282
     0
283
     0
284
     8
285
     0
286
     0
287
     3
288
     0
  0
ENDTAB
  0
TABLE
  2
BLOCK_RECORD
  5
1
330
0
100
AcDbSymbolTable
 70
     1
  0
BLOCK_RECORD
  5
1F
330
1
100
AcDbSymbolTableRecord
100
AcDbBlockTableRecord
  2
*MODEL_SPACE
  0
BLOCK_RECORD
  5
1B
330
1
100
AcDbSymbolTableRecord
100
AcDbBlockTableRecord
  2
*PAPER_SPACE
  0
ENDTAB
0
TABLE
2
LAYER
5
2
330
0
100
AcDbSymbolTable
70
1
0
LAYER
5
10
330
2
100
AcDbSymbolTableRecord
100
AcDbLayerTableRecord
2
Layer_1
70
0
62
7
6
CONTINUOUS
0
ENDTAB
0
ENDSEC
  0
SECTION
  2
BLOCKS
  0
BLOCK
  5
20
330
1F
100
AcDbEntity
  8
0
100
AcDbBlockBegin
  2
*MODEL_SPACE
 70
     0
 10
0.0
 20
0.0
 30
0.0
  3
*MODEL_SPACE
  1

  0
ENDBLK
  5
21
330
1F
100
AcDbEntity
  8
0
100
AcDbBlockEnd
  0
BLOCK
  5
1C
330
1B
100
AcDbEntity
 67
     1
  8
0
100
AcDbBlockBegin
  2
*PAPER_SPACE
  1

  0
ENDBLK
  5
1D
330
1B
100
AcDbEntity
 67
     1
  8
0
100
AcDbBlockEnd
  0
ENDSEC
  0
SECTION
  2
ENTITIES
0
LINE
8
Layer_1
62
1
5
100
100
AcDbEntity
100
AcDbLine
10
10.114781
20
15.251414
30
0.0
11
10.468718
21
15.251414
31
0.0
0
LINE
8
Layer_1
62
1
5
101
100
AcDbEntity
100
AcDbLine
10
10.468718
20
15.251414
30
0.0
11
10.468718
21
14.897083
31
0.0
0
LINE
8
Layer_1
62
1
5
102
100
AcDbEntity
100
AcDbLine
10
10.468718
20
14.897083
30
0.0
11
10.843127
21
14.897083
31
0.0
0
LINE
8
Layer_1
62
1
5
103
100
AcDbEntity
100
AcDbLine
10
10.843127
20
14.897083
30
0.0
11
10.843127
21
15.251414
31
0.0
0
LINE
8
Layer_1
62
1
5
104
100
AcDbEntity
100
AcDbLine
10
10.843127
20
15.251414
30
0.0
11
11.197064
21
15.251414
31
0.0
0
LINE
8
Layer_1
62
1
5
105
100
AcDbEntity
100
AcDbLine
10
11.197064
20
15.251414
30
0.0
11
11.197064
21
14.897083
31
0.0
0
LINE
8
Layer_1
62
1
5
106
100
AcDbEntity
100
AcDbLine
10
11.197064
20
14.897083
30
0.0
11
11.571473
21
14.897083
31
0.0
0
LINE
8
Layer_1
62
1
5
107
100
AcDbEntity
100
AcDbLine
10
11.571473
20
14.897083
30
0.0
11
11.571473
21
15.251414
31
0.0
0
LINE
8
Layer_1
62
1
5
108
100
AcDbEntity
100
AcDbLine
10
11.571473
20
15.251414
30
0.0
11
11.925410
21
15.251414
31
0.0
0
LINE
8
Layer_1
62
1
5
109
100
AcDbEntity
100
AcDbLine
10
11.925410
20
15.251414
30
0.0
11
11.925410
21
14.897083
31
0.0
0
LINE
8
Layer_1
62
1
5
10a
100
AcDbEntity
100
AcDbLine
10
11.925410
20
14.897083
30
0.0
11
12.299820
21
14.897083
31
0.0
0
LINE
8
Layer_1
62
1
5
10b
100
AcDbEntity
100
AcDbLine
10
12.299820
20
14.897083
30
0.0
11
12.299820
21
15.251414
31
0.0
0
LINE
8
Layer_1
62
1
5
10c
100
AcDbEntity
100
AcDbLine
10
12.299820
20
15.251414
30
0.0
11
12.653757
21
15.251414
31
0.0
0
LINE
8
Layer_1
62
1
5
10d
100
AcDbEntity
100
AcDbLine
10
12.653757
20
15.251414
30
0.0
11
12.653757
21
14.897083
31
0.0
0
LINE
8
Layer_1
62
1
5
10e
100
AcDbEntity
100
AcDbLine
10
12.653757
20
14.897083
30
0.0
11
13.028167
21
14.897083
31
0.0
0
LINE
8
Layer_1
62
1
5
10f
100
AcDbEntity
100
AcDbLine
10
13.028167
20
14.897083
30
0.0
11
13.028167
21
15.251414
31
0.0
0
LINE
8
Layer_1
62
1
5
110
100
AcDbEntity
100
AcDbLine
10
13.028167
20
15.251414
30
0.0
11
13.382103
21
15.251414
31
0.0
0
LINE
8
Layer_1
62
1
5
111
100
AcDbEntity
100
AcDbLine
10
13.382103
20
15.251414
30
0.0
11
13.382103
21
14.897083
31
0.0
0
LINE
8
Layer_1
62
1
5
112
100
AcDbEntity
100
AcDbLine
10
13.382103
20
14.897083
30
0.0
11
13.756513
21
14.897083
31
0.0
0
LINE
8
Layer_1
62
1
5
113
100
AcDbEntity
100
AcDbLine
10
13.756513
20
14.897083
30
0.0
11
13.756513
21
15.251414
31
0.0
0
LINE
8
Layer_1
62
1
5
114
100
AcDbEntity
100
AcDbLine
10
13.756513
20
15.251414
30
0.0
11
14.110450
21
15.251414
31
0.0
0
LINE
8
Layer_1
62
1
5
115
100
AcDbEntity
100
AcDbLine
10
14.110450
20
15.251414
30
0.0
11
14.110450
21
14.897083
31
0.0
0
LINE
8
Layer_1
62
1
5
116
100
AcDbEntity
100
AcDbLine
10
14.110450
20
14.897083
30
0.0
11
14.484859
21
14.897083
31
0.0
0
LINE
8
Layer_1
62
1
5
117
100
AcDbEntity
100
AcDbLine
10
14.484859
20
14.897083
30
0.0
11
14.484859
21
15.251414
31
0.0
0
LINE
8
Layer_1
62
1
5
118
100
AcDbEntity
100
AcDbLine
10
14.484859
20
15.251414
30
0.0
11
14.838797
21
15.251414
31
0.0
0
LINE
8
Layer_1
62
1
5
119
100
AcDbEntity
100
AcDbLine
10
14.838797
20
15.251414
30
0.0
11
14.838797
21
14.897083
31
0.0
0
LINE
8
Layer_1
62
1
5
11a
100
AcDbEntity
100
AcDbLine
10
14.838797
20
14.897083
30
0.0
11
15.213206
21
14.897083
31
0.0
0
LINE
8
Layer_1
62
1
5
11b
100
AcDbEntity
100
AcDbLine
10
15.213206
20
14.897083
30
0.0
11
15.213206
21
15.251414
31
0.0
0
LINE
8
Layer_1
62
1
5
11c
100
AcDbEntity
100
AcDbLine
10
15.213206
20
15.251414
30
0.0
11
15.567143
21
15.251414
31
0.0
0
LINE
8
Layer_1
62
1
5
11d
100
AcDbEntity
100
AcDbLine
10
15.567143
20
15.251414
30
0.0
11
15.567143
21
14.897083
31
0.0
0
LINE
8
Layer_1
62
1
5
11e
100
AcDbEntity
100
AcDbLine
10
15.567143
20
14.897083
30
0.0
11
15.941552
21
14.897083
31
0.0
0
LINE
8
Layer_1
62
1
5
11f
100
AcDbEntity
100
AcDbLine
10
15.941552
20
14.897083
30
0.0
11
15.941552
21
15.251414
31
0.0
0
LINE
8
Layer_1
62
1
5
120
100
AcDbEntity
100
AcDbLine
10
15.941552
20
15.251414
30
0.0
11
16.295489
21
15.251414
31
0.0
0
LINE
8
Layer_1
62
1
5
121
100
AcDbEntity
100
AcDbLine
10
16.295489
20
15.251414
30
0.0
11
16.295489
21
14.897083
31
0.0
0
LINE
8
Layer_1
62
1
5
122
100
AcDbEntity
100
AcDbLine
10
16.295489
20
14.897083
30
0.0
11
16.669899
21
14.897083
31
0.0
0
LINE
8
Layer_1
62
1
5
123
100
AcDbEntity
100
AcDbLine
10
16.669899
20
14.897083
30
0.0
11
16.669899
21
15.251414
31
0.0
0
LINE
8
Layer_1
62
1
5
124
100
AcDbEntity
100
AcDbLine
10
16.669899
20
15.251414
30
0.0
11
17.023836
21
15.251414
31
0.0
0
LINE
8
Layer_1
62
1
5
125
100
AcDbEntity
100
AcDbLine
10
17.023836
20
15.251414
30
0.0
11
17.023836
21
14.897083
31
0.0
0
LINE
8
Layer_1
62
1
5
126
100
AcDbEntity
100
AcDbLine
10
17.023836
20
14.897083
30
0.0
11
17.398246
21
14.897083
31
0.0
0
LINE
8
Layer_1
62
1
5
127
100
AcDbEntity
100
AcDbLine
10
17.398246
20
14.897083
30
0.0
11
17.398246
21
15.251414
31
0.0
0
LINE
8
Layer_1
62
1
5
128
100
AcDbEntity
100
AcDbLine
10
17.398246
20
15.251414
30
0.0
11
17.752182
21
15.251414
31
0.0
0
LINE
8
Layer_1
62
1
5
129
100
AcDbEntity
100
AcDbLine
10
17.752182
20
15.251414
30
0.0
11
17.752182
21
14.897083
31
0.0
0
LINE
8
Layer_1
62
1
5
12a
100
AcDbEntity
100
AcDbLine
10
17.752182
20
14.897083
30
0.0
11
18.126591
21
14.897083
31
0.0
0
LINE
8
Layer_1
62
1
5
12b
100
AcDbEntity
100
AcDbLine
10
18.126591
20
14.897083
30
0.0
11
18.126591
21
15.251414
31
0.0
0
LINE
8
Layer_1
62
1
5
12c
100
AcDbEntity
100
AcDbLine
10
18.126591
20
15.251414
30
0.0
11
18.480529
21
15.251414
31
0.0
0
LINE
8
Layer_1
62
1
5
12d
100
AcDbEntity
100
AcDbLine
10
18.480529
20
15.251414
30
0.0
11
18.480529
21
14.897083
31
0.0
0
LINE
8
Layer_1
62
1
5
12e
100
AcDbEntity
100
AcDbLine
10
18.480529
20
14.897083
30
0.0
11
18.854938
21
14.897083
31
0.0
0
LINE
8
Layer_1
62
1
5
12f
100
AcDbEntity
100
AcDbLine
10
18.854938
20
14.897083
30
0.0
11
18.854938
21
15.251414
31
0.0
0
LINE
8
Layer_1
62
1
5
130
100
AcDbEntity
100
AcDbLine
10
18.854938
20
15.251414
30
0.0
11
19.208876
21
15.251414
31
0.0
0
LINE
8
Layer_1
62
1
5
131
100
AcDbEntity
100
AcDbLine
10
19.208876
20
9.345903
30
0.0
11
18.854938
21
9.345903
31
0.0
0
LINE
8
Layer_1
62
1
5
132
100
AcDbEntity
100
AcDbLine
10
18.854938
20
9.345903
30
0.0
11
18.854938
21
9.700233
31
0.0
0
LINE
8
Layer_1
62
1
5
133
100
AcDbEntity
100
AcDbLine
10
18.854938
20
9.700233
30
0.0
11
18.480529
21
9.700233
31
0.0
0
LINE
8
Layer_1
62
1
5
134
100
AcDbEntity
100
AcDbLine
10
18.480529
20
9.700233
30
0.0
11
18.480529
21
9.345903
31
0.0
0
LINE
8
Layer_1
62
1
5
135
100
AcDbEntity
100
AcDbLine
10
18.480529
20
9.345903
30
0.0
11
18.126591
21
9.345903
31
0.0
0
LINE
8
Layer_1
62
1
5
136
100
AcDbEntity
100
AcDbLine
10
18.126591
20
9.345903
30
0.0
11
18.126591
21
9.700233
31
0.0
0
LINE
8
Layer_1
62
1
5
137
100
AcDbEntity
100
AcDbLine
10
18.126591
20
9.700233
30
0.0
11
17.752182
21
9.700233
31
0.0
0
LINE
8
Layer_1
62
1
5
138
100
AcDbEntity
100
AcDbLine
10
17.752182
20
9.700233
30
0.0
11
17.752182
21
9.345903
31
0.0
0
LINE
8
Layer_1
62
1
5
139
100
AcDbEntity
100
AcDbLine
10
17.752182
20
9.345903
30
0.0
11
17.398246
21
9.345903
31
0.0
0
LINE
8
Layer_1
62
1
5
13a
100
AcDbEntity
100
AcDbLine
10
17.398246
20
9.345903
30
0.0
11
17.398246
21
9.700233
31
0.0
0
LINE
8
Layer_1
62
1
5
13b
100
AcDbEntity
100
AcDbLine
10
17.398246
20
9.700233
30
0.0
11
17.023836
21
9.700233
31
0.0
0
LINE
8
Layer_1
62
1
5
13c
100
AcDbEntity
100
AcDbLine
10
17.023836
20
9.700233
30
0.0
11
17.023836
21
9.345903
31
0.0
0
LINE
8
Layer_1
62
1
5
13d
100
AcDbEntity
100
AcDbLine
10
17.023836
20
9.345903
30
0.0
11
16.669899
21
9.345903
31
0.0
0
LINE
8
Layer_1
62
1
5
13e
100
AcDbEntity
100
AcDbLine
10
16.669899
20
9.345903
30
0.0
11
16.669899
21
9.700233
31
0.0
0
LINE
8
Layer_1
62
1
5
13f
100
AcDbEntity
100
AcDbLine
10
16.669899
20
9.700233
30
0.0
11
16.295489
21
9.700233
31
0.0
0
LINE
8
Layer_1
62
1
5
140
100
AcDbEntity
100
AcDbLine
10
16.295489
20
9.700233
30
0.0
11
16.295489
21
9.345903
31
0.0
0
LINE
8
Layer_1
62
1
5
141
100
AcDbEntity
100
AcDbLine
10
16.295489
20
9.345903
30
0.0
11
15.941552
21
9.345903
31
0.0
0
LINE
8
Layer_1
62
1
5
142
100
AcDbEntity
100
AcDbLine
10
15.941552
20
9.345903
30
0.0
11
15.941552
21
9.700233
31
0.0
0
LINE
8
Layer_1
62
1
5
143
100
AcDbEntity
100
AcDbLine
10
15.941552
20
9.700233
30
0.0
11
15.567143
21
9.700233
31
0.0
0
LINE
8
Layer_1
62
1
5
144
100
AcDbEntity
100
AcDbLine
10
15.567143
20
9.700233
30
0.0
11
15.567143
21
9.345903
31
0.0
0
LINE
8
Layer_1
62
1
5
145
100
AcDbEntity
100
AcDbLine
10
15.567143
20
9.345903
30
0.0
11
15.213206
21
9.345903
31
0.0
0
LINE
8
Layer_1
62
1
5
146
100
AcDbEntity
100
AcDbLine
10
15.213206
20
9.345903
30
0.0
11
15.213206
21
9.700233
31
0.0
0
LINE
8
Layer_1
62
1
5
147
100
AcDbEntity
100
AcDbLine
10
15.213206
20
9.700233
30
0.0
11
14.838797
21
9.700233
31
0.0
0
LINE
8
Layer_1
62
1
5
148
100
AcDbEntity
100
AcDbLine
10
14.838797
20
9.700233
30
0.0
11
14.838797
21
9.345903
31
0.0
0
LINE
8
Layer_1
62
1
5
149
100
AcDbEntity
100
AcDbLine
10
14.838797
20
9.345903
30
0.0
11
14.484859
21
9.345903
31
0.0
0
LINE
8
Layer_1
62
1
5
14a
100
AcDbEntity
100
AcDbLine
10
14.484859
20
9.345903
30
0.0
11
14.484859
21
9.700233
31
0.0
0
LINE
8
Layer_1
62
1
5
14b
100
AcDbEntity
100
AcDbLine
10
14.484859
20
9.700233
30
0.0
11
14.110450
21
9.700233
31
0.0
0
LINE
8
Layer_1
62
1
5
14c
100
AcDbEntity
100
AcDbLine
10
14.110450
20
9.700233
30
0.0
11
14.110450
21
9.345903
31
0.0
0
LINE
8
Layer_1
62
1
5
14d
100
AcDbEntity
100
AcDbLine
10
14.110450
20
9.345903
30
0.0
11
13.756513
21
9.345903
31
0.0
0
LINE
8
Layer_1
62
1
5
14e
100
AcDbEntity
100
AcDbLine
10
13.756513
20
9.345903
30
0.0
11
13.756513
21
9.700233
31
0.0
0
LINE
8
Layer_1
62
1
5
14f
100
AcDbEntity
100
AcDbLine
10
13.756513
20
9.700233
30
0.0
11
13.382103
21
9.700233
31
0.0
0
LINE
8
Layer_1
62
1
5
150
100
AcDbEntity
100
AcDbLine
10
13.382103
20
9.700233
30
0.0
11
13.382103
21
9.345903
31
0.0
0
LINE
8
Layer_1
62
1
5
151
100
AcDbEntity
100
AcDbLine
10
13.382103
20
9.345903
30
0.0
11
13.028167
21
9.345903
31
0.0
0
LINE
8
Layer_1
62
1
5
152
100
AcDbEntity
100
AcDbLine
10
13.028167
20
9.345903
30
0.0
11
13.028167
21
9.700233
31
0.0
0
LINE
8
Layer_1
62
1
5
153
100
AcDbEntity
100
AcDbLine
10
13.028167
20
9.700233
30
0.0
11
12.653757
21
9.700233
31
0.0
0
LINE
8
Layer_1
62
1
5
154
100
AcDbEntity
100
AcDbLine
10
12.653757
20
9.700233
30
0.0
11
12.653757
21
9.345903
31
0.0
0
LINE
8
Layer_1
62
1
5
155
100
AcDbEntity
100
AcDbLine
10
12.653757
20
9.345903
30
0.0
11
12.299820
21
9.345903
31
0.0
0
LINE
8
Layer_1
62
1
5
156
100
AcDbEntity
100
AcDbLine
10
12.299820
20
9.345903
30
0.0
11
12.299820
21
9.700233
31
0.0
0
LINE
8
Layer_1
62
1
5
157
100
AcDbEntity
100
AcDbLine
10
12.299820
20
9.700233
30
0.0
11
11.925410
21
9.700233
31
0.0
0
LINE
8
Layer_1
62
1
5
158
100
AcDbEntity
100
AcDbLine
10
11.925410
20
9.700233
30
0.0
11
11.925410
21
9.345903
31
0.0
0
LINE
8
Layer_1
62
1
5
159
100
AcDbEntity
100
AcDbLine
10
11.925410
20
9.345903
30
0.0
11
11.571473
21
9.345903
31
0.0
0
LINE
8
Layer_1
62
1
5
15a
100
AcDbEntity
100
AcDbLine
10
11.571473
20
9.345903
30
0.0
11
11.571473
21
9.700233
31
0.0
0
LINE
8
Layer_1
62
1
5
15b
100
AcDbEntity
100
AcDbLine
10
11.571473
20
9.700233
30
0.0
11
11.197064
21
9.700233
31
0.0
0
LINE
8
Layer_1
62
1
5
15c
100
AcDbEntity
100
AcDbLine
10
11.197064
20
9.700233
30
0.0
11
11.197064
21
9.345903
31
0.0
0
LINE
8
Layer_1
62
1
5
15d
100
AcDbEntity
100
AcDbLine
10
11.197064
20
9.345903
30
0.0
11
10.843127
21
9.345903
31
0.0
0
LINE
8
Layer_1
62
1
5
15e
100
AcDbEntity
100
AcDbLine
10
10.843127
20
9.345903
30
0.0
11
10.843127
21
9.700233
31
0.0
0
LINE
8
Layer_1
62
1
5
15f
100
AcDbEntity
100
AcDbLine
10
10.843127
20
9.700233
30
0.0
11
10.468718
21
9.700238
31
0.0
0
LINE
8
Layer_1
62
1
5
160
100
AcDbEntity
100
AcDbLine
10
10.468718
20
9.700238
30
0.0
11
10.468718
21
9.345903
31
0.0
0
LINE
8
Layer_1
62
1
5
161
100
AcDbEntity
100
AcDbLine
10
10.468718
20
9.345903
30
0.0
11
10.114781
21
9.345903
31
0.0
0
LINE
8
Layer_1
62
1
5
162
100
AcDbEntity
100
AcDbLine
10
19.200167
20
15.256969
30
0.0
11
19.200167
21
9.351458
31
0.0
0
LINE
8
Layer_1
62
1
5
163
100
AcDbEntity
100
AcDbLine
10
10.123490
20
15.256969
30
0.0
11
10.123490
21
14.109686
31
0.0
0
LINE
8
Layer_1
62
1
5
164
100
AcDbEntity
100
AcDbLine
10
10.123490
20
14.109686
30
0.0
11
12.299820
21
13.525474
31
0.0
0
LINE
8
Layer_1
62
1
5
165
100
AcDbEntity
100
AcDbLine
10
12.299820
20
13.525474
30
0.0
11
12.299820
21
11.082954
31
0.0
0
LINE
8
Layer_1
62
1
5
166
100
AcDbEntity
100
AcDbLine
10
12.299820
20
11.082954
30
0.0
11
10.123490
21
10.487639
31
0.0
0
LINE
8
Layer_1
62
1
5
167
100
AcDbEntity
100
AcDbLine
10
10.123490
20
10.487639
30
0.0
11
10.123490
21
9.351459
31
0.0
0
LINE
8
Layer_1
62
1
5
168
100
AcDbEntity
100
AcDbLine
10
12.887500
20
13.525488
30
0.0
11
12.887500
21
12.428225
31
0.0
0
LINE
8
Layer_1
62
1
5
169
100
AcDbEntity
100
AcDbLine
10
12.887500
20
12.428225
30
0.0
11
12.783238
21
12.428225
31
0.0
0
LINE
8
Layer_1
62
1
5
16a
100
AcDbEntity
100
AcDbLine
10
12.783238
20
12.428225
30
0.0
11
12.783238
21
13.525474
31
0.0
0
LINE
8
Layer_1
62
1
5
16b
100
AcDbEntity
100
AcDbLine
10
12.783238
20
13.525474
30
0.0
11
12.887500
21
13.525488
31
0.0
0
LINE
8
Layer_1
62
1
5
16c
100
AcDbEntity
100
AcDbLine
10
12.887500
20
12.180200
30
0.0
11
12.887500
21
11.082937
31
0.0
0
LINE
8
Layer_1
62
1
5
16d
100
AcDbEntity
100
AcDbLine
10
12.887500
20
11.082937
30
0.0
11
12.783238
21
11.082959
31
0.0
0
LINE
8
Layer_1
62
1
5
16e
100
AcDbEntity
100
AcDbLine
10
12.783238
20
11.082959
30
0.0
11
12.783238
21
12.180205
31
0.0
0
LINE
8
Layer_1
62
1
5
16f
100
AcDbEntity
100
AcDbLine
10
12.783238
20
12.180205
30
0.0
11
12.887500
21
12.180200
31
0.0
0
LINE
8
Layer_1
62
1
5
170
100
AcDbEntity
100
AcDbLine
10
13.731971
20
14.664042
30
0.0
11
13.731971
21
9.944381
31
0.0
0
LINE
8
Layer_1
62
1
5
171
100
AcDbEntity
100
AcDbLine
10
13.731971
20
9.944381
30
0.0
11
13.382388
21
9.944381
31
0.0
0
LINE
8
Layer_1
62
1
5
172
100
AcDbEntity
100
AcDbLine
10
13.382388
20
9.944381
30
0.0
11
13.382388
21
14.664042
31
0.0
0
LINE
8
Layer_1
62
1
5
173
100
AcDbEntity
100
AcDbLine
10
13.382388
20
14.664042
30
0.0
11
13.731971
21
14.664042
31
0.0
0
LINE
8
Layer_1
62
1
5
174
100
AcDbEntity
100
AcDbLine
10
15.185080
20
14.664042
30
0.0
11
15.185080
21
9.944381
31
0.0
0
LINE
8
Layer_1
62
1
5
175
100
AcDbEntity
100
AcDbLine
10
15.185080
20
9.944381
30
0.0
11
14.835497
21
9.944381
31
0.0
0
LINE
8
Layer_1
62
1
5
176
100
AcDbEntity
100
AcDbLine
10
14.835497
20
9.944381
30
0.0
11
14.835497
21
14.664042
31
0.0
0
LINE
8
Layer_1
62
1
5
177
100
AcDbEntity
100
AcDbLine
10
14.835497
20
14.664042
30
0.0
11
15.185080
21
14.664042
31
0.0
0
LINE
8
Layer_1
62
1
5
178
100
AcDbEntity
100
AcDbLine
10
16.638187
20
14.664042
30
0.0
11
16.638187
21
9.944381
31
0.0
0
LINE
8
Layer_1
62
1
5
179
100
AcDbEntity
100
AcDbLine
10
16.638187
20
9.944381
30
0.0
11
16.288604
21
9.944381
31
0.0
0
LINE
8
Layer_1
62
1
5
17a
100
AcDbEntity
100
AcDbLine
10
16.288604
20
9.944381
30
0.0
11
16.288604
21
14.664042
31
0.0
0
LINE
8
Layer_1
62
1
5
17b
100
AcDbEntity
100
AcDbLine
10
16.288604
20
14.664042
30
0.0
11
16.638187
21
14.664042
31
0.0
0
LINE
8
Layer_1
62
1
5
17c
100
AcDbEntity
100
AcDbLine
10
14.458526
20
14.664042
30
0.0
11
14.458526
21
9.944381
31
0.0
0
LINE
8
Layer_1
62
1
5
17d
100
AcDbEntity
100
AcDbLine
10
14.458526
20
9.944381
30
0.0
11
14.108942
21
9.944381
31
0.0
0
LINE
8
Layer_1
62
1
5
17e
100
AcDbEntity
100
AcDbLine
10
14.108942
20
9.944381
30
0.0
11
14.108942
21
14.664042
31
0.0
0
LINE
8
Layer_1
62
1
5
17f
100
AcDbEntity
100
AcDbLine
10
14.108942
20
14.664042
30
0.0
11
14.458526
21
14.664042
31
0.0
0
LINE
8
Layer_1
62
1
5
180
100
AcDbEntity
100
AcDbLine
10
17.364741
20
14.664042
30
0.0
11
17.364741
21
9.944381
31
0.0
0
LINE
8
Layer_1
62
1
5
181
100
AcDbEntity
100
AcDbLine
10
17.364741
20
9.944381
30
0.0
11
17.015158
21
9.944381
31
0.0
0
LINE
8
Layer_1
62
1
5
182
100
AcDbEntity
100
AcDbLine
10
17.015158
20
9.944381
30
0.0
11
17.015158
21
14.664042
31
0.0
0
LINE
8
Layer_1
62
1
5
183
100
AcDbEntity
100
AcDbLine
10
17.015158
20
14.664042
30
0.0
11
17.364741
21
14.664042
31
0.0
0
LINE
8
Layer_1
62
1
5
184
100
AcDbEntity
100
AcDbLine
10
15.911633
20
14.664042
30
0.0
11
15.911633
21
9.944381
31
0.0
0
LINE
8
Layer_1
62
1
5
185
100
AcDbEntity
100
AcDbLine
10
15.911633
20
9.944381
30
0.0
11
15.562050
21
9.944381
31
0.0
0
LINE
8
Layer_1
62
1
5
186
100
AcDbEntity
100
AcDbLine
10
15.562050
20
9.944381
30
0.0
11
15.562050
21
14.664042
31
0.0
0
LINE
8
Layer_1
62
1
5
187
100
AcDbEntity
100
AcDbLine
10
15.562050
20
14.664042
30
0.0
11
15.911633
21
14.664042
31
0.0
0
LINE
8
Layer_1
62
1
5
188
100
AcDbEntity
100
AcDbLine
10
18.817849
20
14.664042
30
0.0
11
18.817849
21
9.944381
31
0.0
0
LINE
8
Layer_1
62
1
5
189
100
AcDbEntity
100
AcDbLine
10
18.817849
20
9.944381
30
0.0
11
18.468266
21
9.944381
31
0.0
0
LINE
8
Layer_1
62
1
5
18a
100
AcDbEntity
100
AcDbLine
10
18.468266
20
9.944381
30
0.0
11
18.468266
21
14.664042
31
0.0
0
LINE
8
Layer_1
62
1
5
18b
100
AcDbEntity
100
AcDbLine
10
18.468266
20
14.664042
30
0.0
11
18.817849
21
14.664042
31
0.0
0
LINE
8
Layer_1
62
1
5
18c
100
AcDbEntity
100
AcDbLine
10
18.091294
20
14.664042
30
0.0
11
18.091294
21
9.944381
31
0.0
0
LINE
8
Layer_1
62
1
5
18d
100
AcDbEntity
100
AcDbLine
10
18.091294
20
9.944381
30
0.0
11
17.741712
21
9.944381
31
0.0
0
LINE
8
Layer_1
62
1
5
18e
100
AcDbEntity
100
AcDbLine
10
17.741712
20
9.944381
30
0.0
11
17.741712
21
14.664042
31
0.0
0
LINE
8
Layer_1
62
1
5
18f
100
AcDbEntity
100
AcDbLine
10
17.741712
20
14.664042
30
0.0
11
18.091294
21
14.664042
31
0.0
0
LINE
8
Layer_1
62
1
5
190
100
AcDbEntity
100
AcDbLine
10
0.476163
20
15.251414
30
0.0
11
0.830100
21
15.251414
31
0.0
0
LINE
8
Layer_1
62
1
5
191
100
AcDbEntity
100
AcDbLine
10
0.830100
20
15.251414
30
0.0
11
0.830100
21
14.897083
31
0.0
0
LINE
8
Layer_1
62
1
5
192
100
AcDbEntity
100
AcDbLine
10
0.830100
20
14.897083
30
0.0
11
1.204509
21
14.897083
31
0.0
0
LINE
8
Layer_1
62
1
5
193
100
AcDbEntity
100
AcDbLine
10
1.204509
20
14.897083
30
0.0
11
1.204509
21
15.251414
31
0.0
0
LINE
8
Layer_1
62
1
5
194
100
AcDbEntity
100
AcDbLine
10
1.204509
20
15.251414
30
0.0
11
1.558446
21
15.251414
31
0.0
0
LINE
8
Layer_1
62
1
5
195
100
AcDbEntity
100
AcDbLine
10
1.558446
20
15.251414
30
0.0
11
1.558446
21
14.897083
31
0.0
0
LINE
8
Layer_1
62
1
5
196
100
AcDbEntity
100
AcDbLine
10
1.558446
20
14.897083
30
0.0
11
1.932856
21
14.897083
31
0.0
0
LINE
8
Layer_1
62
1
5
197
100
AcDbEntity
100
AcDbLine
10
1.932856
20
14.897083
30
0.0
11
1.932856
21
15.251414
31
0.0
0
LINE
8
Layer_1
62
1
5
198
100
AcDbEntity
100
AcDbLine
10
1.932856
20
15.251414
30
0.0
11
2.286793
21
15.251414
31
0.0
0
LINE
8
Layer_1
62
1
5
199
100
AcDbEntity
100
AcDbLine
10
2.286793
20
15.251414
30
0.0
11
2.286793
21
14.897083
31
0.0
0
LINE
8
Layer_1
62
1
5
19a
100
AcDbEntity
100
AcDbLine
10
2.286793
20
14.897083
30
0.0
11
2.661202
21
14.897083
31
0.0
0
LINE
8
Layer_1
62
1
5
19b
100
AcDbEntity
100
AcDbLine
10
2.661202
20
14.897083
30
0.0
11
2.661202
21
15.251414
31
0.0
0
LINE
8
Layer_1
62
1
5
19c
100
AcDbEntity
100
AcDbLine
10
2.661202
20
15.251414
30
0.0
11
3.015139
21
15.251414
31
0.0
0
LINE
8
Layer_1
62
1
5
19d
100
AcDbEntity
100
AcDbLine
10
3.015139
20
15.251414
30
0.0
11
3.015139
21
14.897083
31
0.0
0
LINE
8
Layer_1
62
1
5
19e
100
AcDbEntity
100
AcDbLine
10
3.015139
20
14.897083
30
0.0
11
3.389549
21
14.897083
31
0.0
0
LINE
8
Layer_1
62
1
5
19f
100
AcDbEntity
100
AcDbLine
10
3.389549
20
14.897083
30
0.0
11
3.389549
21
15.251414
31
0.0
0
LINE
8
Layer_1
62
1
5
1a0
100
AcDbEntity
100
AcDbLine
10
3.389549
20
15.251414
30
0.0
11
3.743486
21
15.251414
31
0.0
0
LINE
8
Layer_1
62
1
5
1a1
100
AcDbEntity
100
AcDbLine
10
3.743486
20
15.251414
30
0.0
11
3.743486
21
14.897083
31
0.0
0
LINE
8
Layer_1
62
1
5
1a2
100
AcDbEntity
100
AcDbLine
10
3.743486
20
14.897083
30
0.0
11
4.117895
21
14.897083
31
0.0
0
LINE
8
Layer_1
62
1
5
1a3
100
AcDbEntity
100
AcDbLine
10
4.117895
20
14.897083
30
0.0
11
4.117895
21
15.251414
31
0.0
0
LINE
8
Layer_1
62
1
5
1a4
100
AcDbEntity
100
AcDbLine
10
4.117895
20
15.251414
30
0.0
11
4.471832
21
15.251414
31
0.0
0
LINE
8
Layer_1
62
1
5
1a5
100
AcDbEntity
100
AcDbLine
10
4.471832
20
15.251414
30
0.0
11
4.471832
21
14.897083
31
0.0
0
LINE
8
Layer_1
62
1
5
1a6
100
AcDbEntity
100
AcDbLine
10
4.471832
20
14.897083
30
0.0
11
4.846242
21
14.897083
31
0.0
0
LINE
8
Layer_1
62
1
5
1a7
100
AcDbEntity
100
AcDbLine
10
4.846242
20
14.897083
30
0.0
11
4.846242
21
15.251414
31
0.0
0
LINE
8
Layer_1
62
1
5
1a8
100
AcDbEntity
100
AcDbLine
10
4.846242
20
15.251414
30
0.0
11
5.200179
21
15.251414
31
0.0
0
LINE
8
Layer_1
62
1
5
1a9
100
AcDbEntity
100
AcDbLine
10
5.200179
20
15.251414
30
0.0
11
5.200179
21
14.897083
31
0.0
0
LINE
8
Layer_1
62
1
5
1aa
100
AcDbEntity
100
AcDbLine
10
5.200179
20
14.897083
30
0.0
11
5.574588
21
14.897083
31
0.0
0
LINE
8
Layer_1
62
1
5
1ab
100
AcDbEntity
100
AcDbLine
10
5.574588
20
14.897083
30
0.0
11
5.574588
21
15.251414
31
0.0
0
LINE
8
Layer_1
62
1
5
1ac
100
AcDbEntity
100
AcDbLine
10
5.574588
20
15.251414
30
0.0
11
5.928525
21
15.251414
31
0.0
0
LINE
8
Layer_1
62
1
5
1ad
100
AcDbEntity
100
AcDbLine
10
5.928525
20
15.251414
30
0.0
11
5.928525
21
14.897083
31
0.0
0
LINE
8
Layer_1
62
1
5
1ae
100
AcDbEntity
100
AcDbLine
10
5.928525
20
14.897083
30
0.0
11
6.302935
21
14.897083
31
0.0
0
LINE
8
Layer_1
62
1
5
1af
100
AcDbEntity
100
AcDbLine
10
6.302935
20
14.897083
30
0.0
11
6.302935
21
15.251414
31
0.0
0
LINE
8
Layer_1
62
1
5
1b0
100
AcDbEntity
100
AcDbLine
10
6.302935
20
15.251414
30
0.0
11
6.656872
21
15.251414
31
0.0
0
LINE
8
Layer_1
62
1
5
1b1
100
AcDbEntity
100
AcDbLine
10
6.656872
20
15.251414
30
0.0
11
6.656872
21
14.897083
31
0.0
0
LINE
8
Layer_1
62
1
5
1b2
100
AcDbEntity
100
AcDbLine
10
6.656872
20
14.897083
30
0.0
11
7.031281
21
14.897083
31
0.0
0
LINE
8
Layer_1
62
1
5
1b3
100
AcDbEntity
100
AcDbLine
10
7.031281
20
14.897083
30
0.0
11
7.031281
21
15.251414
31
0.0
0
LINE
8
Layer_1
62
1
5
1b4
100
AcDbEntity
100
AcDbLine
10
7.031281
20
15.251414
30
0.0
11
7.385218
21
15.251414
31
0.0
0
LINE
8
Layer_1
62
1
5
1b5
100
AcDbEntity
100
AcDbLine
10
7.385218
20
15.251414
30
0.0
11
7.385218
21
14.897083
31
0.0
0
LINE
8
Layer_1
62
1
5
1b6
100
AcDbEntity
100
AcDbLine
10
7.385218
20
14.897083
30
0.0
11
7.759627
21
14.897083
31
0.0
0
LINE
8
Layer_1
62
1
5
1b7
100
AcDbEntity
100
AcDbLine
10
7.759627
20
14.897083
30
0.0
11
7.759627
21
15.251414
31
0.0
0
LINE
8
Layer_1
62
1
5
1b8
100
AcDbEntity
100
AcDbLine
10
7.759627
20
15.251414
30
0.0
11
8.113564
21
15.251414
31
0.0
0
LINE
8
Layer_1
62
1
5
1b9
100
AcDbEntity
100
AcDbLine
10
8.113564
20
15.251414
30
0.0
11
8.113564
21
14.897083
31
0.0
0
LINE
8
Layer_1
62
1
5
1ba
100
AcDbEntity
100
AcDbLine
10
8.113564
20
14.897083
30
0.0
11
8.487974
21
14.897083
31
0.0
0
LINE
8
Layer_1
62
1
5
1bb
100
AcDbEntity
100
AcDbLine
10
8.487974
20
14.897083
30
0.0
11
8.487974
21
15.251414
31
0.0
0
LINE
8
Layer_1
62
1
5
1bc
100
AcDbEntity
100
AcDbLine
10
8.487974
20
15.251414
30
0.0
11
8.841911
21
15.251414
31
0.0
0
LINE
8
Layer_1
62
1
5
1bd
100
AcDbEntity
100
AcDbLine
10
8.841911
20
15.251414
30
0.0
11
8.841911
21
14.897083
31
0.0
0
LINE
8
Layer_1
62
1
5
1be
100
AcDbEntity
100
AcDbLine
10
8.841911
20
14.897083
30
0.0
11
9.216320
21
14.897083
31
0.0
0
LINE
8
Layer_1
62
1
5
1bf
100
AcDbEntity
100
AcDbLine
10
9.216320
20
14.897083
30
0.0
11
9.216320
21
15.251414
31
0.0
0
LINE
8
Layer_1
62
1
5
1c0
100
AcDbEntity
100
AcDbLine
10
9.216320
20
15.251414
30
0.0
11
9.570257
21
15.251414
31
0.0
0
LINE
8
Layer_1
62
1
5
1c1
100
AcDbEntity
100
AcDbLine
10
9.570257
20
9.345903
30
0.0
11
9.216320
21
9.345903
31
0.0
0
LINE
8
Layer_1
62
1
5
1c2
100
AcDbEntity
100
AcDbLine
10
9.216320
20
9.345903
30
0.0
11
9.216320
21
9.700233
31
0.0
0
LINE
8
Layer_1
62
1
5
1c3
100
AcDbEntity
100
AcDbLine
10
9.216320
20
9.700233
30
0.0
11
8.841911
21
9.700233
31
0.0
0
LINE
8
Layer_1
62
1
5
1c4
100
AcDbEntity
100
AcDbLine
10
8.841911
20
9.700233
30
0.0
11
8.841911
21
9.345903
31
0.0
0
LINE
8
Layer_1
62
1
5
1c5
100
AcDbEntity
100
AcDbLine
10
8.841911
20
9.345903
30
0.0
11
8.487974
21
9.345903
31
0.0
0
LINE
8
Layer_1
62
1
5
1c6
100
AcDbEntity
100
AcDbLine
10
8.487974
20
9.345903
30
0.0
11
8.487974
21
9.700233
31
0.0
0
LINE
8
Layer_1
62
1
5
1c7
100
AcDbEntity
100
AcDbLine
10
8.487974
20
9.700233
30
0.0
11
8.113564
21
9.700233
31
0.0
0
LINE
8
Layer_1
62
1
5
1c8
100
AcDbEntity
100
AcDbLine
10
8.113564
20
9.700233
30
0.0
11
8.113564
21
9.345903
31
0.0
0
LINE
8
Layer_1
62
1
5
1c9
100
AcDbEntity
100
AcDbLine
10
8.113564
20
9.345903
30
0.0
11
7.759627
21
9.345903
31
0.0
0
LINE
8
Layer_1
62
1
5
1ca
100
AcDbEntity
100
AcDbLine
10
7.759627
20
9.345903
30
0.0
11
7.759627
21
9.700233
31
0.0
0
LINE
8
Layer_1
62
1
5
1cb
100
AcDbEntity
100
AcDbLine
10
7.759627
20
9.700233
30
0.0
11
7.385218
21
9.700233
31
0.0
0
LINE
8
Layer_1
62
1
5
1cc
100
AcDbEntity
100
AcDbLine
10
7.385218
20
9.700233
30
0.0
11
7.385218
21
9.345903
31
0.0
0
LINE
8
Layer_1
62
1
5
1cd
100
AcDbEntity
100
AcDbLine
10
7.385218
20
9.345903
30
0.0
11
7.031281
21
9.345903
31
0.0
0
LINE
8
Layer_1
62
1
5
1ce
100
AcDbEntity
100
AcDbLine
10
7.031281
20
9.345903
30
0.0
11
7.031281
21
9.700233
31
0.0
0
LINE
8
Layer_1
62
1
5
1cf
100
AcDbEntity
100
AcDbLine
10
7.031281
20
9.700233
30
0.0
11
6.656872
21
9.700233
31
0.0
0
LINE
8
Layer_1
62
1
5
1d0
100
AcDbEntity
100
AcDbLine
10
6.656872
20
9.700233
30
0.0
11
6.656872
21
9.345903
31
0.0
0
LINE
8
Layer_1
62
1
5
1d1
100
AcDbEntity
100
AcDbLine
10
6.656872
20
9.345903
30
0.0
11
6.302935
21
9.345903
31
0.0
0
LINE
8
Layer_1
62
1
5
1d2
100
AcDbEntity
100
AcDbLine
10
6.302935
20
9.345903
30
0.0
11
6.302935
21
9.700233
31
0.0
0
LINE
8
Layer_1
62
1
5
1d3
100
AcDbEntity
100
AcDbLine
10
6.302935
20
9.700233
30
0.0
11
5.928525
21
9.700233
31
0.0
0
LINE
8
Layer_1
62
1
5
1d4
100
AcDbEntity
100
AcDbLine
10
5.928525
20
9.700233
30
0.0
11
5.928525
21
9.345903
31
0.0
0
LINE
8
Layer_1
62
1
5
1d5
100
AcDbEntity
100
AcDbLine
10
5.928525
20
9.345903
30
0.0
11
5.574588
21
9.345903
31
0.0
0
LINE
8
Layer_1
62
1
5
1d6
100
AcDbEntity
100
AcDbLine
10
5.574588
20
9.345903
30
0.0
11
5.574588
21
9.700233
31
0.0
0
LINE
8
Layer_1
62
1
5
1d7
100
AcDbEntity
100
AcDbLine
10
5.574588
20
9.700233
30
0.0
11
5.200179
21
9.700233
31
0.0
0
LINE
8
Layer_1
62
1
5
1d8
100
AcDbEntity
100
AcDbLine
10
5.200179
20
9.700233
30
0.0
11
5.200179
21
9.345903
31
0.0
0
LINE
8
Layer_1
62
1
5
1d9
100
AcDbEntity
100
AcDbLine
10
5.200179
20
9.345903
30
0.0
11
4.846242
21
9.345903
31
0.0
0
LINE
8
Layer_1
62
1
5
1da
100
AcDbEntity
100
AcDbLine
10
4.846242
20
9.345903
30
0.0
11
4.846242
21
9.700233
31
0.0
0
LINE
8
Layer_1
62
1
5
1db
100
AcDbEntity
100
AcDbLine
10
4.846242
20
9.700233
30
0.0
11
4.471832
21
9.700233
31
0.0
0
LINE
8
Layer_1
62
1
5
1dc
100
AcDbEntity
100
AcDbLine
10
4.471832
20
9.700233
30
0.0
11
4.471832
21
9.345903
31
0.0
0
LINE
8
Layer_1
62
1
5
1dd
100
AcDbEntity
100
AcDbLine
10
4.471832
20
9.345903
30
0.0
11
4.117895
21
9.345903
31
0.0
0
LINE
8
Layer_1
62
1
5
1de
100
AcDbEntity
100
AcDbLine
10
4.117895
20
9.345903
30
0.0
11
4.117895
21
9.700233
31
0.0
0
LINE
8
Layer_1
62
1
5
1df
100
AcDbEntity
100
AcDbLine
10
4.117895
20
9.700233
30
0.0
11
3.743486
21
9.700233
31
0.0
0
LINE
8
Layer_1
62
1
5
1e0
100
AcDbEntity
100
AcDbLine
10
3.743486
20
9.700233
30
0.0
11
3.743486
21
9.345903
31
0.0
0
LINE
8
Layer_1
62
1
5
1e1
100
AcDbEntity
100
AcDbLine
10
3.743486
20
9.345903
30
0.0
11
3.389549
21
9.345903
31
0.0
0
LINE
8
Layer_1
62
1
5
1e2
100
AcDbEntity
100
AcDbLine
10
3.389549
20
9.345903
30
0.0
11
3.389549
21
9.700233
31
0.0
0
LINE
8
Layer_1
62
1
5
1e3
100
AcDbEntity
100
AcDbLine
10
3.389549
20
9.700233
30
0.0
11
3.015139
21
9.700233
31
0.0
0
LINE
8
Layer_1
62
1
5
1e4
100
AcDbEntity
100
AcDbLine
10
3.015139
20
9.700233
30
0.0
11
3.015139
21
9.345903
31
0.0
0
LINE
8
Layer_1
62
1
5
1e5
100
AcDbEntity
100
AcDbLine
10
3.015139
20
9.345903
30
0.0
11
2.661202
21
9.345903
31
0.0
0
LINE
8
Layer_1
62
1
5
1e6
100
AcDbEntity
100
AcDbLine
10
2.661202
20
9.345903
30
0.0
11
2.661202
21
9.700233
31
0.0
0
LINE
8
Layer_1
62
1
5
1e7
100
AcDbEntity
100
AcDbLine
10
2.661202
20
9.700233
30
0.0
11
2.286793
21
9.700233
31
0.0
0
LINE
8
Layer_1
62
1
5
1e8
100
AcDbEntity
100
AcDbLine
10
2.286793
20
9.700233
30
0.0
11
2.286793
21
9.345903
31
0.0
0
LINE
8
Layer_1
62
1
5
1e9
100
AcDbEntity
100
AcDbLine
10
2.286793
20
9.345903
30
0.0
11
1.932856
21
9.345903
31
0.0
0
LINE
8
Layer_1
62
1
5
1ea
100
AcDbEntity
100
AcDbLine
10
1.932856
20
9.345903
30
0.0
11
1.932856
21
9.700233
31
0.0
0
LINE
8
Layer_1
62
1
5
1eb
100
AcDbEntity
100
AcDbLine
10
1.932856
20
9.700233
30
0.0
11
1.558446
21
9.700233
31
0.0
0
LINE
8
Layer_1
62
1
5
1ec
100
AcDbEntity
100
AcDbLine
10
1.558446
20
9.700233
30
0.0
11
1.558446
21
9.345903
31
0.0
0
LINE
8
Layer_1
62
1
5
1ed
100
AcDbEntity
100
AcDbLine
10
1.558446
20
9.345903
30
0.0
11
1.204509
21
9.345903
31
0.0
0
LINE
8
Layer_1
62
1
5
1ee
100
AcDbEntity
100
AcDbLine
10
1.204509
20
9.345903
30
0.0
11
1.204509
21
9.700233
31
0.0
0
LINE
8
Layer_1
62
1
5
1ef
100
AcDbEntity
100
AcDbLine
10
1.204509
20
9.700233
30
0.0
11
0.830100
21
9.700238
31
0.0
0
LINE
8
Layer_1
62
1
5
1f0
100
AcDbEntity
100
AcDbLine
10
0.830100
20
9.700238
30
0.0
11
0.830100
21
9.345903
31
0.0
0
LINE
8
Layer_1
62
1
5
1f1
100
AcDbEntity
100
AcDbLine
10
0.830100
20
9.345903
30
0.0
11
0.476163
21
9.345903
31
0.0
0
LINE
8
Layer_1
62
1
5
1f2
100
AcDbEntity
100
AcDbLine
10
9.561548
20
15.256969
30
0.0
11
9.561548
21
9.351458
31
0.0
0
LINE
8
Layer_1
62
1
5
1f3
100
AcDbEntity
100
AcDbLine
10
0.484872
20
15.256969
30
0.0
11
0.484872
21
14.109686
31
0.0
0
LINE
8
Layer_1
62
1
5
1f4
100
AcDbEntity
100
AcDbLine
10
0.484872
20
14.109686
30
0.0
11
2.661202
21
13.525474
31
0.0
0
LINE
8
Layer_1
62
1
5
1f5
100
AcDbEntity
100
AcDbLine
10
2.661202
20
13.525474
30
0.0
11
2.661202
21
11.082954
31
0.0
0
LINE
8
Layer_1
62
1
5
1f6
100
AcDbEntity
100
AcDbLine
10
2.661202
20
11.082954
30
0.0
11
0.484872
21
10.487639
31
0.0
0
LINE
8
Layer_1
62
1
5
1f7
100
AcDbEntity
100
AcDbLine
10
0.484872
20
10.487639
30
0.0
11
0.484872
21
9.351459
31
0.0
0
LINE
8
Layer_1
62
1
5
1f8
100
AcDbEntity
100
AcDbLine
10
3.248882
20
13.525488
30
0.0
11
3.248882
21
12.428225
31
0.0
0
LINE
8
Layer_1
62
1
5
1f9
100
AcDbEntity
100
AcDbLine
10
3.248882
20
12.428225
30
0.0
11
3.144620
21
12.428225
31
0.0
0
LINE
8
Layer_1
62
1
5
1fa
100
AcDbEntity
100
AcDbLine
10
3.144620
20
12.428225
30
0.0
11
3.144620
21
13.525474
31
0.0
0
LINE
8
Layer_1
62
1
5
1fb
100
AcDbEntity
100
AcDbLine
10
3.144620
20
13.525474
30
0.0
11
3.248882
21
13.525488
31
0.0
0
LINE
8
Layer_1
62
1
5
1fc
100
AcDbEntity
100
AcDbLine
10
3.248882
20
12.180200
30
0.0
11
3.248882
21
11.082937
31
0.0
0
LINE
8
Layer_1
62
1
5
1fd
100
AcDbEntity
100
AcDbLine
10
3.248882
20
11.082937
30
0.0
11
3.144620
21
11.082959
31
0.0
0
LINE
8
Layer_1
62
1
5
1fe
100
AcDbEntity
100
AcDbLine
10
3.144620
20
11.082959
30
0.0
11
3.144620
21
12.180205
31
0.0
0
LINE
8
Layer_1
62
1
5
1ff
100
AcDbEntity
100
AcDbLine
10
3.144620
20
12.180205
30
0.0
11
3.248882
21
12.180200
31
0.0
0
LINE
8
Layer_1
62
1
5
200
100
AcDbEntity
100
AcDbLine
10
4.093354
20
14.664042
30
0.0
11
4.093354
21
9.944381
31
0.0
0
LINE
8
Layer_1
62
1
5
201
100
AcDbEntity
100
AcDbLine
10
4.093354
20
9.944381
30
0.0
11
3.743771
21
9.944381
31
0.0
0
LINE
8
Layer_1
62
1
5
202
100
AcDbEntity
100
AcDbLine
10
3.743771
20
9.944381
30
0.0
11
3.743771
21
14.664042
31
0.0
0
LINE
8
Layer_1
62
1
5
203
100
AcDbEntity
100
AcDbLine
10
3.743771
20
14.664042
30
0.0
11
4.093354
21
14.664042
31
0.0
0
LINE
8
Layer_1
62
1
5
204
100
AcDbEntity
100
AcDbLine
10
5.546462
20
14.664042
30
0.0
11
5.546462
21
9.944381
31
0.0
0
LINE
8
Layer_1
62
1
5
205
100
AcDbEntity
100
AcDbLine
10
5.546462
20
9.944381
30
0.0
11
5.196879
21
9.944381
31
0.0
0
LINE
8
Layer_1
62
1
5
206
100
AcDbEntity
100
AcDbLine
10
5.196879
20
9.944381
30
0.0
11
5.196879
21
14.664042
31
0.0
0
LINE
8
Layer_1
62
1
5
207
100
AcDbEntity
100
AcDbLine
10
5.196879
20
14.664042
30
0.0
11
5.546462
21
14.664042
31
0.0
0
LINE
8
Layer_1
62
1
5
208
100
AcDbEntity
100
AcDbLine
10
6.999569
20
14.664042
30
0.0
11
6.999569
21
9.944381
31
0.0
0
LINE
8
Layer_1
62
1
5
209
100
AcDbEntity
100
AcDbLine
10
6.999569
20
9.944381
30
0.0
11
6.649986
21
9.944381
31
0.0
0
LINE
8
Layer_1
62
1
5
20a
100
AcDbEntity
100
AcDbLine
10
6.649986
20
9.944381
30
0.0
11
6.649986
21
14.664042
31
0.0
0
LINE
8
Layer_1
62
1
5
20b
100
AcDbEntity
100
AcDbLine
10
6.649986
20
14.664042
30
0.0
11
6.999569
21
14.664042
31
0.0
0
LINE
8
Layer_1
62
1
5
20c
100
AcDbEntity
100
AcDbLine
10
4.819908
20
14.664042
30
0.0
11
4.819908
21
9.944381
31
0.0
0
LINE
8
Layer_1
62
1
5
20d
100
AcDbEntity
100
AcDbLine
10
4.819908
20
9.944381
30
0.0
11
4.470325
21
9.944381
31
0.0
0
LINE
8
Layer_1
62
1
5
20e
100
AcDbEntity
100
AcDbLine
10
4.470325
20
9.944381
30
0.0
11
4.470325
21
14.664042
31
0.0
0
LINE
8
Layer_1
62
1
5
20f
100
AcDbEntity
100
AcDbLine
10
4.470325
20
14.664042
30
0.0
11
4.819908
21
14.664042
31
0.0
0
LINE
8
Layer_1
62
1
5
210
100
AcDbEntity
100
AcDbLine
10
7.726123
20
14.664042
30
0.0
11
7.726123
21
9.944381
31
0.0
0
LINE
8
Layer_1
62
1
5
211
100
AcDbEntity
100
AcDbLine
10
7.726123
20
9.944381
30
0.0
11
7.376540
21
9.944381
31
0.0
0
LINE
8
Layer_1
62
1
5
212
100
AcDbEntity
100
AcDbLine
10
7.376540
20
9.944381
30
0.0
11
7.376540
21
14.664042
31
0.0
0
LINE
8
Layer_1
62
1
5
213
100
AcDbEntity
100
AcDbLine
10
7.376540
20
14.664042
30
0.0
11
7.726123
21
14.664042
31
0.0
0
LINE
8
Layer_1
62
1
5
214
100
AcDbEntity
100
AcDbLine
10
6.273015
20
14.664042
30
0.0
11
6.273015
21
9.944381
31
0.0
0
LINE
8
Layer_1
62
1
5
215
100
AcDbEntity
100
AcDbLine
10
6.273015
20
9.944381
30
0.0
11
5.923432
21
9.944381
31
0.0
0
LINE
8
Layer_1
62
1
5
216
100
AcDbEntity
100
AcDbLine
10
5.923432
20
9.944381
30
0.0
11
5.923432
21
14.664042
31
0.0
0
LINE
8
Layer_1
62
1
5
217
100
AcDbEntity
100
AcDbLine
10
5.923432
20
14.664042
30
0.0
11
6.273015
21
14.664042
31
0.0
0
LINE
8
Layer_1
62
1
5
218
100
AcDbEntity
100
AcDbLine
10
9.179231
20
14.664042
30
0.0
11
9.179231
21
9.944381
31
0.0
0
LINE
8
Layer_1
62
1
5
219
100
AcDbEntity
100
AcDbLine
10
9.179231
20
9.944381
30
0.0
11
8.829648
21
9.944381
31
0.0
0
LINE
8
Layer_1
62
1
5
21a
100
AcDbEntity
100
AcDbLine
10
8.829648
20
9.944381
30
0.0
11
8.829648
21
14.664042
31
0.0
0
LINE
8
Layer_1
62
1
5
21b
100
AcDbEntity
100
AcDbLine
10
8.829648
20
14.664042
30
0.0
11
9.179231
21
14.664042
31
0.0
0
LINE
8
Layer_1
62
1
5
21c
100
AcDbEntity
100
AcDbLine
10
8.452677
20
14.664042
30
0.0
11
8.452677
21
9.944381
31
0.0
0
LINE
8
Layer_1
62
1
5
21d
100
AcDbEntity
100
AcDbLine
10
8.452677
20
9.944381
30
0.0
11
8.103094
21
9.944381
31
0.0
0
LINE
8
Layer_1
62
1
5
21e
100
AcDbEntity
100
AcDbLine
10
8.103094
20
9.944381
30
0.0
11
8.103094
21
14.664042
31
0.0
0
LINE
8
Layer_1
62
1
5
21f
100
AcDbEntity
100
AcDbLine
10
8.103094
20
14.664042
30
0.0
11
8.452677
21
14.664042
31
0.0
0
LINE
8
Layer_1
62
1
5
220
100
AcDbEntity
100
AcDbLine
10
19.209269
20
3.055673
30
0.0
11
18.854544
21
3.055673
31
0.0
0
LINE
8
Layer_1
62
1
5
221
100
AcDbEntity
100
AcDbLine
10
18.854544
20
3.055673
30
0.0
11
18.854544
21
2.701343
31
0.0
0
LINE
8
Layer_1
62
1
5
222
100
AcDbEntity
100
AcDbLine
10
18.854544
20
2.701343
30
0.0
11
18.480922
21
2.701343
31
0.0
0
LINE
8
Layer_1
62
1
5
223
100
AcDbEntity
100
AcDbLine
10
18.480922
20
2.701343
30
0.0
11
18.480922
21
3.055673
31
0.0
0
LINE
8
Layer_1
62
1
5
224
100
AcDbEntity
100
AcDbLine
10
18.480922
20
3.055673
30
0.0
11
18.126198
21
3.055673
31
0.0
0
LINE
8
Layer_1
62
1
5
225
100
AcDbEntity
100
AcDbLine
10
18.126198
20
3.055673
30
0.0
11
18.126198
21
2.701343
31
0.0
0
LINE
8
Layer_1
62
1
5
226
100
AcDbEntity
100
AcDbLine
10
18.126198
20
2.701343
30
0.0
11
17.752576
21
2.701343
31
0.0
0
LINE
8
Layer_1
62
1
5
227
100
AcDbEntity
100
AcDbLine
10
17.752576
20
2.701343
30
0.0
11
17.752576
21
3.055673
31
0.0
0
LINE
8
Layer_1
62
1
5
228
100
AcDbEntity
100
AcDbLine
10
17.752576
20
3.055673
30
0.0
11
17.397851
21
3.055673
31
0.0
0
LINE
8
Layer_1
62
1
5
229
100
AcDbEntity
100
AcDbLine
10
17.397851
20
3.055673
30
0.0
11
17.397851
21
2.701343
31
0.0
0
LINE
8
Layer_1
62
1
5
22a
100
AcDbEntity
100
AcDbLine
10
17.397851
20
2.701343
30
0.0
11
17.024229
21
2.701343
31
0.0
0
LINE
8
Layer_1
62
1
5
22b
100
AcDbEntity
100
AcDbLine
10
17.024229
20
2.701343
30
0.0
11
17.024229
21
3.055673
31
0.0
0
LINE
8
Layer_1
62
1
5
22c
100
AcDbEntity
100
AcDbLine
10
17.024229
20
3.055673
30
0.0
11
16.669504
21
3.055673
31
0.0
0
LINE
8
Layer_1
62
1
5
22d
100
AcDbEntity
100
AcDbLine
10
16.669504
20
3.055673
30
0.0
11
16.669504
21
2.701343
31
0.0
0
LINE
8
Layer_1
62
1
5
22e
100
AcDbEntity
100
AcDbLine
10
16.669504
20
2.701343
30
0.0
11
16.295883
21
2.701343
31
0.0
0
LINE
8
Layer_1
62
1
5
22f
100
AcDbEntity
100
AcDbLine
10
16.295883
20
2.701343
30
0.0
11
16.295883
21
3.055673
31
0.0
0
LINE
8
Layer_1
62
1
5
230
100
AcDbEntity
100
AcDbLine
10
16.295883
20
3.055673
30
0.0
11
15.941159
21
3.055673
31
0.0
0
LINE
8
Layer_1
62
1
5
231
100
AcDbEntity
100
AcDbLine
10
15.941159
20
3.055673
30
0.0
11
15.941159
21
2.701343
31
0.0
0
LINE
8
Layer_1
62
1
5
232
100
AcDbEntity
100
AcDbLine
10
15.941159
20
2.701343
30
0.0
11
15.567537
21
2.701343
31
0.0
0
LINE
8
Layer_1
62
1
5
233
100
AcDbEntity
100
AcDbLine
10
15.567537
20
2.701343
30
0.0
11
15.567537
21
3.055673
31
0.0
0
LINE
8
Layer_1
62
1
5
234
100
AcDbEntity
100
AcDbLine
10
15.567537
20
3.055673
30
0.0
11
15.212812
21
3.055673
31
0.0
0
LINE
8
Layer_1
62
1
5
235
100
AcDbEntity
100
AcDbLine
10
15.212812
20
3.055673
30
0.0
11
15.212812
21
2.701343
31
0.0
0
LINE
8
Layer_1
62
1
5
236
100
AcDbEntity
100
AcDbLine
10
15.212812
20
2.701343
30
0.0
11
14.839190
21
2.701343
31
0.0
0
LINE
8
Layer_1
62
1
5
237
100
AcDbEntity
100
AcDbLine
10
14.839190
20
2.701343
30
0.0
11
14.839190
21
3.055673
31
0.0
0
LINE
8
Layer_1
62
1
5
238
100
AcDbEntity
100
AcDbLine
10
14.839190
20
3.055673
30
0.0
11
14.484466
21
3.055673
31
0.0
0
LINE
8
Layer_1
62
1
5
239
100
AcDbEntity
100
AcDbLine
10
14.484466
20
3.055673
30
0.0
11
14.484466
21
2.701343
31
0.0
0
LINE
8
Layer_1
62
1
5
23a
100
AcDbEntity
100
AcDbLine
10
14.484466
20
2.701343
30
0.0
11
14.110843
21
2.701343
31
0.0
0
LINE
8
Layer_1
62
1
5
23b
100
AcDbEntity
100
AcDbLine
10
14.110843
20
2.701343
30
0.0
11
14.110843
21
3.055673
31
0.0
0
LINE
8
Layer_1
62
1
5
23c
100
AcDbEntity
100
AcDbLine
10
14.110843
20
3.055673
30
0.0
11
13.756119
21
3.055673
31
0.0
0
LINE
8
Layer_1
62
1
5
23d
100
AcDbEntity
100
AcDbLine
10
13.756119
20
3.055673
30
0.0
11
13.756119
21
2.701343
31
0.0
0
LINE
8
Layer_1
62
1
5
23e
100
AcDbEntity
100
AcDbLine
10
13.756119
20
2.701343
30
0.0
11
13.382497
21
2.701343
31
0.0
0
LINE
8
Layer_1
62
1
5
23f
100
AcDbEntity
100
AcDbLine
10
13.382497
20
2.701343
30
0.0
11
13.382497
21
3.055673
31
0.0
0
LINE
8
Layer_1
62
1
5
240
100
AcDbEntity
100
AcDbLine
10
13.382497
20
3.055673
30
0.0
11
13.027772
21
3.055673
31
0.0
0
LINE
8
Layer_1
62
1
5
241
100
AcDbEntity
100
AcDbLine
10
13.027772
20
3.055673
30
0.0
11
13.027772
21
2.701343
31
0.0
0
LINE
8
Layer_1
62
1
5
242
100
AcDbEntity
100
AcDbLine
10
13.027772
20
2.701343
30
0.0
11
12.654150
21
2.701343
31
0.0
0
LINE
8
Layer_1
62
1
5
243
100
AcDbEntity
100
AcDbLine
10
12.654150
20
2.701343
30
0.0
11
12.654150
21
3.055673
31
0.0
0
LINE
8
Layer_1
62
1
5
244
100
AcDbEntity
100
AcDbLine
10
12.654150
20
3.055673
30
0.0
11
12.299427
21
3.055673
31
0.0
0
LINE
8
Layer_1
62
1
5
245
100
AcDbEntity
100
AcDbLine
10
12.299427
20
3.055673
30
0.0
11
12.299427
21
2.701343
31
0.0
0
LINE
8
Layer_1
62
1
5
246
100
AcDbEntity
100
AcDbLine
10
12.299427
20
2.701343
30
0.0
11
11.925804
21
2.701343
31
0.0
0
LINE
8
Layer_1
62
1
5
247
100
AcDbEntity
100
AcDbLine
10
11.925804
20
2.701343
30
0.0
11
11.925804
21
3.055673
31
0.0
0
LINE
8
Layer_1
62
1
5
248
100
AcDbEntity
100
AcDbLine
10
11.925804
20
3.055673
30
0.0
11
11.571080
21
3.055673
31
0.0
0
LINE
8
Layer_1
62
1
5
249
100
AcDbEntity
100
AcDbLine
10
11.571080
20
3.055673
30
0.0
11
11.571080
21
2.701343
31
0.0
0
LINE
8
Layer_1
62
1
5
24a
100
AcDbEntity
100
AcDbLine
10
11.571080
20
2.701343
30
0.0
11
11.197458
21
2.701343
31
0.0
0
LINE
8
Layer_1
62
1
5
24b
100
AcDbEntity
100
AcDbLine
10
11.197458
20
2.701343
30
0.0
11
11.197458
21
3.055673
31
0.0
0
LINE
8
Layer_1
62
1
5
24c
100
AcDbEntity
100
AcDbLine
10
11.197458
20
3.055673
30
0.0
11
10.842734
21
3.055673
31
0.0
0
LINE
8
Layer_1
62
1
5
24d
100
AcDbEntity
100
AcDbLine
10
10.842734
20
3.055673
30
0.0
11
10.842734
21
2.701343
31
0.0
0
LINE
8
Layer_1
62
1
5
24e
100
AcDbEntity
100
AcDbLine
10
10.842734
20
2.701343
30
0.0
11
10.469112
21
2.701343
31
0.0
0
LINE
8
Layer_1
62
1
5
24f
100
AcDbEntity
100
AcDbLine
10
10.469112
20
2.701343
30
0.0
11
10.469112
21
3.055673
31
0.0
0
LINE
8
Layer_1
62
1
5
250
100
AcDbEntity
100
AcDbLine
10
10.469112
20
3.055673
30
0.0
11
10.114387
21
3.055673
31
0.0
0
LINE
8
Layer_1
62
1
5
251
100
AcDbEntity
100
AcDbLine
10
10.114387
20
8.252523
30
0.0
11
10.469112
21
8.252523
31
0.0
0
LINE
8
Layer_1
62
1
5
252
100
AcDbEntity
100
AcDbLine
10
10.469112
20
8.252523
30
0.0
11
10.469112
21
8.606854
31
0.0
0
LINE
8
Layer_1
62
1
5
253
100
AcDbEntity
100
AcDbLine
10
10.469112
20
8.606854
30
0.0
11
10.842734
21
8.606854
31
0.0
0
LINE
8
Layer_1
62
1
5
254
100
AcDbEntity
100
AcDbLine
10
10.842734
20
8.606854
30
0.0
11
10.842734
21
8.252523
31
0.0
0
LINE
8
Layer_1
62
1
5
255
100
AcDbEntity
100
AcDbLine
10
10.842734
20
8.252523
30
0.0
11
11.197458
21
8.252523
31
0.0
0
LINE
8
Layer_1
62
1
5
256
100
AcDbEntity
100
AcDbLine
10
11.197458
20
8.252523
30
0.0
11
11.197458
21
8.606854
31
0.0
0
LINE
8
Layer_1
62
1
5
257
100
AcDbEntity
100
AcDbLine
10
11.197458
20
8.606854
30
0.0
11
11.571080
21
8.606854
31
0.0
0
LINE
8
Layer_1
62
1
5
258
100
AcDbEntity
100
AcDbLine
10
11.571080
20
8.606854
30
0.0
11
11.571080
21
8.252523
31
0.0
0
LINE
8
Layer_1
62
1
5
259
100
AcDbEntity
100
AcDbLine
10
11.571080
20
8.252523
30
0.0
11
11.925804
21
8.252523
31
0.0
0
LINE
8
Layer_1
62
1
5
25a
100
AcDbEntity
100
AcDbLine
10
11.925804
20
8.252523
30
0.0
11
11.925804
21
8.606854
31
0.0
0
LINE
8
Layer_1
62
1
5
25b
100
AcDbEntity
100
AcDbLine
10
11.925804
20
8.606854
30
0.0
11
12.299427
21
8.606854
31
0.0
0
LINE
8
Layer_1
62
1
5
25c
100
AcDbEntity
100
AcDbLine
10
12.299427
20
8.606854
30
0.0
11
12.299427
21
8.252523
31
0.0
0
LINE
8
Layer_1
62
1
5
25d
100
AcDbEntity
100
AcDbLine
10
12.299427
20
8.252523
30
0.0
11
12.654151
21
8.252523
31
0.0
0
LINE
8
Layer_1
62
1
5
25e
100
AcDbEntity
100
AcDbLine
10
12.654151
20
8.252523
30
0.0
11
12.654151
21
8.606854
31
0.0
0
LINE
8
Layer_1
62
1
5
25f
100
AcDbEntity
100
AcDbLine
10
12.654151
20
8.606854
30
0.0
11
13.027772
21
8.606854
31
0.0
0
LINE
8
Layer_1
62
1
5
260
100
AcDbEntity
100
AcDbLine
10
13.027772
20
8.606854
30
0.0
11
13.027772
21
8.252523
31
0.0
0
LINE
8
Layer_1
62
1
5
261
100
AcDbEntity
100
AcDbLine
10
13.027772
20
8.252523
30
0.0
11
13.382497
21
8.252523
31
0.0
0
LINE
8
Layer_1
62
1
5
262
100
AcDbEntity
100
AcDbLine
10
13.382497
20
8.252523
30
0.0
11
13.382497
21
8.606854
31
0.0
0
LINE
8
Layer_1
62
1
5
263
100
AcDbEntity
100
AcDbLine
10
13.382497
20
8.606854
30
0.0
11
13.756119
21
8.606854
31
0.0
0
LINE
8
Layer_1
62
1
5
264
100
AcDbEntity
100
AcDbLine
10
13.756119
20
8.606854
30
0.0
11
13.756119
21
8.252523
31
0.0
0
LINE
8
Layer_1
62
1
5
265
100
AcDbEntity
100
AcDbLine
10
13.756119
20
8.252523
30
0.0
11
14.110843
21
8.252523
31
0.0
0
LINE
8
Layer_1
62
1
5
266
100
AcDbEntity
100
AcDbLine
10
14.110843
20
8.252523
30
0.0
11
14.110843
21
8.606854
31
0.0
0
LINE
8
Layer_1
62
1
5
267
100
AcDbEntity
100
AcDbLine
10
14.110843
20
8.606854
30
0.0
11
14.484466
21
8.606854
31
0.0
0
LINE
8
Layer_1
62
1
5
268
100
AcDbEntity
100
AcDbLine
10
14.484466
20
8.606854
30
0.0
11
14.484466
21
8.252523
31
0.0
0
LINE
8
Layer_1
62
1
5
269
100
AcDbEntity
100
AcDbLine
10
14.484466
20
8.252523
30
0.0
11
14.839190
21
8.252523
31
0.0
0
LINE
8
Layer_1
62
1
5
26a
100
AcDbEntity
100
AcDbLine
10
14.839190
20
8.252523
30
0.0
11
14.839190
21
8.606854
31
0.0
0
LINE
8
Layer_1
62
1
5
26b
100
AcDbEntity
100
AcDbLine
10
14.839190
20
8.606854
30
0.0
11
15.212812
21
8.606854
31
0.0
0
LINE
8
Layer_1
62
1
5
26c
100
AcDbEntity
100
AcDbLine
10
15.212812
20
8.606854
30
0.0
11
15.212812
21
8.252523
31
0.0
0
LINE
8
Layer_1
62
1
5
26d
100
AcDbEntity
100
AcDbLine
10
15.212812
20
8.252523
30
0.0
11
15.567537
21
8.252523
31
0.0
0
LINE
8
Layer_1
62
1
5
26e
100
AcDbEntity
100
AcDbLine
10
15.567537
20
8.252523
30
0.0
11
15.567537
21
8.606854
31
0.0
0
LINE
8
Layer_1
62
1
5
26f
100
AcDbEntity
100
AcDbLine
10
15.567537
20
8.606854
30
0.0
11
15.941159
21
8.606854
31
0.0
0
LINE
8
Layer_1
62
1
5
270
100
AcDbEntity
100
AcDbLine
10
15.941159
20
8.606854
30
0.0
11
15.941159
21
8.252523
31
0.0
0
LINE
8
Layer_1
62
1
5
271
100
AcDbEntity
100
AcDbLine
10
15.941159
20
8.252523
30
0.0
11
16.295883
21
8.252523
31
0.0
0
LINE
8
Layer_1
62
1
5
272
100
AcDbEntity
100
AcDbLine
10
16.295883
20
8.252523
30
0.0
11
16.295883
21
8.606854
31
0.0
0
LINE
8
Layer_1
62
1
5
273
100
AcDbEntity
100
AcDbLine
10
16.295883
20
8.606854
30
0.0
11
16.669504
21
8.606854
31
0.0
0
LINE
8
Layer_1
62
1
5
274
100
AcDbEntity
100
AcDbLine
10
16.669504
20
8.606854
30
0.0
11
16.669504
21
8.252523
31
0.0
0
LINE
8
Layer_1
62
1
5
275
100
AcDbEntity
100
AcDbLine
10
16.669504
20
8.252523
30
0.0
11
17.024229
21
8.252523
31
0.0
0
LINE
8
Layer_1
62
1
5
276
100
AcDbEntity
100
AcDbLine
10
17.024229
20
8.252523
30
0.0
11
17.024229
21
8.606854
31
0.0
0
LINE
8
Layer_1
62
1
5
277
100
AcDbEntity
100
AcDbLine
10
17.024229
20
8.606854
30
0.0
11
17.397851
21
8.606854
31
0.0
0
LINE
8
Layer_1
62
1
5
278
100
AcDbEntity
100
AcDbLine
10
17.397851
20
8.606854
30
0.0
11
17.397851
21
8.252523
31
0.0
0
LINE
8
Layer_1
62
1
5
279
100
AcDbEntity
100
AcDbLine
10
17.397851
20
8.252523
30
0.0
11
17.752576
21
8.252523
31
0.0
0
LINE
8
Layer_1
62
1
5
27a
100
AcDbEntity
100
AcDbLine
10
17.752576
20
8.252523
30
0.0
11
17.752576
21
8.606854
31
0.0
0
LINE
8
Layer_1
62
1
5
27b
100
AcDbEntity
100
AcDbLine
10
17.752576
20
8.606854
30
0.0
11
18.126198
21
8.606854
31
0.0
0
LINE
8
Layer_1
62
1
5
27c
100
AcDbEntity
100
AcDbLine
10
18.126198
20
8.606854
30
0.0
11
18.126198
21
8.252523
31
0.0
0
LINE
8
Layer_1
62
1
5
27d
100
AcDbEntity
100
AcDbLine
10
18.126198
20
8.252523
30
0.0
11
18.480922
21
8.252523
31
0.0
0
LINE
8
Layer_1
62
1
5
27e
100
AcDbEntity
100
AcDbLine
10
18.480922
20
8.252523
30
0.0
11
18.480922
21
8.606854
31
0.0
0
LINE
8
Layer_1
62
1
5
27f
100
AcDbEntity
100
AcDbLine
10
18.480922
20
8.606854
30
0.0
11
18.854544
21
8.606854
31
0.0
0
LINE
8
Layer_1
62
1
5
280
100
AcDbEntity
100
AcDbLine
10
18.854544
20
8.606854
30
0.0
11
18.854544
21
8.252523
31
0.0
0
LINE
8
Layer_1
62
1
5
281
100
AcDbEntity
100
AcDbLine
10
18.854544
20
8.252523
30
0.0
11
19.209269
21
8.252523
31
0.0
0
LINE
8
Layer_1
62
1
5
282
100
AcDbEntity
100
AcDbLine
10
19.204057
20
8.252523
30
0.0
11
19.204057
21
3.055673
31
0.0
0
LINE
8
Layer_1
62
1
5
283
100
AcDbEntity
100
AcDbLine
10
10.119599
20
8.252518
30
0.0
11
10.119599
21
7.465117
31
0.0
0
LINE
8
Layer_1
62
1
5
284
100
AcDbEntity
100
AcDbLine
10
10.119599
20
7.465117
30
0.0
11
12.299820
21
6.875393
31
0.0
0
LINE
8
Layer_1
62
1
5
285
100
AcDbEntity
100
AcDbLine
10
12.299820
20
6.875393
30
0.0
11
12.299820
21
4.432834
31
0.0
0
LINE
8
Layer_1
62
1
5
286
100
AcDbEntity
100
AcDbLine
10
12.299820
20
4.432834
30
0.0
11
10.119599
21
3.843070
31
0.0
0
LINE
8
Layer_1
62
1
5
287
100
AcDbEntity
100
AcDbLine
10
10.119599
20
3.843070
30
0.0
11
10.119599
21
3.055668
31
0.0
0
LINE
8
Layer_1
62
1
5
288
100
AcDbEntity
100
AcDbLine
10
12.887500
20
6.875374
30
0.0
11
12.887500
21
5.778110
31
0.0
0
LINE
8
Layer_1
62
1
5
289
100
AcDbEntity
100
AcDbLine
10
12.887500
20
5.778110
30
0.0
11
12.783238
21
5.778110
31
0.0
0
LINE
8
Layer_1
62
1
5
28a
100
AcDbEntity
100
AcDbLine
10
12.783238
20
5.778110
30
0.0
11
12.783238
21
6.875393
31
0.0
0
LINE
8
Layer_1
62
1
5
28b
100
AcDbEntity
100
AcDbLine
10
12.783238
20
6.875393
30
0.0
11
12.887500
21
6.875374
31
0.0
0
LINE
8
Layer_1
62
1
5
28c
100
AcDbEntity
100
AcDbLine
10
12.887500
20
5.530086
30
0.0
11
12.887500
21
4.432823
31
0.0
0
LINE
8
Layer_1
62
1
5
28d
100
AcDbEntity
100
AcDbLine
10
12.887500
20
4.432823
30
0.0
11
12.783238
21
4.432834
31
0.0
0
LINE
8
Layer_1
62
1
5
28e
100
AcDbEntity
100
AcDbLine
10
12.783238
20
4.432834
30
0.0
11
12.783238
21
5.530086
31
0.0
0
LINE
8
Layer_1
62
1
5
28f
100
AcDbEntity
100
AcDbLine
10
12.783238
20
5.530086
30
0.0
11
12.887500
21
5.530086
31
0.0
0
LINE
8
Layer_1
62
1
5
290
100
AcDbEntity
100
AcDbLine
10
13.731971
20
8.013929
30
0.0
11
13.731971
21
3.294267
31
0.0
0
LINE
8
Layer_1
62
1
5
291
100
AcDbEntity
100
AcDbLine
10
13.731971
20
3.294267
30
0.0
11
13.382388
21
3.294267
31
0.0
0
LINE
8
Layer_1
62
1
5
292
100
AcDbEntity
100
AcDbLine
10
13.382388
20
3.294267
30
0.0
11
13.382388
21
8.013929
31
0.0
0
LINE
8
Layer_1
62
1
5
293
100
AcDbEntity
100
AcDbLine
10
13.382388
20
8.013929
30
0.0
11
13.731971
21
8.013929
31
0.0
0
LINE
8
Layer_1
62
1
5
294
100
AcDbEntity
100
AcDbLine
10
15.185080
20
8.013929
30
0.0
11
15.185080
21
3.294268
31
0.0
0
LINE
8
Layer_1
62
1
5
295
100
AcDbEntity
100
AcDbLine
10
15.185080
20
3.294268
30
0.0
11
14.835497
21
3.294268
31
0.0
0
LINE
8
Layer_1
62
1
5
296
100
AcDbEntity
100
AcDbLine
10
14.835497
20
3.294268
30
0.0
11
14.835497
21
8.013929
31
0.0
0
LINE
8
Layer_1
62
1
5
297
100
AcDbEntity
100
AcDbLine
10
14.835497
20
8.013929
30
0.0
11
15.185080
21
8.013929
31
0.0
0
LINE
8
Layer_1
62
1
5
298
100
AcDbEntity
100
AcDbLine
10
16.638187
20
8.013929
30
0.0
11
16.638187
21
3.294268
31
0.0
0
LINE
8
Layer_1
62
1
5
299
100
AcDbEntity
100
AcDbLine
10
16.638187
20
3.294268
30
0.0
11
16.288604
21
3.294268
31
0.0
0
LINE
8
Layer_1
62
1
5
29a
100
AcDbEntity
100
AcDbLine
10
16.288604
20
3.294268
30
0.0
11
16.288604
21
8.013929
31
0.0
0
LINE
8
Layer_1
62
1
5
29b
100
AcDbEntity
100
AcDbLine
10
16.288604
20
8.013929
30
0.0
11
16.638187
21
8.013929
31
0.0
0
LINE
8
Layer_1
62
1
5
29c
100
AcDbEntity
100
AcDbLine
10
14.458526
20
8.013929
30
0.0
11
14.458526
21
3.294268
31
0.0
0
LINE
8
Layer_1
62
1
5
29d
100
AcDbEntity
100
AcDbLine
10
14.458526
20
3.294268
30
0.0
11
14.108942
21
3.294268
31
0.0
0
LINE
8
Layer_1
62
1
5
29e
100
AcDbEntity
100
AcDbLine
10
14.108942
20
3.294268
30
0.0
11
14.108942
21
8.013929
31
0.0
0
LINE
8
Layer_1
62
1
5
29f
100
AcDbEntity
100
AcDbLine
10
14.108942
20
8.013929
30
0.0
11
14.458526
21
8.013929
31
0.0
0
LINE
8
Layer_1
62
1
5
2a0
100
AcDbEntity
100
AcDbLine
10
17.364741
20
8.013929
30
0.0
11
17.364741
21
3.294268
31
0.0
0
LINE
8
Layer_1
62
1
5
2a1
100
AcDbEntity
100
AcDbLine
10
17.364741
20
3.294268
30
0.0
11
17.015158
21
3.294268
31
0.0
0
LINE
8
Layer_1
62
1
5
2a2
100
AcDbEntity
100
AcDbLine
10
17.015158
20
3.294268
30
0.0
11
17.015158
21
8.013929
31
0.0
0
LINE
8
Layer_1
62
1
5
2a3
100
AcDbEntity
100
AcDbLine
10
17.015158
20
8.013929
30
0.0
11
17.364741
21
8.013929
31
0.0
0
LINE
8
Layer_1
62
1
5
2a4
100
AcDbEntity
100
AcDbLine
10
15.911633
20
8.013929
30
0.0
11
15.911633
21
3.294268
31
0.0
0
LINE
8
Layer_1
62
1
5
2a5
100
AcDbEntity
100
AcDbLine
10
15.911633
20
3.294268
30
0.0
11
15.562050
21
3.294268
31
0.0
0
LINE
8
Layer_1
62
1
5
2a6
100
AcDbEntity
100
AcDbLine
10
15.562050
20
3.294268
30
0.0
11
15.562050
21
8.013929
31
0.0
0
LINE
8
Layer_1
62
1
5
2a7
100
AcDbEntity
100
AcDbLine
10
15.562050
20
8.013929
30
0.0
11
15.911633
21
8.013929
31
0.0
0
LINE
8
Layer_1
62
1
5
2a8
100
AcDbEntity
100
AcDbLine
10
18.817849
20
8.013929
30
0.0
11
18.817849
21
3.294268
31
0.0
0
LINE
8
Layer_1
62
1
5
2a9
100
AcDbEntity
100
AcDbLine
10
18.817849
20
3.294268
30
0.0
11
18.468266
21
3.294268
31
0.0
0
LINE
8
Layer_1
62
1
5
2aa
100
AcDbEntity
100
AcDbLine
10
18.468266
20
3.294268
30
0.0
11
18.468266
21
8.013929
31
0.0
0
LINE
8
Layer_1
62
1
5
2ab
100
AcDbEntity
100
AcDbLine
10
18.468266
20
8.013929
30
0.0
11
18.817849
21
8.013929
31
0.0
0
LINE
8
Layer_1
62
1
5
2ac
100
AcDbEntity
100
AcDbLine
10
18.091294
20
8.013929
30
0.0
11
18.091294
21
3.294268
31
0.0
0
LINE
8
Layer_1
62
1
5
2ad
100
AcDbEntity
100
AcDbLine
10
18.091294
20
3.294268
30
0.0
11
17.741712
21
3.294268
31
0.0
0
LINE
8
Layer_1
62
1
5
2ae
100
AcDbEntity
100
AcDbLine
10
17.741712
20
3.294268
30
0.0
11
17.741712
21
8.013929
31
0.0
0
LINE
8
Layer_1
62
1
5
2af
100
AcDbEntity
100
AcDbLine
10
17.741712
20
8.013929
30
0.0
11
18.091294
21
8.013929
31
0.0
0
LINE
8
Layer_1
62
1
5
2b0
100
AcDbEntity
100
AcDbLine
10
9.570651
20
3.055673
30
0.0
11
9.215927
21
3.055673
31
0.0
0
LINE
8
Layer_1
62
1
5
2b1
100
AcDbEntity
100
AcDbLine
10
9.215927
20
3.055673
30
0.0
11
9.215927
21
2.701343
31
0.0
0
LINE
8
Layer_1
62
1
5
2b2
100
AcDbEntity
100
AcDbLine
10
9.215927
20
2.701343
30
0.0
11
8.842305
21
2.701343
31
0.0
0
LINE
8
Layer_1
62
1
5
2b3
100
AcDbEntity
100
AcDbLine
10
8.842305
20
2.701343
30
0.0
11
8.842305
21
3.055673
31
0.0
0
LINE
8
Layer_1
62
1
5
2b4
100
AcDbEntity
100
AcDbLine
10
8.842305
20
3.055673
30
0.0
11
8.487580
21
3.055673
31
0.0
0
LINE
8
Layer_1
62
1
5
2b5
100
AcDbEntity
100
AcDbLine
10
8.487580
20
3.055673
30
0.0
11
8.487580
21
2.701343
31
0.0
0
LINE
8
Layer_1
62
1
5
2b6
100
AcDbEntity
100
AcDbLine
10
8.487580
20
2.701343
30
0.0
11
8.113958
21
2.701343
31
0.0
0
LINE
8
Layer_1
62
1
5
2b7
100
AcDbEntity
100
AcDbLine
10
8.113958
20
2.701343
30
0.0
11
8.113958
21
3.055673
31
0.0
0
LINE
8
Layer_1
62
1
5
2b8
100
AcDbEntity
100
AcDbLine
10
8.113958
20
3.055673
30
0.0
11
7.759234
21
3.055673
31
0.0
0
LINE
8
Layer_1
62
1
5
2b9
100
AcDbEntity
100
AcDbLine
10
7.759234
20
3.055673
30
0.0
11
7.759234
21
2.701343
31
0.0
0
LINE
8
Layer_1
62
1
5
2ba
100
AcDbEntity
100
AcDbLine
10
7.759234
20
2.701343
30
0.0
11
7.385612
21
2.701343
31
0.0
0
LINE
8
Layer_1
62
1
5
2bb
100
AcDbEntity
100
AcDbLine
10
7.385612
20
2.701343
30
0.0
11
7.385612
21
3.055673
31
0.0
0
LINE
8
Layer_1
62
1
5
2bc
100
AcDbEntity
100
AcDbLine
10
7.385612
20
3.055673
30
0.0
11
7.030887
21
3.055673
31
0.0
0
LINE
8
Layer_1
62
1
5
2bd
100
AcDbEntity
100
AcDbLine
10
7.030887
20
3.055673
30
0.0
11
7.030887
21
2.701343
31
0.0
0
LINE
8
Layer_1
62
1
5
2be
100
AcDbEntity
100
AcDbLine
10
7.030887
20
2.701343
30
0.0
11
6.657265
21
2.701343
31
0.0
0
LINE
8
Layer_1
62
1
5
2bf
100
AcDbEntity
100
AcDbLine
10
6.657265
20
2.701343
30
0.0
11
6.657265
21
3.055673
31
0.0
0
LINE
8
Layer_1
62
1
5
2c0
100
AcDbEntity
100
AcDbLine
10
6.657265
20
3.055673
30
0.0
11
6.302541
21
3.055673
31
0.0
0
LINE
8
Layer_1
62
1
5
2c1
100
AcDbEntity
100
AcDbLine
10
6.302541
20
3.055673
30
0.0
11
6.302541
21
2.701343
31
0.0
0
LINE
8
Layer_1
62
1
5
2c2
100
AcDbEntity
100
AcDbLine
10
6.302541
20
2.701343
30
0.0
11
5.928919
21
2.701343
31
0.0
0
LINE
8
Layer_1
62
1
5
2c3
100
AcDbEntity
100
AcDbLine
10
5.928919
20
2.701343
30
0.0
11
5.928919
21
3.055673
31
0.0
0
LINE
8
Layer_1
62
1
5
2c4
100
AcDbEntity
100
AcDbLine
10
5.928919
20
3.055673
30
0.0
11
5.574194
21
3.055673
31
0.0
0
LINE
8
Layer_1
62
1
5
2c5
100
AcDbEntity
100
AcDbLine
10
5.574194
20
3.055673
30
0.0
11
5.574194
21
2.701343
31
0.0
0
LINE
8
Layer_1
62
1
5
2c6
100
AcDbEntity
100
AcDbLine
10
5.574194
20
2.701343
30
0.0
11
5.200572
21
2.701343
31
0.0
0
LINE
8
Layer_1
62
1
5
2c7
100
AcDbEntity
100
AcDbLine
10
5.200572
20
2.701343
30
0.0
11
5.200572
21
3.055673
31
0.0
0
LINE
8
Layer_1
62
1
5
2c8
100
AcDbEntity
100
AcDbLine
10
5.200572
20
3.055673
30
0.0
11
4.845848
21
3.055673
31
0.0
0
LINE
8
Layer_1
62
1
5
2c9
100
AcDbEntity
100
AcDbLine
10
4.845848
20
3.055673
30
0.0
11
4.845848
21
2.701343
31
0.0
0
LINE
8
Layer_1
62
1
5
2ca
100
AcDbEntity
100
AcDbLine
10
4.845848
20
2.701343
30
0.0
11
4.472226
21
2.701343
31
0.0
0
LINE
8
Layer_1
62
1
5
2cb
100
AcDbEntity
100
AcDbLine
10
4.472226
20
2.701343
30
0.0
11
4.472226
21
3.055673
31
0.0
0
LINE
8
Layer_1
62
1
5
2cc
100
AcDbEntity
100
AcDbLine
10
4.472226
20
3.055673
30
0.0
11
4.117501
21
3.055673
31
0.0
0
LINE
8
Layer_1
62
1
5
2cd
100
AcDbEntity
100
AcDbLine
10
4.117501
20
3.055673
30
0.0
11
4.117501
21
2.701343
31
0.0
0
LINE
8
Layer_1
62
1
5
2ce
100
AcDbEntity
100
AcDbLine
10
4.117501
20
2.701343
30
0.0
11
3.743879
21
2.701343
31
0.0
0
LINE
8
Layer_1
62
1
5
2cf
100
AcDbEntity
100
AcDbLine
10
3.743879
20
2.701343
30
0.0
11
3.743879
21
3.055673
31
0.0
0
LINE
8
Layer_1
62
1
5
2d0
100
AcDbEntity
100
AcDbLine
10
3.743879
20
3.055673
30
0.0
11
3.389155
21
3.055673
31
0.0
0
LINE
8
Layer_1
62
1
5
2d1
100
AcDbEntity
100
AcDbLine
10
3.389155
20
3.055673
30
0.0
11
3.389155
21
2.701343
31
0.0
0
LINE
8
Layer_1
62
1
5
2d2
100
AcDbEntity
100
AcDbLine
10
3.389155
20
2.701343
30
0.0
11
3.015533
21
2.701343
31
0.0
0
LINE
8
Layer_1
62
1
5
2d3
100
AcDbEntity
100
AcDbLine
10
3.015533
20
2.701343
30
0.0
11
3.015533
21
3.055673
31
0.0
0
LINE
8
Layer_1
62
1
5
2d4
100
AcDbEntity
100
AcDbLine
10
3.015533
20
3.055673
30
0.0
11
2.660809
21
3.055673
31
0.0
0
LINE
8
Layer_1
62
1
5
2d5
100
AcDbEntity
100
AcDbLine
10
2.660809
20
3.055673
30
0.0
11
2.660809
21
2.701343
31
0.0
0
LINE
8
Layer_1
62
1
5
2d6
100
AcDbEntity
100
AcDbLine
10
2.660809
20
2.701343
30
0.0
11
2.287186
21
2.701343
31
0.0
0
LINE
8
Layer_1
62
1
5
2d7
100
AcDbEntity
100
AcDbLine
10
2.287186
20
2.701343
30
0.0
11
2.287186
21
3.055673
31
0.0
0
LINE
8
Layer_1
62
1
5
2d8
100
AcDbEntity
100
AcDbLine
10
2.287186
20
3.055673
30
0.0
11
1.932462
21
3.055673
31
0.0
0
LINE
8
Layer_1
62
1
5
2d9
100
AcDbEntity
100
AcDbLine
10
1.932462
20
3.055673
30
0.0
11
1.932462
21
2.701343
31
0.0
0
LINE
8
Layer_1
62
1
5
2da
100
AcDbEntity
100
AcDbLine
10
1.932462
20
2.701343
30
0.0
11
1.558840
21
2.701343
31
0.0
0
LINE
8
Layer_1
62
1
5
2db
100
AcDbEntity
100
AcDbLine
10
1.558840
20
2.701343
30
0.0
11
1.558840
21
3.055673
31
0.0
0
LINE
8
Layer_1
62
1
5
2dc
100
AcDbEntity
100
AcDbLine
10
1.558840
20
3.055673
30
0.0
11
1.204116
21
3.055673
31
0.0
0
LINE
8
Layer_1
62
1
5
2dd
100
AcDbEntity
100
AcDbLine
10
1.204116
20
3.055673
30
0.0
11
1.204116
21
2.701343
31
0.0
0
LINE
8
Layer_1
62
1
5
2de
100
AcDbEntity
100
AcDbLine
10
1.204116
20
2.701343
30
0.0
11
0.830494
21
2.701343
31
0.0
0
LINE
8
Layer_1
62
1
5
2df
100
AcDbEntity
100
AcDbLine
10
0.830494
20
2.701343
30
0.0
11
0.830494
21
3.055673
31
0.0
0
LINE
8
Layer_1
62
1
5
2e0
100
AcDbEntity
100
AcDbLine
10
0.830494
20
3.055673
30
0.0
11
0.475769
21
3.055673
31
0.0
0
LINE
8
Layer_1
62
1
5
2e1
100
AcDbEntity
100
AcDbLine
10
0.475769
20
8.252523
30
0.0
11
0.830494
21
8.252523
31
0.0
0
LINE
8
Layer_1
62
1
5
2e2
100
AcDbEntity
100
AcDbLine
10
0.830494
20
8.252523
30
0.0
11
0.830494
21
8.606854
31
0.0
0
LINE
8
Layer_1
62
1
5
2e3
100
AcDbEntity
100
AcDbLine
10
0.830494
20
8.606854
30
0.0
11
1.204116
21
8.606854
31
0.0
0
LINE
8
Layer_1
62
1
5
2e4
100
AcDbEntity
100
AcDbLine
10
1.204116
20
8.606854
30
0.0
11
1.204116
21
8.252523
31
0.0
0
LINE
8
Layer_1
62
1
5
2e5
100
AcDbEntity
100
AcDbLine
10
1.204116
20
8.252523
30
0.0
11
1.558840
21
8.252523
31
0.0
0
LINE
8
Layer_1
62
1
5
2e6
100
AcDbEntity
100
AcDbLine
10
1.558840
20
8.252523
30
0.0
11
1.558840
21
8.606854
31
0.0
0
LINE
8
Layer_1
62
1
5
2e7
100
AcDbEntity
100
AcDbLine
10
1.558840
20
8.606854
30
0.0
11
1.932462
21
8.606854
31
0.0
0
LINE
8
Layer_1
62
1
5
2e8
100
AcDbEntity
100
AcDbLine
10
1.932462
20
8.606854
30
0.0
11
1.932462
21
8.252523
31
0.0
0
LINE
8
Layer_1
62
1
5
2e9
100
AcDbEntity
100
AcDbLine
10
1.932462
20
8.252523
30
0.0
11
2.287186
21
8.252523
31
0.0
0
LINE
8
Layer_1
62
1
5
2ea
100
AcDbEntity
100
AcDbLine
10
2.287186
20
8.252523
30
0.0
11
2.287186
21
8.606854
31
0.0
0
LINE
8
Layer_1
62
1
5
2eb
100
AcDbEntity
100
AcDbLine
10
2.287186
20
8.606854
30
0.0
11
2.660809
21
8.606854
31
0.0
0
LINE
8
Layer_1
62
1
5
2ec
100
AcDbEntity
100
AcDbLine
10
2.660809
20
8.606854
30
0.0
11
2.660809
21
8.252523
31
0.0
0
LINE
8
Layer_1
62
1
5
2ed
100
AcDbEntity
100
AcDbLine
10
2.660809
20
8.252523
30
0.0
11
3.015533
21
8.252523
31
0.0
0
LINE
8
Layer_1
62
1
5
2ee
100
AcDbEntity
100
AcDbLine
10
3.015533
20
8.252523
30
0.0
11
3.015533
21
8.606854
31
0.0
0
LINE
8
Layer_1
62
1
5
2ef
100
AcDbEntity
100
AcDbLine
10
3.015533
20
8.606854
30
0.0
11
3.389155
21
8.606854
31
0.0
0
LINE
8
Layer_1
62
1
5
2f0
100
AcDbEntity
100
AcDbLine
10
3.389155
20
8.606854
30
0.0
11
3.389155
21
8.252523
31
0.0
0
LINE
8
Layer_1
62
1
5
2f1
100
AcDbEntity
100
AcDbLine
10
3.389155
20
8.252523
30
0.0
11
3.743879
21
8.252523
31
0.0
0
LINE
8
Layer_1
62
1
5
2f2
100
AcDbEntity
100
AcDbLine
10
3.743879
20
8.252523
30
0.0
11
3.743879
21
8.606854
31
0.0
0
LINE
8
Layer_1
62
1
5
2f3
100
AcDbEntity
100
AcDbLine
10
3.743879
20
8.606854
30
0.0
11
4.117501
21
8.606854
31
0.0
0
LINE
8
Layer_1
62
1
5
2f4
100
AcDbEntity
100
AcDbLine
10
4.117501
20
8.606854
30
0.0
11
4.117501
21
8.252523
31
0.0
0
LINE
8
Layer_1
62
1
5
2f5
100
AcDbEntity
100
AcDbLine
10
4.117501
20
8.252523
30
0.0
11
4.472226
21
8.252523
31
0.0
0
LINE
8
Layer_1
62
1
5
2f6
100
AcDbEntity
100
AcDbLine
10
4.472226
20
8.252523
30
0.0
11
4.472226
21
8.606854
31
0.0
0
LINE
8
Layer_1
62
1
5
2f7
100
AcDbEntity
100
AcDbLine
10
4.472226
20
8.606854
30
0.0
11
4.845848
21
8.606854
31
0.0
0
LINE
8
Layer_1
62
1
5
2f8
100
AcDbEntity
100
AcDbLine
10
4.845848
20
8.606854
30
0.0
11
4.845848
21
8.252523
31
0.0
0
LINE
8
Layer_1
62
1
5
2f9
100
AcDbEntity
100
AcDbLine
10
4.845848
20
8.252523
30
0.0
11
5.200572
21
8.252523
31
0.0
0
LINE
8
Layer_1
62
1
5
2fa
100
AcDbEntity
100
AcDbLine
10
5.200572
20
8.252523
30
0.0
11
5.200572
21
8.606854
31
0.0
0
LINE
8
Layer_1
62
1
5
2fb
100
AcDbEntity
100
AcDbLine
10
5.200572
20
8.606854
30
0.0
11
5.574194
21
8.606854
31
0.0
0
LINE
8
Layer_1
62
1
5
2fc
100
AcDbEntity
100
AcDbLine
10
5.574194
20
8.606854
30
0.0
11
5.574194
21
8.252523
31
0.0
0
LINE
8
Layer_1
62
1
5
2fd
100
AcDbEntity
100
AcDbLine
10
5.574194
20
8.252523
30
0.0
11
5.928919
21
8.252523
31
0.0
0
LINE
8
Layer_1
62
1
5
2fe
100
AcDbEntity
100
AcDbLine
10
5.928919
20
8.252523
30
0.0
11
5.928919
21
8.606854
31
0.0
0
LINE
8
Layer_1
62
1
5
2ff
100
AcDbEntity
100
AcDbLine
10
5.928919
20
8.606854
30
0.0
11
6.302541
21
8.606854
31
0.0
0
LINE
8
Layer_1
62
1
5
300
100
AcDbEntity
100
AcDbLine
10
6.302541
20
8.606854
30
0.0
11
6.302541
21
8.252523
31
0.0
0
LINE
8
Layer_1
62
1
5
301
100
AcDbEntity
100
AcDbLine
10
6.302541
20
8.252523
30
0.0
11
6.657265
21
8.252523
31
0.0
0
LINE
8
Layer_1
62
1
5
302
100
AcDbEntity
100
AcDbLine
10
6.657265
20
8.252523
30
0.0
11
6.657265
21
8.606854
31
0.0
0
LINE
8
Layer_1
62
1
5
303
100
AcDbEntity
100
AcDbLine
10
6.657265
20
8.606854
30
0.0
11
7.030887
21
8.606854
31
0.0
0
LINE
8
Layer_1
62
1
5
304
100
AcDbEntity
100
AcDbLine
10
7.030887
20
8.606854
30
0.0
11
7.030887
21
8.252523
31
0.0
0
LINE
8
Layer_1
62
1
5
305
100
AcDbEntity
100
AcDbLine
10
7.030887
20
8.252523
30
0.0
11
7.385612
21
8.252523
31
0.0
0
LINE
8
Layer_1
62
1
5
306
100
AcDbEntity
100
AcDbLine
10
7.385612
20
8.252523
30
0.0
11
7.385612
21
8.606854
31
0.0
0
LINE
8
Layer_1
62
1
5
307
100
AcDbEntity
100
AcDbLine
10
7.385612
20
8.606854
30
0.0
11
7.759234
21
8.606854
31
0.0
0
LINE
8
Layer_1
62
1
5
308
100
AcDbEntity
100
AcDbLine
10
7.759234
20
8.606854
30
0.0
11
7.759234
21
8.252523
31
0.0
0
LINE
8
Layer_1
62
1
5
309
100
AcDbEntity
100
AcDbLine
10
7.759234
20
8.252523
30
0.0
11
8.113958
21
8.252523
31
0.0
0
LINE
8
Layer_1
62
1
5
30a
100
AcDbEntity
100
AcDbLine
10
8.113958
20
8.252523
30
0.0
11
8.113958
21
8.606854
31
0.0
0
LINE
8
Layer_1
62
1
5
30b
100
AcDbEntity
100
AcDbLine
10
8.113958
20
8.606854
30
0.0
11
8.487580
21
8.606854
31
0.0
0
LINE
8
Layer_1
62
1
5
30c
100
AcDbEntity
100
AcDbLine
10
8.487580
20
8.606854
30
0.0
11
8.487580
21
8.252523
31
0.0
0
LINE
8
Layer_1
62
1
5
30d
100
AcDbEntity
100
AcDbLine
10
8.487580
20
8.252523
30
0.0
11
8.842305
21
8.252523
31
0.0
0
LINE
8
Layer_1
62
1
5
30e
100
AcDbEntity
100
AcDbLine
10
8.842305
20
8.252523
30
0.0
11
8.842305
21
8.606854
31
0.0
0
LINE
8
Layer_1
62
1
5
30f
100
AcDbEntity
100
AcDbLine
10
8.842305
20
8.606854
30
0.0
11
9.215927
21
8.606854
31
0.0
0
LINE
8
Layer_1
62
1
5
310
100
AcDbEntity
100
AcDbLine
10
9.215927
20
8.606854
30
0.0
11
9.215927
21
8.252523
31
0.0
0
LINE
8
Layer_1
62
1
5
311
100
AcDbEntity
100
AcDbLine
10
9.215927
20
8.252523
30
0.0
11
9.570651
21
8.252523
31
0.0
0
LINE
8
Layer_1
62
1
5
312
100
AcDbEntity
100
AcDbLine
10
9.565439
20
8.252523
30
0.0
11
9.565439
21
3.055673
31
0.0
0
LINE
8
Layer_1
62
1
5
313
100
AcDbEntity
100
AcDbLine
10
0.480981
20
8.252518
30
0.0
11
0.480981
21
7.465117
31
0.0
0
LINE
8
Layer_1
62
1
5
314
100
AcDbEntity
100
AcDbLine
10
0.480981
20
7.465117
30
0.0
11
2.661202
21
6.875393
31
0.0
0
LINE
8
Layer_1
62
1
5
315
100
AcDbEntity
100
AcDbLine
10
2.661202
20
6.875393
30
0.0
11
2.661202
21
4.432834
31
0.0
0
LINE
8
Layer_1
62
1
5
316
100
AcDbEntity
100
AcDbLine
10
2.661202
20
4.432834
30
0.0
11
0.480981
21
3.843070
31
0.0
0
LINE
8
Layer_1
62
1
5
317
100
AcDbEntity
100
AcDbLine
10
0.480981
20
3.843070
30
0.0
11
0.480981
21
3.055668
31
0.0
0
LINE
8
Layer_1
62
1
5
318
100
AcDbEntity
100
AcDbLine
10
3.248882
20
6.875374
30
0.0
11
3.248882
21
5.778110
31
0.0
0
LINE
8
Layer_1
62
1
5
319
100
AcDbEntity
100
AcDbLine
10
3.248882
20
5.778110
30
0.0
11
3.144620
21
5.778110
31
0.0
0
LINE
8
Layer_1
62
1
5
31a
100
AcDbEntity
100
AcDbLine
10
3.144620
20
5.778110
30
0.0
11
3.144620
21
6.875393
31
0.0
0
LINE
8
Layer_1
62
1
5
31b
100
AcDbEntity
100
AcDbLine
10
3.144620
20
6.875393
30
0.0
11
3.248882
21
6.875374
31
0.0
0
LINE
8
Layer_1
62
1
5
31c
100
AcDbEntity
100
AcDbLine
10
3.248882
20
5.530086
30
0.0
11
3.248882
21
4.432823
31
0.0
0
LINE
8
Layer_1
62
1
5
31d
100
AcDbEntity
100
AcDbLine
10
3.248882
20
4.432823
30
0.0
11
3.144620
21
4.432834
31
0.0
0
LINE
8
Layer_1
62
1
5
31e
100
AcDbEntity
100
AcDbLine
10
3.144620
20
4.432834
30
0.0
11
3.144620
21
5.530086
31
0.0
0
LINE
8
Layer_1
62
1
5
31f
100
AcDbEntity
100
AcDbLine
10
3.144620
20
5.530086
30
0.0
11
3.248882
21
5.530086
31
0.0
0
LINE
8
Layer_1
62
1
5
320
100
AcDbEntity
100
AcDbLine
10
4.093354
20
8.013929
30
0.0
11
4.093354
21
3.294267
31
0.0
0
LINE
8
Layer_1
62
1
5
321
100
AcDbEntity
100
AcDbLine
10
4.093354
20
3.294267
30
0.0
11
3.743771
21
3.294267
31
0.0
0
LINE
8
Layer_1
62
1
5
322
100
AcDbEntity
100
AcDbLine
10
3.743771
20
3.294267
30
0.0
11
3.743771
21
8.013929
31
0.0
0
LINE
8
Layer_1
62
1
5
323
100
AcDbEntity
100
AcDbLine
10
3.743771
20
8.013929
30
0.0
11
4.093354
21
8.013929
31
0.0
0
LINE
8
Layer_1
62
1
5
324
100
AcDbEntity
100
AcDbLine
10
5.546462
20
8.013929
30
0.0
11
5.546462
21
3.294268
31
0.0
0
LINE
8
Layer_1
62
1
5
325
100
AcDbEntity
100
AcDbLine
10
5.546462
20
3.294268
30
0.0
11
5.196879
21
3.294268
31
0.0
0
LINE
8
Layer_1
62
1
5
326
100
AcDbEntity
100
AcDbLine
10
5.196879
20
3.294268
30
0.0
11
5.196879
21
8.013929
31
0.0
0
LINE
8
Layer_1
62
1
5
327
100
AcDbEntity
100
AcDbLine
10
5.196879
20
8.013929
30
0.0
11
5.546462
21
8.013929
31
0.0
0
LINE
8
Layer_1
62
1
5
328
100
AcDbEntity
100
AcDbLine
10
6.999569
20
8.013929
30
0.0
11
6.999569
21
3.294268
31
0.0
0
LINE
8
Layer_1
62
1
5
329
100
AcDbEntity
100
AcDbLine
10
6.999569
20
3.294268
30
0.0
11
6.649986
21
3.294268
31
0.0
0
LINE
8
Layer_1
62
1
5
32a
100
AcDbEntity
100
AcDbLine
10
6.649986
20
3.294268
30
0.0
11
6.649986
21
8.013929
31
0.0
0
LINE
8
Layer_1
62
1
5
32b
100
AcDbEntity
100
AcDbLine
10
6.649986
20
8.013929
30
0.0
11
6.999569
21
8.013929
31
0.0
0
LINE
8
Layer_1
62
1
5
32c
100
AcDbEntity
100
AcDbLine
10
4.819908
20
8.013929
30
0.0
11
4.819908
21
3.294268
31
0.0
0
LINE
8
Layer_1
62
1
5
32d
100
AcDbEntity
100
AcDbLine
10
4.819908
20
3.294268
30
0.0
11
4.470325
21
3.294268
31
0.0
0
LINE
8
Layer_1
62
1
5
32e
100
AcDbEntity
100
AcDbLine
10
4.470325
20
3.294268
30
0.0
11
4.470325
21
8.013929
31
0.0
0
LINE
8
Layer_1
62
1
5
32f
100
AcDbEntity
100
AcDbLine
10
4.470325
20
8.013929
30
0.0
11
4.819908
21
8.013929
31
0.0
0
LINE
8
Layer_1
62
1
5
330
100
AcDbEntity
100
AcDbLine
10
7.726123
20
8.013929
30
0.0
11
7.726123
21
3.294268
31
0.0
0
LINE
8
Layer_1
62
1
5
331
100
AcDbEntity
100
AcDbLine
10
7.726123
20
3.294268
30
0.0
11
7.376540
21
3.294268
31
0.0
0
LINE
8
Layer_1
62
1
5
332
100
AcDbEntity
100
AcDbLine
10
7.376540
20
3.294268
30
0.0
11
7.376540
21
8.013929
31
0.0
0
LINE
8
Layer_1
62
1
5
333
100
AcDbEntity
100
AcDbLine
10
7.376540
20
8.013929
30
0.0
11
7.726123
21
8.013929
31
0.0
0
LINE
8
Layer_1
62
1
5
334
100
AcDbEntity
100
AcDbLine
10
6.273015
20
8.013929
30
0.0
11
6.273015
21
3.294268
31
0.0
0
LINE
8
Layer_1
62
1
5
335
100
AcDbEntity
100
AcDbLine
10
6.273015
20
3.294268
30
0.0
11
5.923432
21
3.294268
31
0.0
0
LINE
8
Layer_1
62
1
5
336
100
AcDbEntity
100
AcDbLine
10
5.923432
20
3.294268
30
0.0
11
5.923432
21
8.013929
31
0.0
0
LINE
8
Layer_1
62
1
5
337
100
AcDbEntity
100
AcDbLine
10
5.923432
20
8.013929
30
0.0
11
6.273015
21
8.013929
31
0.0
0
LINE
8
Layer_1
62
1
5
338
100
AcDbEntity
100
AcDbLine
10
9.179231
20
8.013929
30
0.0
11
9.179231
21
3.294268
31
0.0
0
LINE
8
Layer_1
62
1
5
339
100
AcDbEntity
100
AcDbLine
10
9.179231
20
3.294268
30
0.0
11
8.829648
21
3.294268
31
0.0
0
LINE
8
Layer_1
62
1
5
33a
100
AcDbEntity
100
AcDbLine
10
8.829648
20
3.294268
30
0.0
11
8.829648
21
8.013929
31
0.0
0
LINE
8
Layer_1
62
1
5
33b
100
AcDbEntity
100
AcDbLine
10
8.829648
20
8.013929
30
0.0
11
9.179231
21
8.013929
31
0.0
0
LINE
8
Layer_1
62
1
5
33c
100
AcDbEntity
100
AcDbLine
10
8.452677
20
8.013929
30
0.0
11
8.452677
21
3.294268
31
0.0
0
LINE
8
Layer_1
62
1
5
33d
100
AcDbEntity
100
AcDbLine
10
8.452677
20
3.294268
30
0.0
11
8.103094
21
3.294268
31
0.0
0
LINE
8
Layer_1
62
1
5
33e
100
AcDbEntity
100
AcDbLine
10
8.103094
20
3.294268
30
0.0
11
8.103094
21
8.013929
31
0.0
0
LINE
8
Layer_1
62
1
5
33f
100
AcDbEntity
100
AcDbLine
10
8.103094
20
8.013929
30
0.0
11
8.452677
21
8.013929
31
0.0
0
LINE
8
Layer_1
62
1
5
340
100
AcDbEntity
100
AcDbLine
10
0.023546
20
15.842595
30
0.0
11
19.661492
21
15.842595
31
0.0
0
LINE
8
Layer_1
62
1
5
341
100
AcDbEntity
100
AcDbLine
10
19.661492
20
15.842595
30
0.0
11
19.661492
21
2.110161
31
0.0
0
LINE
8
Layer_1
62
1
5
342
100
AcDbEntity
100
AcDbLine
10
19.661492
20
2.110161
30
0.0
11
0.023546
21
2.110161
31
0.0
0
LINE
8
Layer_1
62
1
5
343
100
AcDbEntity
100
AcDbLine
10
0.023546
20
2.110161
30
0.0
11
0.023546
21
15.842595
31
0.0
  0
ENDSEC
  0
SECTION
  2
OBJECTS
  0
DICTIONARY
  5
C
330
0
100
AcDbDictionary
  3
ACAD_GROUP
350
D
  3
ACAD_MLINESTYLE
350
17
  0
DICTIONARY
  5
D
330
C
100
AcDbDictionary
  0
DICTIONARY
  5
1A
330
C
100
AcDbDictionary
  0
DICTIONARY
  5
17
330
C
100
AcDbDictionary
  3
STANDARD
350
18
  0
DICTIONARY
  5
19
330
C
100
AcDbDictionary
  0
ENDSEC
  0
EOF
