<?xml version="1.0" encoding="UTF-8" standalone="no"?>
<!-- Created with Inkscape (http://www.inkscape.org/) -->

<svg
   xmlns:dc="http://purl.org/dc/elements/1.1/"
   xmlns:cc="http://creativecommons.org/ns#"
   xmlns:rdf="http://www.w3.org/1999/02/22-rdf-syntax-ns#"
   xmlns:svg="http://www.w3.org/2000/svg"
   xmlns="http://www.w3.org/2000/svg"
   xmlns:sodipodi="http://sodipodi.sourceforge.net/DTD/sodipodi-0.dtd"
   xmlns:inkscape="http://www.inkscape.org/namespaces/inkscape"
   width="210mm"
   height="297mm"
   viewBox="0 0 744.09448819 1052.3622047"
   id="svg9912"
   version="1.1"
   inkscape:version="0.91 r13725"
   sodipodi:docname="lamp-side-b.svg">
  <defs
     id="defs9914" />
  <sodipodi:namedview
     id="base"
     pagecolor="#ffffff"
     bordercolor="#666666"
     borderopacity="1.0"
     inkscape:pageopacity="0.0"
     inkscape:pageshadow="2"
     inkscape:zoom="0.47768074"
     inkscape:cx="89.148626"
     inkscape:cy="602.46096"
     inkscape:document-units="px"
     inkscape:current-layer="layer1"
     showgrid="false"
     inkscape:window-width="1366"
     inkscape:window-height="705"
     inkscape:window-x="-8"
     inkscape:window-y="-8"
     inkscape:window-maximized="1" />
  <metadata
     id="metadata9917">
    <rdf:RDF>
      <cc:Work
         rdf:about="">
        <dc:format>image/svg+xml</dc:format>
        <dc:type
           rdf:resource="http://purl.org/dc/dcmitype/StillImage" />
        <dc:title></dc:title>
      </cc:Work>
    </rdf:RDF>
  </metadata>
  <g
     inkscape:label="Layer 1"
     inkscape:groupmode="layer"
     id="layer1">
    <path
       inkscape:connector-curvature="0"
       inkscape:label="part"
       style="display:inline;fill:none;stroke:#ff0000;stroke-width:0.99683768;stroke-miterlimit:4;stroke-dasharray:none"
       d="m 605.46696,118.73162 0,31.78322 31.82989,0 0,33.47643 -31.82989,0 0,31.78321 31.82989,0 0,33.47642 -31.82989,0 0,31.78323 31.82989,0 0,33.47642 -31.82989,0 0,31.78321 31.82989,0 0,33.47644 -31.82989,0 0,31.78321 31.82989,0 0,33.47643 -31.82989,0 0,31.78322 31.82989,0 0,33.47642 -31.82989,0 0,31.78321 31.82989,0 0,33.47645 -31.82989,0 0,31.7832 31.82989,0 0,33.47644 -31.82989,0 0,31.78321 31.82989,0 0,33.47644 -31.82989,0 0,31.7832 31.82989,0 0,33.47643 -31.82989,0 0,31.78322 31.82989,0 0,33.47643 -31.82989,0 0,31.78321 31.82989,0 0,33.47644 -31.82989,0 0,31.78321"
       id="path7336"
       sodipodi:nodetypes="cccccccccccccccccccccccccccccccccccccccccccccccccc" />
    <path
       inkscape:connector-curvature="0"
       inkscape:label="part"
       style="display:inline;fill:none;stroke:#ff0000;stroke-width:0.99683768;stroke-miterlimit:4;stroke-dasharray:none"
       d="m 138.62758,933.63057 0,-31.78321 -31.82995,0 0,-33.47644 31.82995,0 0,-31.78321 -31.82995,0 0,-33.47643 31.82995,0 0,-31.78322 -31.82995,0 0,-33.47643 31.82995,0 0,-31.7832 -31.82995,0 0,-33.47644 31.82995,0 0,-31.78321 -31.82995,0 0,-33.47644 31.82995,0 0,-31.7832 -31.82995,0 0,-33.47645 31.82995,0 0,-31.78321 -31.82995,0 0,-33.47642 31.82995,0 0,-31.78322 -31.82995,0 0,-33.47643 31.82995,0 0,-31.78321 -31.82995,0 0,-33.47644 31.82995,0 0,-31.78321 -31.82995,0 0,-33.47642 31.82995,0 0,-31.78323 -31.82995,0 0,-33.47642 31.82995,0 0,-31.78321 -31.82995,0 0,-33.47643 31.82995,0 0,-31.78322"
       id="path7340"
       sodipodi:nodetypes="cccccccccccccccccccccccccccccccccccccccccccccccccc" />
    <path
       style="display:inline;fill:none;fill-rule:evenodd;stroke:#ff0000;stroke-width:0.99683768;stroke-linecap:butt;stroke-linejoin:miter;stroke-miterlimit:4;stroke-dasharray:none;stroke-opacity:1"
       d="m 138.62757,119.1986 466.83939,0"
       id="path8685-9"
       inkscape:connector-curvature="0"
       sodipodi:nodetypes="cc" />
    <path
       style="display:inline;fill:none;fill-rule:evenodd;stroke:#ff0000;stroke-width:0.99683768;stroke-linecap:butt;stroke-linejoin:miter;stroke-miterlimit:4;stroke-dasharray:none;stroke-opacity:1"
       d="m 138.62799,933.1636 70.73324,0 52.97565,-195.34723 219.41803,0 52.97915,195.34723 70.7333,0"
       id="path8685-6"
       inkscape:connector-curvature="0"
       sodipodi:nodetypes="cccccc" />
    <path
       style="display:inline;opacity:1;fill:none;stroke:#ff0000;stroke-width:1.24232078;stroke-miterlimit:4;stroke-dasharray:none;stroke-dashoffset:0;stroke-opacity:1"
       d="m 262.33855,685.16036 98.56852,0 0,9.34193 -98.57019,0 z"
       id="rect8858-1"
       inkscape:connector-curvature="0"
       sodipodi:nodetypes="ccccc" />
    <path
       style="display:inline;opacity:1;fill:none;stroke:#ff0000;stroke-width:1.24232078;stroke-miterlimit:4;stroke-dasharray:none;stroke-dashoffset:0;stroke-opacity:1"
       d="m 383.18741,685.16036 98.5685,0 -10e-4,9.34192 -98.5675,0 z"
       id="rect8858-7-1"
       inkscape:connector-curvature="0"
       sodipodi:nodetypes="ccccc" />
    <path
       style="display:inline;opacity:1;fill:none;stroke:#ff0000;stroke-width:0.42592034;stroke-miterlimit:4;stroke-dasharray:none;stroke-dashoffset:0;stroke-opacity:1"
       d="m 160.06081,609.49597 423.97292,0 0,31.32256 -423.97292,0 z"
       id="rect8920-2"
       inkscape:connector-curvature="0"
       sodipodi:nodetypes="ccccc" />
    <path
       style="display:inline;opacity:1;fill:none;stroke:#ff0000;stroke-width:0.42592034;stroke-miterlimit:4;stroke-dasharray:none;stroke-dashoffset:0;stroke-opacity:1"
       d="m 160.06081,479.29788 423.97282,0 0,31.32257 -423.97282,0 z"
       id="rect8920-0-8"
       inkscape:connector-curvature="0"
       sodipodi:nodetypes="ccccc" />
    <path
       style="display:inline;opacity:1;fill:none;stroke:#ff0000;stroke-width:0.42592034;stroke-miterlimit:4;stroke-dasharray:none;stroke-dashoffset:0;stroke-opacity:1"
       d="m 160.06081,349.09983 423.97282,0 0,31.32255 -423.97282,0 z"
       id="rect8920-7-0"
       inkscape:connector-curvature="0"
       sodipodi:nodetypes="ccccc" />
    <path
       style="display:inline;opacity:1;fill:none;stroke:#ff0000;stroke-width:0.42592034;stroke-miterlimit:4;stroke-dasharray:none;stroke-dashoffset:0;stroke-opacity:1"
       d="m 160.06081,544.39692 423.97282,0 0,31.32257 -423.97282,0 z"
       id="rect8920-07-2"
       inkscape:connector-curvature="0"
       sodipodi:nodetypes="ccccc" />
    <path
       style="display:inline;opacity:1;fill:none;stroke:#ff0000;stroke-width:0.42592034;stroke-miterlimit:4;stroke-dasharray:none;stroke-dashoffset:0;stroke-opacity:1"
       d="m 160.06081,284.0008 423.97282,0 0,31.32256 -423.97282,0 z"
       id="rect8920-4-3"
       inkscape:connector-curvature="0"
       sodipodi:nodetypes="ccccc" />
    <path
       style="display:inline;opacity:1;fill:none;stroke:#ff0000;stroke-width:0.42592034;stroke-miterlimit:4;stroke-dasharray:none;stroke-dashoffset:0;stroke-opacity:1"
       d="m 160.06081,414.19887 423.97282,0 0,31.32256 -423.97282,0 z"
       id="rect8920-8-3"
       inkscape:connector-curvature="0"
       sodipodi:nodetypes="ccccc" />
    <path
       style="display:inline;opacity:1;fill:none;stroke:#ff0000;stroke-width:0.42592034;stroke-miterlimit:4;stroke-dasharray:none;stroke-dashoffset:0;stroke-opacity:1"
       d="m 160.06081,153.80274 423.97282,0 0,31.32256 -423.97282,0 z"
       id="rect8920-88-9"
       inkscape:connector-curvature="0"
       sodipodi:nodetypes="ccccc" />
    <path
       style="display:inline;opacity:1;fill:none;stroke:#ff0000;stroke-width:0.42592034;stroke-miterlimit:4;stroke-dasharray:none;stroke-dashoffset:0;stroke-opacity:1"
       d="m 160.06081,218.90177 423.97282,0 0,31.32256 -423.97282,0 z"
       id="rect8920-9-3"
       inkscape:connector-curvature="0"
       sodipodi:nodetypes="ccccc" />
    <path
       style="opacity:1;fill:none;fill-opacity:1;stroke:#ff0000;stroke-width:1;stroke-miterlimit:4;stroke-dasharray:none;stroke-dashoffset:0;stroke-opacity:1"
       d="m 106.79922,119.20078 530.49603,0 0,813.96064 -530.49603,0 z"
       id="rect3450" />
  </g>
</svg>
