999
Inkscape export via Big Blue Saws DXF Export" (http://www.bigbluesaw.com/saw/big-blue-saw-blog/general-updates/big-blue-saws-dxf-export-for-inkscape.html)
  0
SECTION
  2
HEADER
  9
$ACADVER
  1
AC1014
  9
$HANDSEED
  5
FFFF
  0
$INSUNITS
 70
 1
 9
ENDSEC
  0
SECTION
  2
TABLES
  0
TABLE
  2
VPORT
  5
8
330
0
100
AcDbSymbolTable
 70
     4
  0
VPORT
  5
2E
330
8
100
AcDbSymbolTableRecord
100
AcDbViewportTableRecord
  2
*ACTIVE
 70
     0
 10
0.0
 20
0.0
 11
1.0
 21
1.0
 12
4.25
 22
5.5
 13
0.0
 23
0.0
 14
10.0
 24
10.0
 15
10.0
 25
10.0
 16
0.0
 26
0.0
 36
1.0
 17
0.0
 27
0.0
 37
0.0
 40
11
 41
1.24
 42
50.0
 43
0.0
 44
0.0
 50
0.0
 51
0.0
 71
     0
 72
   100
 73
     1
 74
     3
 75
     0
 76
     0
 77
     0
 78
     0
  0
ENDTAB
  0
TABLE
  2
LTYPE
  5
5
330
0
100
AcDbSymbolTable
 70
     1
  0
LTYPE
  5
14
330
5
100
AcDbSymbolTableRecord
100
AcDbLinetypeTableRecord
  2
BYBLOCK
 70
     0
  3

 72
    65
 73
     0
 40
0.0
  0
LTYPE
  5
15
330
5
100
AcDbSymbolTableRecord
100
AcDbLinetypeTableRecord
  2
BYLAYER
 70
     0
  3

 72
    65
 73
     0
 40
0.0
  0
LTYPE
  5
16
330
5
100
AcDbSymbolTableRecord
100
AcDbLinetypeTableRecord
  2
CONTINUOUS
 70
     0
  3
Solid line
 72
    65
 73
     0
 40
0.0
  0
ENDTAB
  0
TABLE
  2
STYLE
  5
3
330
0
100
AcDbSymbolTable
 70
     1
  0
STYLE
  5
11
330
3
100
AcDbSymbolTableRecord
100
AcDbTextStyleTableRecord
  2
STANDARD
 70
     0
 40
0.0
 41
1.0
 50
0.0
 71
     0
 42
2.5
  3
txt
  4

  0
ENDTAB
  0
TABLE
  2
VIEW
  5
6
330
0
100
AcDbSymbolTable
 70
     0
  0
ENDTAB
  0
TABLE
  2
UCS
  5
7
330
0
100
AcDbSymbolTable
 70
     0
  0
ENDTAB
  0
TABLE
  2
APPID
  5
9
330
0
100
AcDbSymbolTable
 70
     2
  0
APPID
  5
12
330
9
100
AcDbSymbolTableRecord
100
AcDbRegAppTableRecord
  2
ACAD
 70
     0
  0
ENDTAB
  0
TABLE
  2
DIMSTYLE
  5
A
330
0
100
AcDbSymbolTable
 70
     1
  0
DIMSTYLE
105
27
330
A
100
AcDbSymbolTableRecord
100
AcDbDimStyleTableRecord
  2
ISO-25
 70
     0
  3

  4

  5

  6

  7

 40
1.0
 41
2.5
 42
0.625
 43
3.75
 44
1.25
 45
0.0
 46
0.0
 47
0.0
 48
0.0
140
2.5
141
2.5
142
0.0
143
0.03937007874016
144
1.0
145
0.0
146
1.0
147
0.625
 71
     0
 72
     0
 73
     0
 74
     0
 75
     0
 76
     0
 77
     1
 78
     8
170
     0
171
     3
172
     1
173
     0
174
     0
175
     0
176
     0
177
     0
178
     0
270
     2
271
     2
272
     2
273
     2
274
     3
340
11
275
     0
280
     0
281
     0
282
     0
283
     0
284
     8
285
     0
286
     0
287
     3
288
     0
  0
ENDTAB
  0
TABLE
  2
BLOCK_RECORD
  5
1
330
0
100
AcDbSymbolTable
 70
     1
  0
BLOCK_RECORD
  5
1F
330
1
100
AcDbSymbolTableRecord
100
AcDbBlockTableRecord
  2
*MODEL_SPACE
  0
BLOCK_RECORD
  5
1B
330
1
100
AcDbSymbolTableRecord
100
AcDbBlockTableRecord
  2
*PAPER_SPACE
  0
ENDTAB
0
TABLE
2
LAYER
5
2
330
0
100
AcDbSymbolTable
70
1
0
LAYER
5
10
330
2
100
AcDbSymbolTableRecord
100
AcDbLayerTableRecord
2
Layer_1
70
0
62
7
6
CONTINUOUS
0
ENDTAB
0
ENDSEC
  0
SECTION
  2
BLOCKS
  0
BLOCK
  5
20
330
1F
100
AcDbEntity
  8
0
100
AcDbBlockBegin
  2
*MODEL_SPACE
 70
     0
 10
0.0
 20
0.0
 30
0.0
  3
*MODEL_SPACE
  1

  0
ENDBLK
  5
21
330
1F
100
AcDbEntity
  8
0
100
AcDbBlockEnd
  0
BLOCK
  5
1C
330
1B
100
AcDbEntity
 67
     1
  8
0
100
AcDbBlockBegin
  2
*PAPER_SPACE
  1

  0
ENDBLK
  5
1D
330
1B
100
AcDbEntity
 67
     1
  8
0
100
AcDbBlockEnd
  0
ENDSEC
  0
SECTION
  2
ENTITIES
0
LINE
8
Layer_1
62
1
5
100
100
AcDbEntity
100
AcDbLine
10
1.181092
20
1.299409
30
0.0
11
1.181092
21
1.651829
31
0.0
0
LINE
8
Layer_1
62
1
5
101
100
AcDbEntity
100
AcDbLine
10
1.181092
20
1.651829
30
0.0
11
1.534758
21
1.651829
31
0.0
0
LINE
8
Layer_1
62
1
5
102
100
AcDbEntity
100
AcDbLine
10
1.534758
20
1.651829
30
0.0
11
1.534758
21
2.024634
31
0.0
0
LINE
8
Layer_1
62
1
5
103
100
AcDbEntity
100
AcDbLine
10
1.534758
20
2.024634
30
0.0
11
1.181092
21
2.024634
31
0.0
0
LINE
8
Layer_1
62
1
5
104
100
AcDbEntity
100
AcDbLine
10
1.181092
20
2.024634
30
0.0
11
1.181092
21
2.377054
31
0.0
0
LINE
8
Layer_1
62
1
5
105
100
AcDbEntity
100
AcDbLine
10
1.181092
20
2.377054
30
0.0
11
1.534758
21
2.377054
31
0.0
0
LINE
8
Layer_1
62
1
5
106
100
AcDbEntity
100
AcDbLine
10
1.534758
20
2.377054
30
0.0
11
1.534758
21
2.749859
31
0.0
0
LINE
8
Layer_1
62
1
5
107
100
AcDbEntity
100
AcDbLine
10
1.534758
20
2.749859
30
0.0
11
1.181092
21
2.749859
31
0.0
0
LINE
8
Layer_1
62
1
5
108
100
AcDbEntity
100
AcDbLine
10
1.181092
20
2.749859
30
0.0
11
1.181092
21
3.102279
31
0.0
0
LINE
8
Layer_1
62
1
5
109
100
AcDbEntity
100
AcDbLine
10
1.181092
20
3.102279
30
0.0
11
1.534758
21
3.102279
31
0.0
0
LINE
8
Layer_1
62
1
5
10a
100
AcDbEntity
100
AcDbLine
10
1.534758
20
3.102279
30
0.0
11
1.534758
21
3.475084
31
0.0
0
LINE
8
Layer_1
62
1
5
10b
100
AcDbEntity
100
AcDbLine
10
1.534758
20
3.475084
30
0.0
11
1.181092
21
3.475084
31
0.0
0
LINE
8
Layer_1
62
1
5
10c
100
AcDbEntity
100
AcDbLine
10
1.181092
20
3.475084
30
0.0
11
1.181092
21
3.827504
31
0.0
0
LINE
8
Layer_1
62
1
5
10d
100
AcDbEntity
100
AcDbLine
10
1.181092
20
3.827504
30
0.0
11
1.534758
21
3.827504
31
0.0
0
LINE
8
Layer_1
62
1
5
10e
100
AcDbEntity
100
AcDbLine
10
1.534758
20
3.827504
30
0.0
11
1.534758
21
4.200309
31
0.0
0
LINE
8
Layer_1
62
1
5
10f
100
AcDbEntity
100
AcDbLine
10
1.534758
20
4.200309
30
0.0
11
1.181092
21
4.200309
31
0.0
0
LINE
8
Layer_1
62
1
5
110
100
AcDbEntity
100
AcDbLine
10
1.181092
20
4.200309
30
0.0
11
1.181092
21
4.552729
31
0.0
0
LINE
8
Layer_1
62
1
5
111
100
AcDbEntity
100
AcDbLine
10
1.181092
20
4.552729
30
0.0
11
1.534758
21
4.552729
31
0.0
0
LINE
8
Layer_1
62
1
5
112
100
AcDbEntity
100
AcDbLine
10
1.534758
20
4.552729
30
0.0
11
1.534758
21
4.925534
31
0.0
0
LINE
8
Layer_1
62
1
5
113
100
AcDbEntity
100
AcDbLine
10
1.534758
20
4.925534
30
0.0
11
1.181092
21
4.925534
31
0.0
0
LINE
8
Layer_1
62
1
5
114
100
AcDbEntity
100
AcDbLine
10
1.181092
20
4.925534
30
0.0
11
1.181092
21
5.277954
31
0.0
0
LINE
8
Layer_1
62
1
5
115
100
AcDbEntity
100
AcDbLine
10
1.181092
20
5.277954
30
0.0
11
1.534758
21
5.277954
31
0.0
0
LINE
8
Layer_1
62
1
5
116
100
AcDbEntity
100
AcDbLine
10
1.534758
20
5.277954
30
0.0
11
1.534758
21
5.650759
31
0.0
0
LINE
8
Layer_1
62
1
5
117
100
AcDbEntity
100
AcDbLine
10
1.534758
20
5.650759
30
0.0
11
1.181092
21
5.650759
31
0.0
0
LINE
8
Layer_1
62
1
5
118
100
AcDbEntity
100
AcDbLine
10
1.181092
20
5.650759
30
0.0
11
1.181092
21
6.003179
31
0.0
0
LINE
8
Layer_1
62
1
5
119
100
AcDbEntity
100
AcDbLine
10
1.181092
20
6.003179
30
0.0
11
1.534758
21
6.003179
31
0.0
0
LINE
8
Layer_1
62
1
5
11a
100
AcDbEntity
100
AcDbLine
10
1.534758
20
6.003179
30
0.0
11
1.534758
21
6.375983
31
0.0
0
LINE
8
Layer_1
62
1
5
11b
100
AcDbEntity
100
AcDbLine
10
1.534758
20
6.375983
30
0.0
11
1.181092
21
6.375983
31
0.0
0
LINE
8
Layer_1
62
1
5
11c
100
AcDbEntity
100
AcDbLine
10
1.181092
20
6.375983
30
0.0
11
1.181092
21
6.728403
31
0.0
0
LINE
8
Layer_1
62
1
5
11d
100
AcDbEntity
100
AcDbLine
10
1.181092
20
6.728403
30
0.0
11
1.534758
21
6.728403
31
0.0
0
LINE
8
Layer_1
62
1
5
11e
100
AcDbEntity
100
AcDbLine
10
1.534758
20
6.728403
30
0.0
11
1.534758
21
7.101208
31
0.0
0
LINE
8
Layer_1
62
1
5
11f
100
AcDbEntity
100
AcDbLine
10
1.534758
20
7.101208
30
0.0
11
1.181092
21
7.101208
31
0.0
0
LINE
8
Layer_1
62
1
5
120
100
AcDbEntity
100
AcDbLine
10
1.181092
20
7.101208
30
0.0
11
1.181092
21
7.453628
31
0.0
0
LINE
8
Layer_1
62
1
5
121
100
AcDbEntity
100
AcDbLine
10
1.181092
20
7.453628
30
0.0
11
1.534758
21
7.453628
31
0.0
0
LINE
8
Layer_1
62
1
5
122
100
AcDbEntity
100
AcDbLine
10
1.534758
20
7.453628
30
0.0
11
1.534758
21
7.826433
31
0.0
0
LINE
8
Layer_1
62
1
5
123
100
AcDbEntity
100
AcDbLine
10
1.534758
20
7.826433
30
0.0
11
1.181092
21
7.826433
31
0.0
0
LINE
8
Layer_1
62
1
5
124
100
AcDbEntity
100
AcDbLine
10
1.181092
20
7.826433
30
0.0
11
1.181092
21
8.178853
31
0.0
0
LINE
8
Layer_1
62
1
5
125
100
AcDbEntity
100
AcDbLine
10
1.181092
20
8.178853
30
0.0
11
1.534758
21
8.178853
31
0.0
0
LINE
8
Layer_1
62
1
5
126
100
AcDbEntity
100
AcDbLine
10
1.534758
20
8.178853
30
0.0
11
1.534758
21
8.551658
31
0.0
0
LINE
8
Layer_1
62
1
5
127
100
AcDbEntity
100
AcDbLine
10
1.534758
20
8.551658
30
0.0
11
1.181092
21
8.551658
31
0.0
0
LINE
8
Layer_1
62
1
5
128
100
AcDbEntity
100
AcDbLine
10
1.181092
20
8.551658
30
0.0
11
1.181092
21
8.904078
31
0.0
0
LINE
8
Layer_1
62
1
5
129
100
AcDbEntity
100
AcDbLine
10
1.181092
20
8.904078
30
0.0
11
1.534758
21
8.904078
31
0.0
0
LINE
8
Layer_1
62
1
5
12a
100
AcDbEntity
100
AcDbLine
10
1.534758
20
8.904078
30
0.0
11
1.534758
21
9.276883
31
0.0
0
LINE
8
Layer_1
62
1
5
12b
100
AcDbEntity
100
AcDbLine
10
1.534758
20
9.276883
30
0.0
11
1.181092
21
9.276883
31
0.0
0
LINE
8
Layer_1
62
1
5
12c
100
AcDbEntity
100
AcDbLine
10
1.181092
20
9.276883
30
0.0
11
1.181092
21
9.629303
31
0.0
0
LINE
8
Layer_1
62
1
5
12d
100
AcDbEntity
100
AcDbLine
10
1.181092
20
9.629303
30
0.0
11
1.534758
21
9.629303
31
0.0
0
LINE
8
Layer_1
62
1
5
12e
100
AcDbEntity
100
AcDbLine
10
1.534758
20
9.629303
30
0.0
11
1.534758
21
10.002108
31
0.0
0
LINE
8
Layer_1
62
1
5
12f
100
AcDbEntity
100
AcDbLine
10
1.534758
20
10.002108
30
0.0
11
1.181092
21
10.002108
31
0.0
0
LINE
8
Layer_1
62
1
5
130
100
AcDbEntity
100
AcDbLine
10
1.181092
20
10.002108
30
0.0
11
1.181092
21
10.354528
31
0.0
0
LINE
8
Layer_1
62
1
5
131
100
AcDbEntity
100
AcDbLine
10
7.075520
20
10.354528
30
0.0
11
7.075520
21
10.002108
31
0.0
0
LINE
8
Layer_1
62
1
5
132
100
AcDbEntity
100
AcDbLine
10
7.075520
20
10.002108
30
0.0
11
6.721856
21
10.002108
31
0.0
0
LINE
8
Layer_1
62
1
5
133
100
AcDbEntity
100
AcDbLine
10
6.721856
20
10.002108
30
0.0
11
6.721856
21
9.629303
31
0.0
0
LINE
8
Layer_1
62
1
5
134
100
AcDbEntity
100
AcDbLine
10
6.721856
20
9.629303
30
0.0
11
7.075520
21
9.629303
31
0.0
0
LINE
8
Layer_1
62
1
5
135
100
AcDbEntity
100
AcDbLine
10
7.075520
20
9.629303
30
0.0
11
7.075520
21
9.276883
31
0.0
0
LINE
8
Layer_1
62
1
5
136
100
AcDbEntity
100
AcDbLine
10
7.075520
20
9.276883
30
0.0
11
6.721856
21
9.276883
31
0.0
0
LINE
8
Layer_1
62
1
5
137
100
AcDbEntity
100
AcDbLine
10
6.721856
20
9.276883
30
0.0
11
6.721856
21
8.904078
31
0.0
0
LINE
8
Layer_1
62
1
5
138
100
AcDbEntity
100
AcDbLine
10
6.721856
20
8.904078
30
0.0
11
7.075520
21
8.904078
31
0.0
0
LINE
8
Layer_1
62
1
5
139
100
AcDbEntity
100
AcDbLine
10
7.075520
20
8.904078
30
0.0
11
7.075520
21
8.551658
31
0.0
0
LINE
8
Layer_1
62
1
5
13a
100
AcDbEntity
100
AcDbLine
10
7.075520
20
8.551658
30
0.0
11
6.721856
21
8.551658
31
0.0
0
LINE
8
Layer_1
62
1
5
13b
100
AcDbEntity
100
AcDbLine
10
6.721856
20
8.551658
30
0.0
11
6.721856
21
8.178853
31
0.0
0
LINE
8
Layer_1
62
1
5
13c
100
AcDbEntity
100
AcDbLine
10
6.721856
20
8.178853
30
0.0
11
7.075520
21
8.178853
31
0.0
0
LINE
8
Layer_1
62
1
5
13d
100
AcDbEntity
100
AcDbLine
10
7.075520
20
8.178853
30
0.0
11
7.075520
21
7.826433
31
0.0
0
LINE
8
Layer_1
62
1
5
13e
100
AcDbEntity
100
AcDbLine
10
7.075520
20
7.826433
30
0.0
11
6.721856
21
7.826433
31
0.0
0
LINE
8
Layer_1
62
1
5
13f
100
AcDbEntity
100
AcDbLine
10
6.721856
20
7.826433
30
0.0
11
6.721856
21
7.453628
31
0.0
0
LINE
8
Layer_1
62
1
5
140
100
AcDbEntity
100
AcDbLine
10
6.721856
20
7.453628
30
0.0
11
7.075520
21
7.453628
31
0.0
0
LINE
8
Layer_1
62
1
5
141
100
AcDbEntity
100
AcDbLine
10
7.075520
20
7.453628
30
0.0
11
7.075520
21
7.101208
31
0.0
0
LINE
8
Layer_1
62
1
5
142
100
AcDbEntity
100
AcDbLine
10
7.075520
20
7.101208
30
0.0
11
6.721856
21
7.101208
31
0.0
0
LINE
8
Layer_1
62
1
5
143
100
AcDbEntity
100
AcDbLine
10
6.721856
20
7.101208
30
0.0
11
6.721856
21
6.728403
31
0.0
0
LINE
8
Layer_1
62
1
5
144
100
AcDbEntity
100
AcDbLine
10
6.721856
20
6.728403
30
0.0
11
7.075520
21
6.728403
31
0.0
0
LINE
8
Layer_1
62
1
5
145
100
AcDbEntity
100
AcDbLine
10
7.075520
20
6.728403
30
0.0
11
7.075520
21
6.375983
31
0.0
0
LINE
8
Layer_1
62
1
5
146
100
AcDbEntity
100
AcDbLine
10
7.075520
20
6.375983
30
0.0
11
6.721856
21
6.375983
31
0.0
0
LINE
8
Layer_1
62
1
5
147
100
AcDbEntity
100
AcDbLine
10
6.721856
20
6.375983
30
0.0
11
6.721856
21
6.003179
31
0.0
0
LINE
8
Layer_1
62
1
5
148
100
AcDbEntity
100
AcDbLine
10
6.721856
20
6.003179
30
0.0
11
7.075520
21
6.003179
31
0.0
0
LINE
8
Layer_1
62
1
5
149
100
AcDbEntity
100
AcDbLine
10
7.075520
20
6.003179
30
0.0
11
7.075520
21
5.650759
31
0.0
0
LINE
8
Layer_1
62
1
5
14a
100
AcDbEntity
100
AcDbLine
10
7.075520
20
5.650759
30
0.0
11
6.721856
21
5.650759
31
0.0
0
LINE
8
Layer_1
62
1
5
14b
100
AcDbEntity
100
AcDbLine
10
6.721856
20
5.650759
30
0.0
11
6.721856
21
5.277954
31
0.0
0
LINE
8
Layer_1
62
1
5
14c
100
AcDbEntity
100
AcDbLine
10
6.721856
20
5.277954
30
0.0
11
7.075520
21
5.277954
31
0.0
0
LINE
8
Layer_1
62
1
5
14d
100
AcDbEntity
100
AcDbLine
10
7.075520
20
5.277954
30
0.0
11
7.075520
21
4.925534
31
0.0
0
LINE
8
Layer_1
62
1
5
14e
100
AcDbEntity
100
AcDbLine
10
7.075520
20
4.925534
30
0.0
11
6.721856
21
4.925534
31
0.0
0
LINE
8
Layer_1
62
1
5
14f
100
AcDbEntity
100
AcDbLine
10
6.721856
20
4.925534
30
0.0
11
6.721856
21
4.552729
31
0.0
0
LINE
8
Layer_1
62
1
5
150
100
AcDbEntity
100
AcDbLine
10
6.721856
20
4.552729
30
0.0
11
7.075520
21
4.552729
31
0.0
0
LINE
8
Layer_1
62
1
5
151
100
AcDbEntity
100
AcDbLine
10
7.075520
20
4.552729
30
0.0
11
7.075520
21
4.200309
31
0.0
0
LINE
8
Layer_1
62
1
5
152
100
AcDbEntity
100
AcDbLine
10
7.075520
20
4.200309
30
0.0
11
6.721856
21
4.200309
31
0.0
0
LINE
8
Layer_1
62
1
5
153
100
AcDbEntity
100
AcDbLine
10
6.721856
20
4.200309
30
0.0
11
6.721856
21
3.827504
31
0.0
0
LINE
8
Layer_1
62
1
5
154
100
AcDbEntity
100
AcDbLine
10
6.721856
20
3.827504
30
0.0
11
7.075520
21
3.827504
31
0.0
0
LINE
8
Layer_1
62
1
5
155
100
AcDbEntity
100
AcDbLine
10
7.075520
20
3.827504
30
0.0
11
7.075520
21
3.475084
31
0.0
0
LINE
8
Layer_1
62
1
5
156
100
AcDbEntity
100
AcDbLine
10
7.075520
20
3.475084
30
0.0
11
6.721856
21
3.475084
31
0.0
0
LINE
8
Layer_1
62
1
5
157
100
AcDbEntity
100
AcDbLine
10
6.721856
20
3.475084
30
0.0
11
6.721856
21
3.102279
31
0.0
0
LINE
8
Layer_1
62
1
5
158
100
AcDbEntity
100
AcDbLine
10
6.721856
20
3.102279
30
0.0
11
7.075520
21
3.102279
31
0.0
0
LINE
8
Layer_1
62
1
5
159
100
AcDbEntity
100
AcDbLine
10
7.075520
20
3.102279
30
0.0
11
7.075520
21
2.749859
31
0.0
0
LINE
8
Layer_1
62
1
5
15a
100
AcDbEntity
100
AcDbLine
10
7.075520
20
2.749859
30
0.0
11
6.721856
21
2.749859
31
0.0
0
LINE
8
Layer_1
62
1
5
15b
100
AcDbEntity
100
AcDbLine
10
6.721856
20
2.749859
30
0.0
11
6.721856
21
2.377054
31
0.0
0
LINE
8
Layer_1
62
1
5
15c
100
AcDbEntity
100
AcDbLine
10
6.721856
20
2.377054
30
0.0
11
7.075520
21
2.377054
31
0.0
0
LINE
8
Layer_1
62
1
5
15d
100
AcDbEntity
100
AcDbLine
10
7.075520
20
2.377054
30
0.0
11
7.075520
21
2.024634
31
0.0
0
LINE
8
Layer_1
62
1
5
15e
100
AcDbEntity
100
AcDbLine
10
7.075520
20
2.024634
30
0.0
11
6.721856
21
2.024634
31
0.0
0
LINE
8
Layer_1
62
1
5
15f
100
AcDbEntity
100
AcDbLine
10
6.721856
20
2.024634
30
0.0
11
6.721850
21
1.651829
31
0.0
0
LINE
8
Layer_1
62
1
5
160
100
AcDbEntity
100
AcDbLine
10
6.721850
20
1.651829
30
0.0
11
7.075520
21
1.651829
31
0.0
0
LINE
8
Layer_1
62
1
5
161
100
AcDbEntity
100
AcDbLine
10
7.075520
20
1.651829
30
0.0
11
7.075520
21
1.299409
31
0.0
0
LINE
8
Layer_1
62
1
5
162
100
AcDbEntity
100
AcDbLine
10
1.175547
20
10.345856
30
0.0
11
7.069975
21
10.345856
31
0.0
0
LINE
8
Layer_1
62
1
5
163
100
AcDbEntity
100
AcDbLine
10
1.175547
20
1.308081
30
0.0
11
2.320677
21
1.308081
31
0.0
0
LINE
8
Layer_1
62
1
5
164
100
AcDbEntity
100
AcDbLine
10
2.320677
20
1.308081
30
0.0
11
2.903793
21
3.475084
31
0.0
0
LINE
8
Layer_1
62
1
5
165
100
AcDbEntity
100
AcDbLine
10
2.903793
20
3.475084
30
0.0
11
5.341729
21
3.475084
31
0.0
0
LINE
8
Layer_1
62
1
5
166
100
AcDbEntity
100
AcDbLine
10
5.341729
20
3.475084
30
0.0
11
5.935927
21
1.308081
31
0.0
0
LINE
8
Layer_1
62
1
5
167
100
AcDbEntity
100
AcDbLine
10
5.935927
20
1.308081
30
0.0
11
7.069975
21
1.308081
31
0.0
0
LINE
8
Layer_1
62
1
5
168
100
AcDbEntity
100
AcDbLine
10
2.903779
20
4.060245
30
0.0
11
3.998983
21
4.060245
31
0.0
0
LINE
8
Layer_1
62
1
5
169
100
AcDbEntity
100
AcDbLine
10
3.998983
20
4.060245
30
0.0
11
3.998983
21
3.956429
31
0.0
0
LINE
8
Layer_1
62
1
5
16a
100
AcDbEntity
100
AcDbLine
10
3.998983
20
3.956429
30
0.0
11
2.903793
21
3.956429
31
0.0
0
LINE
8
Layer_1
62
1
5
16b
100
AcDbEntity
100
AcDbLine
10
2.903793
20
3.956429
30
0.0
11
2.903779
21
4.060245
31
0.0
0
LINE
8
Layer_1
62
1
5
16c
100
AcDbEntity
100
AcDbLine
10
4.246542
20
4.060245
30
0.0
11
5.341746
21
4.060245
31
0.0
0
LINE
8
Layer_1
62
1
5
16d
100
AcDbEntity
100
AcDbLine
10
5.341746
20
4.060245
30
0.0
11
5.341724
21
3.956429
31
0.0
0
LINE
8
Layer_1
62
1
5
16e
100
AcDbEntity
100
AcDbLine
10
5.341724
20
3.956429
30
0.0
11
4.246537
21
3.956429
31
0.0
0
LINE
8
Layer_1
62
1
5
16f
100
AcDbEntity
100
AcDbLine
10
4.246537
20
3.956429
30
0.0
11
4.246542
21
4.060245
31
0.0
0
LINE
8
Layer_1
62
1
5
170
100
AcDbEntity
100
AcDbLine
10
1.767362
20
4.901097
30
0.0
11
6.478166
21
4.901097
31
0.0
0
LINE
8
Layer_1
62
1
5
171
100
AcDbEntity
100
AcDbLine
10
6.478166
20
4.901097
30
0.0
11
6.478166
21
4.553012
31
0.0
0
LINE
8
Layer_1
62
1
5
172
100
AcDbEntity
100
AcDbLine
10
6.478166
20
4.553012
30
0.0
11
1.767362
21
4.553012
31
0.0
0
LINE
8
Layer_1
62
1
5
173
100
AcDbEntity
100
AcDbLine
10
1.767362
20
4.553012
30
0.0
11
1.767362
21
4.901097
31
0.0
0
LINE
8
Layer_1
62
1
5
174
100
AcDbEntity
100
AcDbLine
10
1.767362
20
6.347978
30
0.0
11
6.478165
21
6.347978
31
0.0
0
LINE
8
Layer_1
62
1
5
175
100
AcDbEntity
100
AcDbLine
10
6.478165
20
6.347978
30
0.0
11
6.478165
21
5.999893
31
0.0
0
LINE
8
Layer_1
62
1
5
176
100
AcDbEntity
100
AcDbLine
10
6.478165
20
5.999893
30
0.0
11
1.767362
21
5.999893
31
0.0
0
LINE
8
Layer_1
62
1
5
177
100
AcDbEntity
100
AcDbLine
10
1.767362
20
5.999893
30
0.0
11
1.767362
21
6.347978
31
0.0
0
LINE
8
Layer_1
62
1
5
178
100
AcDbEntity
100
AcDbLine
10
1.767362
20
7.794857
30
0.0
11
6.478165
21
7.794857
31
0.0
0
LINE
8
Layer_1
62
1
5
179
100
AcDbEntity
100
AcDbLine
10
6.478165
20
7.794857
30
0.0
11
6.478165
21
7.446772
31
0.0
0
LINE
8
Layer_1
62
1
5
17a
100
AcDbEntity
100
AcDbLine
10
6.478165
20
7.446772
30
0.0
11
1.767362
21
7.446772
31
0.0
0
LINE
8
Layer_1
62
1
5
17b
100
AcDbEntity
100
AcDbLine
10
1.767362
20
7.446772
30
0.0
11
1.767362
21
7.794857
31
0.0
0
LINE
8
Layer_1
62
1
5
17c
100
AcDbEntity
100
AcDbLine
10
1.767362
20
5.624538
30
0.0
11
6.478165
21
5.624538
31
0.0
0
LINE
8
Layer_1
62
1
5
17d
100
AcDbEntity
100
AcDbLine
10
6.478165
20
5.624538
30
0.0
11
6.478165
21
5.276453
31
0.0
0
LINE
8
Layer_1
62
1
5
17e
100
AcDbEntity
100
AcDbLine
10
6.478165
20
5.276453
30
0.0
11
1.767362
21
5.276453
31
0.0
0
LINE
8
Layer_1
62
1
5
17f
100
AcDbEntity
100
AcDbLine
10
1.767362
20
5.276453
30
0.0
11
1.767362
21
5.624538
31
0.0
0
LINE
8
Layer_1
62
1
5
180
100
AcDbEntity
100
AcDbLine
10
1.767362
20
8.518297
30
0.0
11
6.478165
21
8.518297
31
0.0
0
LINE
8
Layer_1
62
1
5
181
100
AcDbEntity
100
AcDbLine
10
6.478165
20
8.518297
30
0.0
11
6.478165
21
8.170212
31
0.0
0
LINE
8
Layer_1
62
1
5
182
100
AcDbEntity
100
AcDbLine
10
6.478165
20
8.170212
30
0.0
11
1.767362
21
8.170212
31
0.0
0
LINE
8
Layer_1
62
1
5
183
100
AcDbEntity
100
AcDbLine
10
1.767362
20
8.170212
30
0.0
11
1.767362
21
8.518297
31
0.0
0
LINE
8
Layer_1
62
1
5
184
100
AcDbEntity
100
AcDbLine
10
1.767362
20
7.071417
30
0.0
11
6.478165
21
7.071417
31
0.0
0
LINE
8
Layer_1
62
1
5
185
100
AcDbEntity
100
AcDbLine
10
6.478165
20
7.071417
30
0.0
11
6.478165
21
6.723332
31
0.0
0
LINE
8
Layer_1
62
1
5
186
100
AcDbEntity
100
AcDbLine
10
6.478165
20
6.723332
30
0.0
11
1.767362
21
6.723332
31
0.0
0
LINE
8
Layer_1
62
1
5
187
100
AcDbEntity
100
AcDbLine
10
1.767362
20
6.723332
30
0.0
11
1.767362
21
7.071417
31
0.0
0
LINE
8
Layer_1
62
1
5
188
100
AcDbEntity
100
AcDbLine
10
1.767362
20
9.965177
30
0.0
11
6.478165
21
9.965177
31
0.0
0
LINE
8
Layer_1
62
1
5
189
100
AcDbEntity
100
AcDbLine
10
6.478165
20
9.965177
30
0.0
11
6.478165
21
9.617092
31
0.0
0
LINE
8
Layer_1
62
1
5
18a
100
AcDbEntity
100
AcDbLine
10
6.478165
20
9.617092
30
0.0
11
1.767362
21
9.617092
31
0.0
0
LINE
8
Layer_1
62
1
5
18b
100
AcDbEntity
100
AcDbLine
10
1.767362
20
9.617092
30
0.0
11
1.767362
21
9.965177
31
0.0
0
LINE
8
Layer_1
62
1
5
18c
100
AcDbEntity
100
AcDbLine
10
1.767362
20
9.241737
30
0.0
11
6.478165
21
9.241737
31
0.0
0
LINE
8
Layer_1
62
1
5
18d
100
AcDbEntity
100
AcDbLine
10
6.478165
20
9.241737
30
0.0
11
6.478165
21
8.893652
31
0.0
0
LINE
8
Layer_1
62
1
5
18e
100
AcDbEntity
100
AcDbLine
10
6.478165
20
8.893652
30
0.0
11
1.767362
21
8.893652
31
0.0
0
LINE
8
Layer_1
62
1
5
18f
100
AcDbEntity
100
AcDbLine
10
1.767362
20
8.893652
30
0.0
11
1.767362
21
9.241737
31
0.0
0
LINE
8
Layer_1
62
1
5
190
100
AcDbEntity
100
AcDbLine
10
1.187777
20
10.367341
30
0.0
11
7.079939
21
10.367341
31
0.0
0
LINE
8
Layer_1
62
1
5
191
100
AcDbEntity
100
AcDbLine
10
7.079939
20
10.367341
30
0.0
11
7.079939
21
1.325573
31
0.0
0
LINE
8
Layer_1
62
1
5
192
100
AcDbEntity
100
AcDbLine
10
7.079939
20
1.325573
30
0.0
11
1.187777
21
1.325573
31
0.0
0
LINE
8
Layer_1
62
1
5
193
100
AcDbEntity
100
AcDbLine
10
1.187777
20
1.325573
30
0.0
11
1.187777
21
10.367341
31
0.0
  0
ENDSEC
  0
SECTION
  2
OBJECTS
  0
DICTIONARY
  5
C
330
0
100
AcDbDictionary
  3
ACAD_GROUP
350
D
  3
ACAD_MLINESTYLE
350
17
  0
DICTIONARY
  5
D
330
C
100
AcDbDictionary
  0
DICTIONARY
  5
1A
330
C
100
AcDbDictionary
  0
DICTIONARY
  5
17
330
C
100
AcDbDictionary
  3
STANDARD
350
18
  0
DICTIONARY
  5
19
330
C
100
AcDbDictionary
  0
ENDSEC
  0
EOF
