999
Inkscape export via Big Blue Saws DXF Export" (http://www.bigbluesaw.com/saw/big-blue-saw-blog/general-updates/big-blue-saws-dxf-export-for-inkscape.html)
  0
SECTION
  2
HEADER
  9
$ACADVER
  1
AC1014
  9
$HANDSEED
  5
FFFF
  0
$INSUNITS
 70
 1
 9
ENDSEC
  0
SECTION
  2
TABLES
  0
TABLE
  2
VPORT
  5
8
330
0
100
AcDbSymbolTable
 70
     4
  0
VPORT
  5
2E
330
8
100
AcDbSymbolTableRecord
100
AcDbViewportTableRecord
  2
*ACTIVE
 70
     0
 10
0.0
 20
0.0
 11
1.0
 21
1.0
 12
4.25
 22
5.5
 13
0.0
 23
0.0
 14
10.0
 24
10.0
 15
10.0
 25
10.0
 16
0.0
 26
0.0
 36
1.0
 17
0.0
 27
0.0
 37
0.0
 40
11
 41
1.24
 42
50.0
 43
0.0
 44
0.0
 50
0.0
 51
0.0
 71
     0
 72
   100
 73
     1
 74
     3
 75
     0
 76
     0
 77
     0
 78
     0
  0
ENDTAB
  0
TABLE
  2
LTYPE
  5
5
330
0
100
AcDbSymbolTable
 70
     1
  0
LTYPE
  5
14
330
5
100
AcDbSymbolTableRecord
100
AcDbLinetypeTableRecord
  2
BYBLOCK
 70
     0
  3

 72
    65
 73
     0
 40
0.0
  0
LTYPE
  5
15
330
5
100
AcDbSymbolTableRecord
100
AcDbLinetypeTableRecord
  2
BYLAYER
 70
     0
  3

 72
    65
 73
     0
 40
0.0
  0
LTYPE
  5
16
330
5
100
AcDbSymbolTableRecord
100
AcDbLinetypeTableRecord
  2
CONTINUOUS
 70
     0
  3
Solid line
 72
    65
 73
     0
 40
0.0
  0
ENDTAB
  0
TABLE
  2
STYLE
  5
3
330
0
100
AcDbSymbolTable
 70
     1
  0
STYLE
  5
11
330
3
100
AcDbSymbolTableRecord
100
AcDbTextStyleTableRecord
  2
STANDARD
 70
     0
 40
0.0
 41
1.0
 50
0.0
 71
     0
 42
2.5
  3
txt
  4

  0
ENDTAB
  0
TABLE
  2
VIEW
  5
6
330
0
100
AcDbSymbolTable
 70
     0
  0
ENDTAB
  0
TABLE
  2
UCS
  5
7
330
0
100
AcDbSymbolTable
 70
     0
  0
ENDTAB
  0
TABLE
  2
APPID
  5
9
330
0
100
AcDbSymbolTable
 70
     2
  0
APPID
  5
12
330
9
100
AcDbSymbolTableRecord
100
AcDbRegAppTableRecord
  2
ACAD
 70
     0
  0
ENDTAB
  0
TABLE
  2
DIMSTYLE
  5
A
330
0
100
AcDbSymbolTable
 70
     1
  0
DIMSTYLE
105
27
330
A
100
AcDbSymbolTableRecord
100
AcDbDimStyleTableRecord
  2
ISO-25
 70
     0
  3

  4

  5

  6

  7

 40
1.0
 41
2.5
 42
0.625
 43
3.75
 44
1.25
 45
0.0
 46
0.0
 47
0.0
 48
0.0
140
2.5
141
2.5
142
0.0
143
0.03937007874016
144
1.0
145
0.0
146
1.0
147
0.625
 71
     0
 72
     0
 73
     0
 74
     0
 75
     0
 76
     0
 77
     1
 78
     8
170
     0
171
     3
172
     1
173
     0
174
     0
175
     0
176
     0
177
     0
178
     0
270
     2
271
     2
272
     2
273
     2
274
     3
340
11
275
     0
280
     0
281
     0
282
     0
283
     0
284
     8
285
     0
286
     0
287
     3
288
     0
  0
ENDTAB
  0
TABLE
  2
BLOCK_RECORD
  5
1
330
0
100
AcDbSymbolTable
 70
     1
  0
BLOCK_RECORD
  5
1F
330
1
100
AcDbSymbolTableRecord
100
AcDbBlockTableRecord
  2
*MODEL_SPACE
  0
BLOCK_RECORD
  5
1B
330
1
100
AcDbSymbolTableRecord
100
AcDbBlockTableRecord
  2
*PAPER_SPACE
  0
ENDTAB
0
TABLE
2
LAYER
5
2
330
0
100
AcDbSymbolTable
70
1
0
LAYER
5
10
330
2
100
AcDbSymbolTableRecord
100
AcDbLayerTableRecord
2
Layer_1
70
0
62
7
6
CONTINUOUS
0
ENDTAB
0
ENDSEC
  0
SECTION
  2
BLOCKS
  0
BLOCK
  5
20
330
1F
100
AcDbEntity
  8
0
100
AcDbBlockBegin
  2
*MODEL_SPACE
 70
     0
 10
0.0
 20
0.0
 30
0.0
  3
*MODEL_SPACE
  1

  0
ENDBLK
  5
21
330
1F
100
AcDbEntity
  8
0
100
AcDbBlockEnd
  0
BLOCK
  5
1C
330
1B
100
AcDbEntity
 67
     1
  8
0
100
AcDbBlockBegin
  2
*PAPER_SPACE
  1

  0
ENDBLK
  5
1D
330
1B
100
AcDbEntity
 67
     1
  8
0
100
AcDbBlockEnd
  0
ENDSEC
  0
SECTION
  2
ENTITIES
0
LINE
8
Layer_1
62
1
5
100
100
AcDbEntity
100
AcDbLine
10
8.852727
20
4.798688
30
0.0
11
8.852727
21
5.906844
31
0.0
0
LINE
8
Layer_1
62
1
5
101
100
AcDbEntity
100
AcDbLine
10
8.852727
20
6.140400
30
0.0
11
8.852727
21
7.248556
31
0.0
0
LINE
8
Layer_1
62
1
5
102
100
AcDbEntity
100
AcDbLine
10
8.858268
20
6.146698
30
0.0
11
8.492331
21
6.146698
31
0.0
0
LINE
8
Layer_1
62
1
5
103
100
AcDbEntity
100
AcDbLine
10
8.492331
20
6.146698
30
0.0
11
8.492331
21
5.900546
31
0.0
0
LINE
8
Layer_1
62
1
5
104
100
AcDbEntity
100
AcDbLine
10
8.492331
20
5.900546
30
0.0
11
8.858268
21
5.900546
31
0.0
0
LINE
8
Layer_1
62
1
5
105
100
AcDbEntity
100
AcDbLine
10
8.858268
20
7.242257
30
0.0
11
8.492331
21
7.242257
31
0.0
0
LINE
8
Layer_1
62
1
5
106
100
AcDbEntity
100
AcDbLine
10
8.492331
20
7.242257
30
0.0
11
8.492331
21
8.612198
31
0.0
0
LINE
8
Layer_1
62
1
5
107
100
AcDbEntity
100
AcDbLine
10
8.492331
20
8.612198
30
0.0
11
7.124147
21
8.612198
31
0.0
0
LINE
8
Layer_1
62
1
5
108
100
AcDbEntity
100
AcDbLine
10
7.124147
20
8.612198
30
0.0
11
7.124147
21
8.976378
31
0.0
0
LINE
8
Layer_1
62
1
5
109
100
AcDbEntity
100
AcDbLine
10
2.958297
20
7.248555
30
0.0
11
2.958297
21
6.140399
31
0.0
0
LINE
8
Layer_1
62
1
5
10a
100
AcDbEntity
100
AcDbLine
10
2.958297
20
5.906845
30
0.0
11
2.958297
21
4.798689
31
0.0
0
LINE
8
Layer_1
62
1
5
10b
100
AcDbEntity
100
AcDbLine
10
2.952756
20
5.900547
30
0.0
11
3.314653
21
5.900547
31
0.0
0
LINE
8
Layer_1
62
1
5
10c
100
AcDbEntity
100
AcDbLine
10
3.314653
20
5.900547
30
0.0
11
3.314653
21
6.146698
31
0.0
0
LINE
8
Layer_1
62
1
5
10d
100
AcDbEntity
100
AcDbLine
10
3.314653
20
6.146698
30
0.0
11
2.952756
21
6.146698
31
0.0
0
LINE
8
Layer_1
62
1
5
10e
100
AcDbEntity
100
AcDbLine
10
7.130445
20
3.076407
30
0.0
11
6.022289
21
3.076407
31
0.0
0
LINE
8
Layer_1
62
1
5
10f
100
AcDbEntity
100
AcDbLine
10
7.124147
20
3.070866
30
0.0
11
7.124147
21
3.432113
31
0.0
0
LINE
8
Layer_1
62
1
5
110
100
AcDbEntity
100
AcDbLine
10
7.124147
20
3.432113
30
0.0
11
8.492331
21
3.432113
31
0.0
0
LINE
8
Layer_1
62
1
5
111
100
AcDbEntity
100
AcDbLine
10
8.492331
20
3.432113
30
0.0
11
8.492331
21
4.804992
31
0.0
0
LINE
8
Layer_1
62
1
5
112
100
AcDbEntity
100
AcDbLine
10
8.492331
20
4.804992
30
0.0
11
8.858268
21
4.804992
31
0.0
0
LINE
8
Layer_1
62
1
5
113
100
AcDbEntity
100
AcDbLine
10
5.788735
20
3.076407
30
0.0
11
4.680579
21
3.076407
31
0.0
0
LINE
8
Layer_1
62
1
5
114
100
AcDbEntity
100
AcDbLine
10
5.782436
20
3.070866
30
0.0
11
5.782436
21
3.432113
31
0.0
0
LINE
8
Layer_1
62
1
5
115
100
AcDbEntity
100
AcDbLine
10
5.782436
20
3.432113
30
0.0
11
6.028587
21
3.432113
31
0.0
0
LINE
8
Layer_1
62
1
5
116
100
AcDbEntity
100
AcDbLine
10
6.028587
20
3.432113
30
0.0
11
6.028587
21
3.070866
31
0.0
0
LINE
8
Layer_1
62
1
5
117
100
AcDbEntity
100
AcDbLine
10
4.686877
20
3.070866
30
0.0
11
4.686877
21
3.432113
31
0.0
0
LINE
8
Layer_1
62
1
5
118
100
AcDbEntity
100
AcDbLine
10
4.686877
20
3.432113
30
0.0
11
3.314653
21
3.432113
31
0.0
0
LINE
8
Layer_1
62
1
5
119
100
AcDbEntity
100
AcDbLine
10
3.314653
20
3.432113
30
0.0
11
3.314653
21
4.804988
31
0.0
0
LINE
8
Layer_1
62
1
5
11a
100
AcDbEntity
100
AcDbLine
10
3.314653
20
4.804988
30
0.0
11
2.952758
21
4.804988
31
0.0
0
LINE
8
Layer_1
62
1
5
11b
100
AcDbEntity
100
AcDbLine
10
7.130445
20
8.970837
30
0.0
11
6.022289
21
8.970837
31
0.0
0
LINE
8
Layer_1
62
1
5
11c
100
AcDbEntity
100
AcDbLine
10
6.028588
20
8.976378
30
0.0
11
6.028588
21
8.615136
31
0.0
0
LINE
8
Layer_1
62
1
5
11d
100
AcDbEntity
100
AcDbLine
10
6.028588
20
8.615136
30
0.0
11
5.782436
21
8.615136
31
0.0
0
LINE
8
Layer_1
62
1
5
11e
100
AcDbEntity
100
AcDbLine
10
5.782436
20
8.615136
30
0.0
11
5.782436
21
8.976378
31
0.0
0
LINE
8
Layer_1
62
1
5
11f
100
AcDbEntity
100
AcDbLine
10
5.788735
20
8.970837
30
0.0
11
4.680579
21
8.970837
31
0.0
0
LINE
8
Layer_1
62
1
5
120
100
AcDbEntity
100
AcDbLine
10
4.686877
20
8.976378
30
0.0
11
4.686877
21
8.612198
31
0.0
0
LINE
8
Layer_1
62
1
5
121
100
AcDbEntity
100
AcDbLine
10
4.686877
20
8.612198
30
0.0
11
3.314653
21
8.612198
31
0.0
0
LINE
8
Layer_1
62
1
5
122
100
AcDbEntity
100
AcDbLine
10
3.314653
20
8.612198
30
0.0
11
3.314653
21
7.242257
31
0.0
0
LINE
8
Layer_1
62
1
5
123
100
AcDbEntity
100
AcDbLine
10
3.314653
20
7.242257
30
0.0
11
2.952756
21
7.242257
31
0.0
0
LINE
8
Layer_1
62
1
5
124
100
AcDbEntity
100
AcDbLine
10
6.587182
20
6.023622
30
0.0
11
6.573333
21
5.886242
31
0.0
0
LINE
8
Layer_1
62
1
5
125
100
AcDbEntity
100
AcDbLine
10
6.573333
20
5.886242
30
0.0
11
6.533613
21
5.758285
31
0.0
0
LINE
8
Layer_1
62
1
5
126
100
AcDbEntity
100
AcDbLine
10
6.533613
20
5.758285
30
0.0
11
6.470763
21
5.642494
31
0.0
0
LINE
8
Layer_1
62
1
5
127
100
AcDbEntity
100
AcDbLine
10
6.470763
20
5.642494
30
0.0
11
6.387525
21
5.541608
31
0.0
0
LINE
8
Layer_1
62
1
5
128
100
AcDbEntity
100
AcDbLine
10
6.387525
20
5.541608
30
0.0
11
6.286640
21
5.458370
31
0.0
0
LINE
8
Layer_1
62
1
5
129
100
AcDbEntity
100
AcDbLine
10
6.286640
20
5.458370
30
0.0
11
6.170848
21
5.395521
31
0.0
0
LINE
8
Layer_1
62
1
5
12a
100
AcDbEntity
100
AcDbLine
10
6.170848
20
5.395521
30
0.0
11
6.042891
21
5.355801
31
0.0
0
LINE
8
Layer_1
62
1
5
12b
100
AcDbEntity
100
AcDbLine
10
6.042891
20
5.355801
30
0.0
11
5.905511
21
5.341952
31
0.0
0
LINE
8
Layer_1
62
1
5
12c
100
AcDbEntity
100
AcDbLine
10
5.905511
20
5.341952
30
0.0
11
5.768131
21
5.355801
31
0.0
0
LINE
8
Layer_1
62
1
5
12d
100
AcDbEntity
100
AcDbLine
10
5.768131
20
5.355801
30
0.0
11
5.640174
21
5.395521
31
0.0
0
LINE
8
Layer_1
62
1
5
12e
100
AcDbEntity
100
AcDbLine
10
5.640174
20
5.395521
30
0.0
11
5.524382
21
5.458370
31
0.0
0
LINE
8
Layer_1
62
1
5
12f
100
AcDbEntity
100
AcDbLine
10
5.524382
20
5.458370
30
0.0
11
5.423497
21
5.541608
31
0.0
0
LINE
8
Layer_1
62
1
5
130
100
AcDbEntity
100
AcDbLine
10
5.423497
20
5.541608
30
0.0
11
5.340259
21
5.642494
31
0.0
0
LINE
8
Layer_1
62
1
5
131
100
AcDbEntity
100
AcDbLine
10
5.340259
20
5.642494
30
0.0
11
5.277409
21
5.758285
31
0.0
0
LINE
8
Layer_1
62
1
5
132
100
AcDbEntity
100
AcDbLine
10
5.277409
20
5.758285
30
0.0
11
5.237689
21
5.886242
31
0.0
0
LINE
8
Layer_1
62
1
5
133
100
AcDbEntity
100
AcDbLine
10
5.237689
20
5.886242
30
0.0
11
5.223840
21
6.023622
31
0.0
0
LINE
8
Layer_1
62
1
5
134
100
AcDbEntity
100
AcDbLine
10
5.223840
20
6.023622
30
0.0
11
5.237689
21
6.161003
31
0.0
0
LINE
8
Layer_1
62
1
5
135
100
AcDbEntity
100
AcDbLine
10
5.237689
20
6.161003
30
0.0
11
5.277409
21
6.288960
31
0.0
0
LINE
8
Layer_1
62
1
5
136
100
AcDbEntity
100
AcDbLine
10
5.277409
20
6.288960
30
0.0
11
5.340259
21
6.404751
31
0.0
0
LINE
8
Layer_1
62
1
5
137
100
AcDbEntity
100
AcDbLine
10
5.340259
20
6.404751
30
0.0
11
5.423497
21
6.505637
31
0.0
0
LINE
8
Layer_1
62
1
5
138
100
AcDbEntity
100
AcDbLine
10
5.423497
20
6.505637
30
0.0
11
5.524382
21
6.588875
31
0.0
0
LINE
8
Layer_1
62
1
5
139
100
AcDbEntity
100
AcDbLine
10
5.524382
20
6.588875
30
0.0
11
5.640174
21
6.651724
31
0.0
0
LINE
8
Layer_1
62
1
5
13a
100
AcDbEntity
100
AcDbLine
10
5.640174
20
6.651724
30
0.0
11
5.768131
21
6.691444
31
0.0
0
LINE
8
Layer_1
62
1
5
13b
100
AcDbEntity
100
AcDbLine
10
5.768131
20
6.691444
30
0.0
11
5.905511
21
6.705293
31
0.0
0
LINE
8
Layer_1
62
1
5
13c
100
AcDbEntity
100
AcDbLine
10
5.905511
20
6.705293
30
0.0
11
6.042891
21
6.691444
31
0.0
0
LINE
8
Layer_1
62
1
5
13d
100
AcDbEntity
100
AcDbLine
10
6.042891
20
6.691444
30
0.0
11
6.170848
21
6.651724
31
0.0
0
LINE
8
Layer_1
62
1
5
13e
100
AcDbEntity
100
AcDbLine
10
6.170848
20
6.651724
30
0.0
11
6.286640
21
6.588875
31
0.0
0
LINE
8
Layer_1
62
1
5
13f
100
AcDbEntity
100
AcDbLine
10
6.286640
20
6.588875
30
0.0
11
6.387525
21
6.505637
31
0.0
0
LINE
8
Layer_1
62
1
5
140
100
AcDbEntity
100
AcDbLine
10
6.387525
20
6.505637
30
0.0
11
6.470763
21
6.404751
31
0.0
0
LINE
8
Layer_1
62
1
5
141
100
AcDbEntity
100
AcDbLine
10
6.470763
20
6.404751
30
0.0
11
6.533613
21
6.288960
31
0.0
0
LINE
8
Layer_1
62
1
5
142
100
AcDbEntity
100
AcDbLine
10
6.533613
20
6.288960
30
0.0
11
6.573333
21
6.161003
31
0.0
0
LINE
8
Layer_1
62
1
5
143
100
AcDbEntity
100
AcDbLine
10
6.573333
20
6.161003
30
0.0
11
6.587182
21
6.023622
31
0.0
0
LINE
8
Layer_1
62
1
5
144
100
AcDbEntity
100
AcDbLine
10
6.587182
20
6.023622
30
0.0
11
6.587182
21
6.023622
31
0.0
0
LINE
8
Layer_1
62
1
5
145
100
AcDbEntity
100
AcDbLine
10
2.960335
20
8.968799
30
0.0
11
8.850689
21
8.968799
31
0.0
0
LINE
8
Layer_1
62
1
5
146
100
AcDbEntity
100
AcDbLine
10
8.850689
20
8.968799
30
0.0
11
8.850689
21
3.078445
31
0.0
0
LINE
8
Layer_1
62
1
5
147
100
AcDbEntity
100
AcDbLine
10
8.850689
20
3.078445
30
0.0
11
2.960335
21
3.078445
31
0.0
0
LINE
8
Layer_1
62
1
5
148
100
AcDbEntity
100
AcDbLine
10
2.960335
20
3.078445
30
0.0
11
2.960335
21
8.968799
31
0.0
  0
ENDSEC
  0
SECTION
  2
OBJECTS
  0
DICTIONARY
  5
C
330
0
100
AcDbDictionary
  3
ACAD_GROUP
350
D
  3
ACAD_MLINESTYLE
350
17
  0
DICTIONARY
  5
D
330
C
100
AcDbDictionary
  0
DICTIONARY
  5
1A
330
C
100
AcDbDictionary
  0
DICTIONARY
  5
17
330
C
100
AcDbDictionary
  3
STANDARD
350
18
  0
DICTIONARY
  5
19
330
C
100
AcDbDictionary
  0
ENDSEC
  0
EOF
