<?xml version="1.0" encoding="UTF-8" standalone="no"?>
<!-- Created with Inkscape (http://www.inkscape.org/) -->

<svg
   xmlns:dc="http://purl.org/dc/elements/1.1/"
   xmlns:cc="http://creativecommons.org/ns#"
   xmlns:rdf="http://www.w3.org/1999/02/22-rdf-syntax-ns#"
   xmlns:svg="http://www.w3.org/2000/svg"
   xmlns="http://www.w3.org/2000/svg"
   xmlns:sodipodi="http://sodipodi.sourceforge.net/DTD/sodipodi-0.dtd"
   xmlns:inkscape="http://www.inkscape.org/namespaces/inkscape"
   width="210mm"
   height="297mm"
   viewBox="0 0 744.09448819 1052.3622047"
   id="svg9820"
   version="1.1"
   inkscape:version="0.91 r13725"
   sodipodi:docname="lamp-side-a.svg">
  <defs
     id="defs9822" />
  <sodipodi:namedview
     id="base"
     pagecolor="#ffffff"
     bordercolor="#666666"
     borderopacity="1.0"
     inkscape:pageopacity="0.0"
     inkscape:pageshadow="2"
     inkscape:zoom="0.35"
     inkscape:cx="-330.71429"
     inkscape:cy="511.06243"
     inkscape:document-units="px"
     inkscape:current-layer="layer1"
     showgrid="false"
     inkscape:window-width="1366"
     inkscape:window-height="705"
     inkscape:window-x="-8"
     inkscape:window-y="-8"
     inkscape:window-maximized="1" />
  <metadata
     id="metadata9825">
    <rdf:RDF>
      <cc:Work
         rdf:about="">
        <dc:format>image/svg+xml</dc:format>
        <dc:type
           rdf:resource="http://purl.org/dc/dcmitype/StillImage" />
        <dc:title></dc:title>
      </cc:Work>
    </rdf:RDF>
  </metadata>
  <g
     inkscape:label="Layer 1"
     inkscape:groupmode="layer"
     id="layer1">
    <path
       inkscape:label="part"
       style="display:inline;fill:none;stroke:#ff0000;stroke-width:0.99691784;stroke-miterlimit:4;stroke-dasharray:none"
       d="m 106.2983,935.41535 0,-31.7178 31.82992,0 0,-33.55243 -31.82992,0 0,-31.71781 31.82992,0 0,-33.55243 -31.82992,0 0,-31.7178 31.82992,0 0,-33.55243 -31.82992,0 0,-31.71781 31.82992,0 0,-33.55244 -31.82992,0 0,-31.7178 31.82992,0 0,-33.55243 -31.82992,0 0,-31.71781 31.82992,0 0,-33.55243 -31.82992,0 0,-31.7178 31.82992,0 0,-33.55243 -31.82992,0 0,-31.71781 31.82992,0 0,-33.55243 -31.82992,0 0,-31.7178 31.82992,0 0,-33.55243 -31.82992,0 0,-31.71781 31.82992,0 0,-33.55243 -31.82992,0 0,-31.7178 31.82992,0 0,-33.55243 -31.82992,0 0,-31.71781 31.82992,0 0,-33.55243 -31.82992,0 0,-31.7178"
       id="path7342"
       inkscape:connector-curvature="0"
       sodipodi:nodetypes="cccccccccccccccccccccccccccccccccccccccccccccccccc" />
    <path
       inkscape:label="part"
       style="display:inline;fill:none;stroke:#ff0000;stroke-width:0.99691784;stroke-miterlimit:4;stroke-dasharray:none"
       d="m 636.79684,120.45472 0,31.7178 -31.82984,0 0,33.55243 31.82984,0 0,31.71781 -31.82984,0 0,33.55243 31.82984,0 0,31.7178 -31.82984,0 0,33.55243 31.82984,0 0,31.71781 -31.82984,0 0,33.55243 31.82984,0 0,31.7178 -31.82984,0 0,33.55243 31.82984,0 0,31.71781 -31.82984,0 0,33.55243 31.82984,0 0,31.7178 -31.82984,0 0,33.55243 31.82984,0 0,31.71781 -31.82984,0 0,33.55243 31.82984,0 0,31.7178 -31.82984,0 0,33.55244 31.82984,0 0,31.71781 -31.82984,0 0,33.55243 31.82984,0 0,31.7178 -31.82984,0 0,33.55243 31.82984,0 0,31.71781 -31.82984,0 -4.7e-4,33.55243 31.83031,0 0,31.7178"
       id="path7346"
       inkscape:connector-curvature="0"
       sodipodi:nodetypes="cccccccccccccccccccccccccccccccccccccccccccccccccc" />
    <path
       style="display:inline;fill:none;fill-rule:evenodd;stroke:#ff0000;stroke-width:0.99691784;stroke-linecap:butt;stroke-linejoin:miter;stroke-miterlimit:4;stroke-dasharray:none;stroke-opacity:1"
       d="m 105.79924,121.23516 530.49853,0"
       id="path8685"
       inkscape:connector-curvature="0"
       sodipodi:nodetypes="cc" />
    <path
       style="display:inline;fill:none;fill-rule:evenodd;stroke:#ff0000;stroke-width:0.99691784;stroke-linecap:butt;stroke-linejoin:miter;stroke-miterlimit:4;stroke-dasharray:none;stroke-opacity:1"
       d="m 105.79924,934.63491 103.06171,0 52.48046,-195.03024 219.41419,0 53.47779,195.03024 102.06432,0"
       id="path8685-2"
       inkscape:connector-curvature="0"
       sodipodi:nodetypes="cccccc" />
    <path
       style="display:inline;opacity:1;fill:none;stroke:#ff0000;stroke-width:1.24242067;stroke-miterlimit:4;stroke-dasharray:none;stroke-dashoffset:0;stroke-opacity:1"
       d="m 261.34007,686.94012 98.56838,0 0,9.34344 -98.56704,0 z"
       id="rect8858"
       inkscape:connector-curvature="0"
       sodipodi:nodetypes="ccccc" />
    <path
       style="display:inline;opacity:1;fill:none;stroke:#ff0000;stroke-width:1.24242067;stroke-miterlimit:4;stroke-dasharray:none;stroke-dashoffset:0;stroke-opacity:1"
       d="m 382.18877,686.94012 98.56838,0 -0.002,9.34343 -98.56684,0 z"
       id="rect8858-7"
       inkscape:connector-curvature="0"
       sodipodi:nodetypes="ccccc" />
    <path
       style="display:inline;opacity:1;fill:none;stroke:#ff0000;stroke-width:0.42595464;stroke-miterlimit:4;stroke-dasharray:none;stroke-dashoffset:0;stroke-opacity:1"
       d="m 159.06258,611.26344 423.97233,0 0,31.32764 -423.97233,0 z"
       id="rect8920"
       inkscape:connector-curvature="0"
       sodipodi:nodetypes="ccccc" />
    <path
       style="display:inline;opacity:1;fill:none;stroke:#ff0000;stroke-width:0.42595464;stroke-miterlimit:4;stroke-dasharray:none;stroke-dashoffset:0;stroke-opacity:1"
       d="m 159.06258,481.04422 423.97227,0 0,31.32764 -423.97227,0 z"
       id="rect8920-0"
       inkscape:connector-curvature="0"
       sodipodi:nodetypes="ccccc" />
    <path
       style="display:inline;opacity:1;fill:none;stroke:#ff0000;stroke-width:0.42595464;stroke-miterlimit:4;stroke-dasharray:none;stroke-dashoffset:0;stroke-opacity:1"
       d="m 159.06258,350.82504 423.97227,0 0,31.32764 -423.97227,0 z"
       id="rect8920-7"
       inkscape:connector-curvature="0"
       sodipodi:nodetypes="ccccc" />
    <path
       style="display:inline;opacity:1;fill:none;stroke:#ff0000;stroke-width:0.42595464;stroke-miterlimit:4;stroke-dasharray:none;stroke-dashoffset:0;stroke-opacity:1"
       d="m 159.06258,546.15382 423.97227,0 0,31.32765 -423.97227,0 z"
       id="rect8920-07"
       inkscape:connector-curvature="0"
       sodipodi:nodetypes="ccccc" />
    <path
       style="display:inline;opacity:1;fill:none;stroke:#ff0000;stroke-width:0.42595464;stroke-miterlimit:4;stroke-dasharray:none;stroke-dashoffset:0;stroke-opacity:1"
       d="m 159.06258,285.71544 423.97227,0 0,31.32765 -423.97227,0 z"
       id="rect8920-4"
       inkscape:connector-curvature="0"
       sodipodi:nodetypes="ccccc" />
    <path
       style="display:inline;opacity:1;fill:none;stroke:#ff0000;stroke-width:0.42595464;stroke-miterlimit:4;stroke-dasharray:none;stroke-dashoffset:0;stroke-opacity:1"
       d="m 159.06258,415.93465 423.97227,0 0,31.32763 -423.97227,0 z"
       id="rect8920-8"
       inkscape:connector-curvature="0"
       sodipodi:nodetypes="ccccc" />
    <path
       style="display:inline;opacity:1;fill:none;stroke:#ff0000;stroke-width:0.42595464;stroke-miterlimit:4;stroke-dasharray:none;stroke-dashoffset:0;stroke-opacity:1"
       d="m 159.06258,155.49625 423.97227,0 0,31.32763 -423.97227,0 z"
       id="rect8920-88"
       inkscape:connector-curvature="0"
       sodipodi:nodetypes="ccccc" />
    <path
       style="display:inline;opacity:1;fill:none;stroke:#ff0000;stroke-width:0.42595464;stroke-miterlimit:4;stroke-dasharray:none;stroke-dashoffset:0;stroke-opacity:1"
       d="m 159.06258,220.60584 423.97227,0 0,31.32765 -423.97227,0 z"
       id="rect8920-9"
       inkscape:connector-curvature="0"
       sodipodi:nodetypes="ccccc" />
    <path
       style="opacity:1;fill:none;fill-opacity:1;stroke:#ff0000;stroke-width:1.20154238;stroke-miterlimit:4;stroke-dasharray:none;stroke-dashoffset:0;stroke-opacity:1"
       d="m 106.89996,119.30155 530.29456,0 0,813.7591 -530.29456,0 z"
       id="rect3428" />
  </g>
</svg>
